<?xml version="1.0" standalone="no"?>
<!DOCTYPE svg PUBLIC "-//W3C//DTD SVG 1.1//EN" "http://www.w3.org/Graphics/SVG/1.1/DTD/svg11.dtd" >
<svg xmlns="http://www.w3.org/2000/svg" xmlns:xlink="http://www.w3.org/1999/xlink" version="1.1">
<metadata>
Created by FontForge 20161116 at Mon Oct 26 22:54:54 2015
 By Jimmy Wärting
Copyright \(c\) 2015 by Radomir Tinkov. All rights reserved.
</metadata>
<defs>
<font id="Qanelas-Heavy" horiz-adv-x="660" >
  <font-face 
    font-family="Qanelas Heavy"
    font-weight="900"
    font-stretch="normal"
    units-per-em="1000"
    panose-1="0 0 10 0 0 0 0 0 0 0"
    ascent="800"
    descent="-200"
    x-height="500"
    cap-height="700"
    bbox="-487 -284 1313 1010"
    underline-thickness="50"
    underline-position="-100"
    unicode-range="U+0020-FB02"
  />
<missing-glyph horiz-adv-x="500" 
d="M410 800v-1000h-317v1000h317zM333 733h-165v-33h65v-37h-66v-33h166v33h-66v37h66v33zM267 604h-100v-104h166v34h-66v70zM233 570v-36h-33v36h33zM333 473h-166v-33h66v-37h-66v-33h100v70h66v33zM333 413h-33v-66h-133v-34h166v100zM333 291h-100v-56h34v23h33v-47
h-100v80h-33v-113h166v113zM333 118h-166v-113h166v113zM300 85v-47h-100v47h100zM333 -18h-166v-33h70l-70 -47v-33h166v33h-102l70 47h32v33z" />
    <glyph glyph-name="f_f" unicode="ff" horiz-adv-x="605" 
d="M605 560c-50 4 -77 -18 -77 -50v-10h77v-176h-77v-324h-185v324h-58h-42v-324h-185v324h-58v176h58c0 140 87 226 262 216v-166c-50 4 -77 -18 -77 -50h77h23v10c0 140 87 226 262 216v-166z" />
    <glyph glyph-name="f_f_i" unicode="ffi" horiz-adv-x="850" 
d="M810 500v-500h-185v324h-97v-324h-185v324h-58h-42v-324h-185v324h-58v176h58c0 140 87 226 262 216v-166c-50 4 -77 -18 -77 -50h77h23v10c0 140 87 216 262 216c52 0 92 -5 135 -16v-152c-40 6 -81 10 -120 10c-56 0 -92 -15 -92 -58v-10h282z" />
    <glyph glyph-name="f_f_l" unicode="ffl" horiz-adv-x="850" 
d="M605 726c82 0 137 -5 205 -16v-710h-185v572c-8 1 -16 1 -25 1c-41 0 -72 -20 -72 -63v-10h57v-176h-57v-324h-185v324h-58h-42v-324h-185v324h-58v176h58c0 140 87 226 262 216v-166c-50 4 -77 -18 -77 -50h77h23v10c0 140 87 216 262 216z" />
    <glyph glyph-name="fi" unicode="fi" horiz-adv-x="565" 
d="M525 500v-500h-185v324h-97v-324h-185v324h-58v176h58c0 140 87 216 262 216c52 0 92 -5 135 -16v-152c-40 6 -81 10 -120 10c-56 0 -92 -15 -92 -58h282z" />
    <glyph glyph-name="fl" unicode="fl" horiz-adv-x="565" 
d="M320 716c82 0 137 -5 205 -16v-700h-185v562c-8 1 -16 1 -25 1c-41 0 -72 -20 -72 -63h57v-176h-57v-324h-185v324h-58v176h58c0 140 87 216 262 216z" />
    <glyph glyph-name=".notdef" horiz-adv-x="500" 
d="M410 800v-1000h-317v1000h317zM333 733h-165v-33h65v-37h-66v-33h166v33h-66v37h66v33zM267 604h-100v-104h166v34h-66v70zM233 570v-36h-33v36h33zM333 473h-166v-33h66v-37h-66v-33h100v70h66v33zM333 413h-33v-66h-133v-34h166v100zM333 291h-100v-56h34v23h33v-47
h-100v80h-33v-113h166v113zM333 118h-166v-113h166v113zM300 85v-47h-100v47h100zM333 -18h-166v-33h70l-70 -47v-33h166v33h-102l70 47h32v33z" />
    <glyph glyph-name="A" unicode="A" 
d="M455 0l-24 90h-202l-24 -90h-215l228 700h224l228 -700h-215zM272 250h116l-58 215z" />
    <glyph glyph-name="Aacute" unicode="&#xc1;" 
d="M530 900l-116 -150h-174l80 150h210zM455 0l-24 90h-202l-24 -90h-215l228 700h224l228 -700h-215zM272 250h116l-58 215z" />
    <glyph glyph-name="Abreve" unicode="&#x102;" 
d="M330 732c-118 0 -185 57 -185 170h150c0 -26 11 -40 35 -40s35 14 35 40h150c0 -113 -67 -170 -185 -170zM455 0l-24 90h-202l-24 -90h-215l228 700h224l228 -700h-215zM272 250h116l-58 215z" />
    <glyph glyph-name="Acircumflex" unicode="&#xc2;" 
d="M325 798l-45 -58h-155l106 160h174h14l106 -160h-155zM455 0l-24 90h-202l-24 -90h-215l228 700h224l228 -700h-215zM272 250h116l-58 215z" />
    <glyph glyph-name="Adieresis" unicode="&#xc4;" 
d="M305 895v-150h-150v150h150zM505 895v-150h-150v150h150zM455 0l-24 90h-202l-24 -90h-215l228 700h224l228 -700h-215zM272 250h116l-58 215z" />
    <glyph glyph-name="Agrave" unicode="&#xc0;" 
d="M420 750h-174l-116 150h210zM455 0l-24 90h-202l-24 -90h-215l228 700h224l228 -700h-215zM272 250h116l-58 215z" />
    <glyph glyph-name="Amacron" unicode="&#x100;" 
d="M490 889v-140h-320v140h320zM455 0l-24 90h-202l-24 -90h-215l228 700h224l228 -700h-215zM272 250h116l-58 215z" />
    <glyph glyph-name="Aogonek" unicode="&#x104;" 
d="M630 -71c0 -13 8 -19 21 -19c7 0 13 1 19 3v-110c-27 -11 -54 -17 -88 -17c-60 0 -110 28 -110 91c0 38 21 83 59 123h-76l-24 90h-202l-24 -90h-215l228 700h224l228 -700c-28 -29 -40 -54 -40 -71zM272 250h116l-58 215z" />
    <glyph glyph-name="Aring" unicode="&#xc5;" 
d="M330 730c-87 0 -149 60 -149 140s62 140 149 140c90 0 149 -60 149 -140s-59 -140 -149 -140zM330 900c-20 0 -31 -13 -31 -30s11 -30 31 -30c21 0 32 13 32 30s-11 30 -32 30zM455 0l-24 90h-202l-24 -90h-215l228 700h224l228 -700h-215zM272 250h116l-58 215z" />
    <glyph glyph-name="Atilde" unicode="&#xc3;" 
d="M326 757c-30 13 -55 36 -55 -14h-120c0 167 103 186 183 153c31 -13 56 -36 56 14h120c0 -171 -103 -186 -184 -153zM455 0l-24 90h-202l-24 -90h-215l228 700h224l228 -700h-215zM272 250h116l-58 215z" />
    <glyph glyph-name="AE" unicode="&#xc6;" horiz-adv-x="885" 
d="M635 184h225v-184h-370h-50v90h-182l-48 -90h-220l389 700h111h145h220v-184h-220v-77h195v-170h-195v-85zM345 250h95v177z" />
    <glyph glyph-name="B" unicode="B" horiz-adv-x="685" 
d="M548 422c76 -34 122 -105 122 -195c0 -126 -94 -227 -231 -227h-349h-40v700h200h105c123 0 225 -72 225 -185c0 -36 -12 -68 -32 -93zM351 524h-101v-80h122c11 10 17 25 17 39c0 21 -13 41 -38 41zM409 176c37 0 61 21 61 56c0 37 -24 56 -60 56h-160v-112h159z" />
    <glyph glyph-name="C" unicode="C" horiz-adv-x="756" 
d="M391 -16c-212 0 -366 159 -366 366s154 366 366 366c178 0 327 -124 349 -295h-207c-15 59 -73 99 -142 99c-99 0 -166 -73 -166 -170s67 -170 166 -170c70 0 127 40 142 100h208c-23 -172 -171 -296 -350 -296z" />
    <glyph glyph-name="Cacute" unicode="&#x106;" horiz-adv-x="756" 
d="M301 760h174l116 150h-210zM391 -16c-212 0 -366 159 -366 366s154 366 366 366c178 0 327 -124 349 -295h-207c-15 59 -73 99 -142 99c-99 0 -166 -73 -166 -170s67 -170 166 -170c70 0 127 40 142 100h208c-23 -172 -171 -296 -350 -296z" />
    <glyph glyph-name="Ccaron" unicode="&#x10c;" horiz-adv-x="756" 
d="M292 750l-106 160h155l45 -58l45 58h155l-106 -160h-188zM533 280h208c-23 -172 -171 -296 -350 -296c-212 0 -366 159 -366 366s154 366 366 366c178 0 327 -124 349 -295h-207c-15 59 -73 99 -142 99c-99 0 -166 -73 -166 -170s67 -170 166 -170c70 0 127 40 142 100z
" />
    <glyph glyph-name="Ccedilla" unicode="&#xc7;" horiz-adv-x="756" 
d="M741 280c-20 -147 -130 -258 -273 -288v-38c17 -7 53 -29 53 -77c0 -73 -77 -113 -245 -103v114c65 -5 95 1 95 14c0 12 -21 17 -53 20v69c-173 31 -293 177 -293 359c0 207 154 366 366 366c178 0 327 -124 349 -295h-207c-15 59 -73 99 -142 99
c-99 0 -166 -73 -166 -170s67 -170 166 -170c70 0 127 40 142 100h208z" />
    <glyph glyph-name="Cdotaccent" unicode="&#x10a;" horiz-adv-x="756" 
d="M306 755v160h170v-160h-170zM391 -16c-212 0 -366 159 -366 366s154 366 366 366c178 0 327 -124 349 -295h-207c-15 59 -73 99 -142 99c-99 0 -166 -73 -166 -170s67 -170 166 -170c70 0 127 40 142 100h208c-23 -172 -171 -296 -350 -296z" />
    <glyph glyph-name="D" unicode="D" horiz-adv-x="725" 
d="M360 700c193 0 340 -152 340 -350s-147 -350 -340 -350h-250h-60v700h210h100zM360 194c81 0 140 63 140 156s-59 156 -140 156h-100v-312h100z" />
    <glyph glyph-name="Eth" unicode="&#xd0;" horiz-adv-x="745" 
d="M380 700c193 0 340 -152 340 -350s-147 -350 -340 -350h-250h-60v258h-70v174h70v268h210h100zM380 194c81 0 140 63 140 156s-59 156 -140 156h-100v-74h120v-174h-120v-64h100z" />
    <glyph glyph-name="Dcaron" unicode="&#x10e;" horiz-adv-x="725" 
d="M231 740l-106 160h155l45 -58l45 58h155l-106 -160h-188zM360 700c193 0 340 -152 340 -350s-147 -350 -340 -350h-250h-60v700h210h100zM360 194c81 0 140 63 140 156s-59 156 -140 156h-100v-312h100z" />
    <glyph glyph-name="Dcroat" unicode="&#x110;" horiz-adv-x="745" 
d="M380 700c193 0 340 -152 340 -350s-147 -350 -340 -350h-250h-60v258h-70v174h70v268h210h100zM380 194c81 0 140 63 140 156s-59 156 -140 156h-100v-74h120v-174h-120v-64h100z" />
    <glyph glyph-name="E" unicode="E" horiz-adv-x="515" 
d="M250 184h240v-184h-380h-60v700h200h235v-184h-235v-78h210v-170h-210v-84z" />
    <glyph glyph-name="Eacute" unicode="&#xc9;" horiz-adv-x="515" 
d="M468 900l-116 -150h-174l80 150h210zM250 184h240v-184h-380h-60v700h200h235v-184h-235v-78h210v-170h-210v-84z" />
    <glyph glyph-name="Ecaron" unicode="&#x11a;" horiz-adv-x="515" 
d="M169 740l-106 160h155l45 -58l45 58h155l-106 -160h-188zM250 184h240v-184h-380h-60v700h200h235v-184h-235v-78h210v-170h-210v-84z" />
    <glyph glyph-name="Ecircumflex" unicode="&#xca;" horiz-adv-x="515" 
d="M263 798l-45 -58h-155l106 160h174h14l106 -160h-155zM250 184h240v-184h-380h-60v700h200h235v-184h-235v-78h210v-170h-210v-84z" />
    <glyph glyph-name="Edieresis" unicode="&#xcb;" horiz-adv-x="515" 
d="M243 895v-150h-150v150h150zM443 895v-150h-150v150h150zM250 184h240v-184h-380h-60v700h200h235v-184h-235v-78h210v-170h-210v-84z" />
    <glyph glyph-name="Edotaccent" unicode="&#x116;" horiz-adv-x="515" 
d="M353 905v-160h-170v160h170zM250 184h240v-184h-380h-60v700h200h235v-184h-235v-78h210v-170h-210v-84z" />
    <glyph glyph-name="Egrave" unicode="&#xc8;" horiz-adv-x="515" 
d="M358 750h-174l-116 150h210zM250 184h240v-184h-380h-60v700h200h235v-184h-235v-78h210v-170h-210v-84z" />
    <glyph glyph-name="Emacron" unicode="&#x112;" horiz-adv-x="515" 
d="M428 889v-140h-320v140h320zM250 184h240v-184h-380h-60v700h200h235v-184h-235v-78h210v-170h-210v-84z" />
    <glyph glyph-name="Eogonek" unicode="&#x118;" horiz-adv-x="515" 
d="M490 184v-184c-28 -29 -40 -54 -40 -71c0 -13 8 -19 21 -19c7 0 13 1 19 3v-110c-27 -11 -54 -17 -88 -17c-60 0 -110 28 -110 91c0 38 21 83 59 123h-241h-60v700h200h235v-184h-235v-78h210v-170h-210v-84h240z" />
    <glyph glyph-name="F" unicode="F" horiz-adv-x="495" 
d="M475 506h-225v-101h220v-194h-220v-211h-200v700h200h225v-194z" />
    <glyph glyph-name="G" unicode="G" horiz-adv-x="781" 
d="M401 388h340v-160v-228h-170v55c-46 -46 -112 -71 -200 -71c-202 0 -346 159 -346 366s154 366 366 366c173 0 314 -115 347 -262h-210c-25 39 -72 66 -135 66c-101 0 -168 -73 -168 -170c0 -107 67 -180 166 -180c65 0 107 21 131 58h-121v160z" />
    <glyph glyph-name="Gbreve" unicode="&#x11e;" horiz-adv-x="781" 
d="M391 742c-118 0 -185 57 -185 170h150c0 -26 11 -40 35 -40s35 14 35 40h150c0 -113 -67 -170 -185 -170zM401 388h340v-160v-228h-170v55c-46 -46 -112 -71 -200 -71c-202 0 -346 159 -346 366s154 366 366 366c173 0 314 -115 347 -262h-210c-25 39 -72 66 -135 66
c-101 0 -168 -73 -168 -170c0 -107 67 -180 166 -180c65 0 107 21 131 58h-121v160z" />
    <glyph glyph-name="Gcommaaccent" unicode="&#x122;" horiz-adv-x="781" 
d="M401 388h340v-160v-228h-170v55c-46 -46 -112 -71 -200 -71c-202 0 -346 159 -346 366s154 366 366 366c173 0 314 -115 347 -262h-210c-25 39 -72 66 -135 66c-101 0 -168 -73 -168 -170c0 -107 67 -180 166 -180c65 0 107 21 131 58h-121v160zM310 -284l10 230h170
l-40 -230h-140z" />
    <glyph glyph-name="Gdotaccent" unicode="&#x120;" horiz-adv-x="781" 
d="M476 915v-160h-170v160h170zM401 388h340v-160v-228h-170v55c-46 -46 -112 -71 -200 -71c-202 0 -346 159 -346 366s154 366 366 366c173 0 314 -115 347 -262h-210c-25 39 -72 66 -135 66c-101 0 -168 -73 -168 -170c0 -107 67 -180 166 -180c65 0 107 21 131 58h-121
v160z" />
    <glyph glyph-name="H" unicode="H" horiz-adv-x="650" 
d="M400 700h200v-700h-200v263h-150v-263h-200v700h200v-243h150v243z" />
    <glyph glyph-name="Hbar" unicode="&#x126;" horiz-adv-x="690" 
d="M680 603v-146h-60v-457h-200v183h-150v-183h-200v457h-60v146h60v97h200v-97h150v97h200v-97h60zM420 377v80h-150v-80h150z" />
    <glyph glyph-name="I" unicode="I" horiz-adv-x="300" 
d="M50 700h200v-700h-200v700z" />
    <glyph glyph-name="Iacute" unicode="&#xcd;" horiz-adv-x="300" 
d="M60 750h174l116 150h-210zM50 700h200v-700h-200v700z" />
    <glyph glyph-name="Icircumflex" unicode="&#xce;" horiz-adv-x="300" 
d="M145 798l-45 -58h-155l106 160h174h14l106 -160h-155zM50 0v700h200v-700h-200z" />
    <glyph glyph-name="Idieresis" unicode="&#xcf;" horiz-adv-x="300" 
d="M-25 745v150h150v-150h-150zM175 745v150h150v-150h-150zM50 700h200v-700h-200v700z" />
    <glyph glyph-name="Idotaccent" unicode="&#x130;" horiz-adv-x="300" 
d="M65 745v160h170v-160h-170zM50 700h200v-700h-200v700z" />
    <glyph glyph-name="Igrave" unicode="&#xcc;" horiz-adv-x="300" 
d="M240 750l-80 150h-210l116 -150h174zM50 700h200v-700h-200v700z" />
    <glyph glyph-name="Imacron" unicode="&#x12a;" horiz-adv-x="300" 
d="M-10 749v140h320v-140h-320zM50 700h200v-700h-200v700z" />
    <glyph glyph-name="Iogonek" unicode="&#x12e;" horiz-adv-x="300" 
d="M250 700v-700c-28 -29 -40 -54 -40 -71c0 -13 8 -19 21 -19c7 0 13 1 19 3v-110c-27 -11 -54 -17 -88 -17c-60 0 -110 28 -110 91c0 38 21 83 59 123h-61v700h200z" />
    <glyph glyph-name="J" unicode="J" horiz-adv-x="550" 
d="M260 -16c-157 0 -250 90 -250 241v25h200v-25c0 -30 19 -47 50 -47s50 17 50 47v475h200v-480c0 -148 -93 -236 -250 -236z" />
    <glyph glyph-name="K" unicode="K" horiz-adv-x="636" 
d="M646 0h-222l-174 300v-300h-200v700h200v-280l164 280h222l-208 -340z" />
    <glyph glyph-name="Kcommaaccent" unicode="&#x136;" horiz-adv-x="636" 
d="M428 360l218 -360h-222l-174 300v-300h-200v700h200v-280l164 280h222zM226 -284l10 230h170l-40 -230h-140z" />
    <glyph glyph-name="L" unicode="L" horiz-adv-x="470" 
d="M250 194h220v-194h-360h-60v700h200v-506z" />
    <glyph glyph-name="Lacute" unicode="&#x139;" horiz-adv-x="470" 
d="M352 900l-116 -150h-174l80 150h210zM250 194h220v-194h-360h-60v700h200v-506z" />
    <glyph glyph-name="Lcaron" unicode="&#x13d;" horiz-adv-x="470" 
d="M250 700v-506h220v-194h-360h-60v700h200zM480 700l-39 -210h-150l10 210h179z" />
    <glyph glyph-name="Lcommaaccent" unicode="&#x13b;" horiz-adv-x="470" 
d="M250 194h220v-194h-360h-60v700h200v-506zM154 -284l10 230h170l-40 -230h-140z" />
    <glyph glyph-name="Lslash" unicode="&#x141;" horiz-adv-x="490" 
d="M270 194h220v-194h-360h-60v191l-50 -28v193l50 28v316h200v-204l130 73v-193l-130 -73v-109z" />
    <glyph glyph-name="M" unicode="M" horiz-adv-x="860" 
d="M810 700v-700h-200v389l-105 -300h-150l-105 300v-389h-200v700h200h50l130 -366l130 366h250z" />
    <glyph glyph-name="N" unicode="N" 
d="M410 700h200v-700h-160l-200 330v-330h-200v700h160l200 -330v330z" />
    <glyph glyph-name="Nacute" unicode="&#x143;" 
d="M235 750h174l116 150h-210zM410 700h200v-700h-160l-200 330v-330h-200v700h160l200 -330v330z" />
    <glyph glyph-name="Ncaron" unicode="&#x147;" 
d="M226 740l-106 160h155l45 -58l45 58h155l-106 -160h-188zM410 700h200v-700h-160l-200 330v-330h-200v700h160l200 -330v330z" />
    <glyph glyph-name="Ncommaaccent" unicode="&#x145;" 
d="M410 700h200v-700h-160l-200 330v-330h-200v700h160l200 -330v330zM384 -284l40 230h-170l-10 -230h140z" />
    <glyph glyph-name="Eng" unicode="&#x14a;" 
d="M410 700h200v-700c0 -158 -79 -225 -250 -216v166c45 -4 65 12 65 50v41l-175 289v-330h-200v700h160l200 -330v330z" />
    <glyph glyph-name="Ntilde" unicode="&#xd1;" 
d="M146 743c0 167 103 186 183 153c31 -13 56 -36 56 14h120c0 -171 -103 -186 -184 -153c-30 13 -55 36 -55 -14h-120zM410 700h200v-700h-160l-200 330v-330h-200v700h160l200 -330v330z" />
    <glyph glyph-name="O" unicode="O" horiz-adv-x="792" 
d="M396 -16c-207 0 -371 159 -371 366s164 366 371 366s371 -159 371 -366s-164 -366 -371 -366zM396 180c99 0 171 73 171 170s-72 170 -171 170s-171 -73 -171 -170s72 -170 171 -170z" />
    <glyph glyph-name="Oacute" unicode="&#xd3;" horiz-adv-x="792" 
d="M306 760h174l116 150h-210zM396 -16c-207 0 -371 159 -371 366s164 366 371 366s371 -159 371 -366s-164 -366 -371 -366zM396 180c99 0 171 73 171 170s-72 170 -171 170s-171 -73 -171 -170s72 -170 171 -170z" />
    <glyph glyph-name="Ocircumflex" unicode="&#xd4;" horiz-adv-x="792" 
d="M391 808l-45 -58h-155l106 160h174h14l106 -160h-155zM396 716c207 0 371 -159 371 -366s-164 -366 -371 -366s-371 159 -371 366s164 366 371 366zM396 180c99 0 171 73 171 170s-72 170 -171 170s-171 -73 -171 -170s72 -170 171 -170z" />
    <glyph glyph-name="Odieresis" unicode="&#xd6;" horiz-adv-x="792" 
d="M221 755v150h150v-150h-150zM421 755v150h150v-150h-150zM396 -16c-207 0 -371 159 -371 366s164 366 371 366s371 -159 371 -366s-164 -366 -371 -366zM396 180c99 0 171 73 171 170s-72 170 -171 170s-171 -73 -171 -170s72 -170 171 -170z" />
    <glyph glyph-name="Ograve" unicode="&#xd2;" horiz-adv-x="792" 
d="M486 760l-80 150h-210l116 -150h174zM396 -16c-207 0 -371 159 -371 366s164 366 371 366s371 -159 371 -366s-164 -366 -371 -366zM396 180c99 0 171 73 171 170s-72 170 -171 170s-171 -73 -171 -170s72 -170 171 -170z" />
    <glyph glyph-name="Ohungarumlaut" unicode="&#x150;" horiz-adv-x="792" 
d="M196 750h168l86 160h-174zM399 750h168l96 160h-174zM396 -16c-207 0 -371 159 -371 366s164 366 371 366s371 -159 371 -366s-164 -366 -371 -366zM396 180c99 0 171 73 171 170s-72 170 -171 170s-171 -73 -171 -170s72 -170 171 -170z" />
    <glyph glyph-name="Omacron" unicode="&#x14c;" horiz-adv-x="792" 
d="M236 759v140h320v-140h-320zM396 -16c-207 0 -371 159 -371 366s164 366 371 366s371 -159 371 -366s-164 -366 -371 -366zM396 180c99 0 171 73 171 170s-72 170 -171 170s-171 -73 -171 -170s72 -170 171 -170z" />
    <glyph glyph-name="Oslash" unicode="&#xd8;" horiz-adv-x="797" 
d="M661 614c69 -66 111 -159 111 -264c0 -207 -164 -366 -371 -366c-77 0 -148 22 -207 61l-37 -45h-110l81 99c-61 65 -98 153 -98 251c0 207 164 366 371 366c70 0 136 -18 191 -51l29 35h110zM230 350c0 -35 10 -68 27 -94l207 253c-19 7 -40 11 -63 11
c-99 0 -171 -73 -171 -170zM401 180c99 0 171 73 171 170c0 43 -14 81 -38 110l-214 -261c24 -12 51 -19 81 -19z" />
    <glyph glyph-name="Otilde" unicode="&#xd5;" horiz-adv-x="792" 
d="M217 753c0 167 103 186 183 153c31 -13 56 -36 56 14h120c0 -171 -103 -186 -184 -153c-30 13 -55 36 -55 -14h-120zM396 -16c-207 0 -371 159 -371 366s164 366 371 366s371 -159 371 -366s-164 -366 -371 -366zM396 180c99 0 171 73 171 170s-72 170 -171 170
s-171 -73 -171 -170s72 -170 171 -170z" />
    <glyph glyph-name="OE" unicode="&#x152;" horiz-adv-x="950" 
d="M705 184h220v-184h-360h-60c-35 -11 -71 -16 -109 -16c-207 0 -371 159 -371 366s164 366 371 366c38 0 74 -5 109 -16h200h215v-184h-215v-78h190v-170h-190v-84zM505 201v298c-29 13 -67 21 -109 21c-99 0 -171 -73 -171 -170s72 -170 171 -170c42 0 80 8 109 21z" />
    <glyph glyph-name="P" unicode="P" horiz-adv-x="595" 
d="M330 700c141 0 255 -95 255 -251s-114 -251 -255 -251h-80v-198h-200v700h200h80zM330 392c30 0 55 21 55 57s-25 57 -55 57h-80v-114h80z" />
    <glyph glyph-name="Thorn" unicode="&#xde;" horiz-adv-x="595" 
d="M330 602c141 0 255 -95 255 -251s-114 -251 -255 -251h-80v-99h-200v700h200v-99h80zM330 294c30 0 55 21 55 57s-25 57 -55 57h-80v-114h80z" />
    <glyph glyph-name="Q" unicode="Q" horiz-adv-x="797" 
d="M767 350c0 -86 -28 -164 -77 -226l58 -67l-141 -115l-61 72c-46 -19 -97 -30 -150 -30c-207 0 -371 159 -371 366s164 366 371 366s371 -159 371 -366zM396 180h7l-57 67l142 115l67 -78c8 20 12 42 12 66c0 97 -72 170 -171 170s-171 -73 -171 -170s72 -170 171 -170z
" />
    <glyph glyph-name="R" unicode="R" horiz-adv-x="635" 
d="M434 1l-147 220h-37v-220h-200v700h200h70c151 0 265 -95 265 -246c0 -86 -43 -154 -110 -195l180 -259h-221zM320 517h-70v-122h70c40 -1 65 19 65 60s-25 62 -65 62z" />
    <glyph glyph-name="Racute" unicode="&#x154;" horiz-adv-x="635" 
d="M480 900l-116 -150h-174l80 150h210zM434 1l-147 220h-37v-220h-200v700h200h70c151 0 265 -95 265 -246c0 -86 -43 -154 -110 -195l180 -259h-221zM320 517h-70v-122h70c40 -1 65 19 65 60s-25 62 -65 62z" />
    <glyph glyph-name="Rcaron" unicode="&#x158;" horiz-adv-x="635" 
d="M181 740l-106 160h155l45 -58l45 58h155l-106 -160h-188zM434 1l-147 220h-37v-220h-200v700h200h70c151 0 265 -95 265 -246c0 -86 -43 -154 -110 -195l180 -259h-221zM320 517h-70v-122h70c40 -1 65 19 65 60s-25 62 -65 62z" />
    <glyph glyph-name="Rcommaaccent" unicode="&#x156;" horiz-adv-x="635" 
d="M475 260l180 -259h-221l-147 220h-37v-220h-200v700h200h70c151 0 265 -95 265 -246c0 -86 -43 -154 -110 -195zM320 517h-70v-122h70c40 -1 65 19 65 60s-25 62 -65 62zM254 -284l10 230h170l-40 -230h-140z" />
    <glyph glyph-name="S" unicode="S" horiz-adv-x="555" 
d="M284 -16c-154 0 -274 70 -274 244h200c0 -43 29 -58 76 -58c38 0 59 16 59 40c0 30 -49 42 -109 59c-95 29 -219 87 -219 227c0 145 110 220 252 220c141 0 258 -70 258 -234h-200c0 26 -15 48 -58 48c-34 0 -52 -14 -52 -35c0 -36 57 -47 124 -67
c93 -28 204 -88 204 -224c0 -145 -112 -220 -261 -220z" />
    <glyph glyph-name="Sacute" unicode="&#x15a;" horiz-adv-x="555" 
d="M181 760h174l116 150h-210zM284 -16c-154 0 -274 70 -274 244h200c0 -43 29 -58 76 -58c38 0 59 16 59 40c0 30 -49 42 -109 59c-95 29 -219 87 -219 227c0 145 110 220 252 220c141 0 258 -70 258 -234h-200c0 26 -15 48 -58 48c-34 0 -52 -14 -52 -35
c0 -36 57 -47 124 -67c93 -28 204 -88 204 -224c0 -145 -112 -220 -261 -220z" />
    <glyph glyph-name="Scaron" unicode="&#x160;" horiz-adv-x="555" 
d="M172 750l-106 160h155l45 -58l45 58h155l-106 -160h-188zM341 428c93 -28 204 -88 204 -224c0 -145 -112 -220 -261 -220c-154 0 -274 70 -274 244h200c0 -43 29 -58 76 -58c38 0 59 16 59 40c0 30 -49 42 -109 59c-95 29 -219 87 -219 227c0 145 110 220 252 220
c141 0 258 -70 258 -234h-200c0 26 -15 48 -58 48c-34 0 -52 -14 -52 -35c0 -36 57 -47 124 -67z" />
    <glyph glyph-name="Scedilla" unicode="&#x15e;" horiz-adv-x="555" 
d="M545 204c0 -117 -73 -188 -179 -212v-38c17 -7 53 -29 53 -77c0 -73 -77 -113 -245 -103v114c65 -5 95 1 95 14c0 12 -21 17 -53 20v67c-120 19 -206 92 -206 239h200c0 -43 29 -58 76 -58c38 0 59 16 59 40c0 30 -49 42 -109 59c-95 29 -219 87 -219 227
c0 145 110 220 252 220c141 0 258 -70 258 -234h-200c0 26 -15 48 -58 48c-34 0 -52 -14 -52 -35c0 -36 57 -47 124 -67c93 -28 204 -88 204 -224z" />
    <glyph glyph-name="Scommaaccent" unicode="&#x218;" horiz-adv-x="555" 
d="M284 -16c-154 0 -274 70 -274 244h200c0 -43 29 -58 76 -58c38 0 59 16 59 40c0 30 -49 42 -109 59c-95 29 -219 87 -219 227c0 145 110 220 252 220c141 0 258 -70 258 -234h-200c0 26 -15 48 -58 48c-34 0 -52 -14 -52 -35c0 -36 57 -47 124 -67
c93 -28 204 -88 204 -224c0 -145 -112 -220 -261 -220zM348 -284l40 230h-170l-10 -230h140z" />
    <glyph glyph-name="T" unicode="T" horiz-adv-x="500" 
d="M495 700v-194h-145v-506h-200v506h-145v194h345h145z" />
    <glyph glyph-name="Tbar" unicode="&#x166;" horiz-adv-x="500" 
d="M495 506h-145v-94h100v-174h-100v-238h-200v238h-100v174h100v94h-145v194h345h145v-194z" />
    <glyph glyph-name="Tcaron" unicode="&#x164;" horiz-adv-x="500" 
d="M151 740l-106 160h155l45 -58l45 58h155l-106 -160h-188zM495 700v-194h-145v-506h-200v506h-145v194h345h145z" />
    <glyph glyph-name="uni0162" unicode="&#x162;" horiz-adv-x="500" 
d="M495 700v-194h-145v-506h-200v506h-145v194h345h145zM152 -284l10 230h170l-40 -230h-140z" />
    <glyph glyph-name="uni021A" unicode="&#x21a;" horiz-adv-x="500" 
d="M495 700v-194h-145v-506h-200v506h-145v194h345h145zM152 -284l10 230h170l-40 -230h-140z" />
    <glyph glyph-name="U" unicode="U" horiz-adv-x="620" 
d="M310 -16c-154 0 -270 80 -270 230v486h200v-444c0 -53 25 -78 70 -78s70 25 70 78v444h200v-486c0 -150 -116 -230 -270 -230z" />
    <glyph glyph-name="Uacute" unicode="&#xda;" horiz-adv-x="620" 
d="M220 750h174l116 150h-210zM310 -16c-154 0 -270 80 -270 230v486h200v-444c0 -53 25 -78 70 -78s70 25 70 78v444h200v-486c0 -150 -116 -230 -270 -230z" />
    <glyph glyph-name="Ucircumflex" unicode="&#xdb;" horiz-adv-x="620" 
d="M305 798l-45 -58h-155l106 160h174h14l106 -160h-155zM380 700h200v-486c0 -150 -116 -230 -270 -230s-270 80 -270 230v486h200v-444c0 -53 25 -78 70 -78s70 25 70 78v444z" />
    <glyph glyph-name="Udieresis" unicode="&#xdc;" horiz-adv-x="620" 
d="M135 745v150h150v-150h-150zM335 745v150h150v-150h-150zM310 -16c-154 0 -270 80 -270 230v486h200v-444c0 -53 25 -78 70 -78s70 25 70 78v444h200v-486c0 -150 -116 -230 -270 -230z" />
    <glyph glyph-name="Ugrave" unicode="&#xd9;" horiz-adv-x="620" 
d="M400 750l-80 150h-210l116 -150h174zM310 -16c-154 0 -270 80 -270 230v486h200v-444c0 -53 25 -78 70 -78s70 25 70 78v444h200v-486c0 -150 -116 -230 -270 -230z" />
    <glyph glyph-name="Uhungarumlaut" unicode="&#x170;" horiz-adv-x="620" 
d="M110 740h168l86 160h-174zM313 740h168l96 160h-174zM310 -16c-154 0 -270 80 -270 230v486h200v-444c0 -53 25 -78 70 -78s70 25 70 78v444h200v-486c0 -150 -116 -230 -270 -230z" />
    <glyph glyph-name="Umacron" unicode="&#x16a;" horiz-adv-x="620" 
d="M150 749v140h320v-140h-320zM310 -16c-154 0 -270 80 -270 230v486h200v-444c0 -53 25 -78 70 -78s70 25 70 78v444h200v-486c0 -150 -116 -230 -270 -230z" />
    <glyph glyph-name="Uogonek" unicode="&#x172;" horiz-adv-x="620" 
d="M380 700h200v-486c0 -74 -28 -131 -75 -169c-64 -55 -85 -85 -85 -116c0 -13 8 -19 21 -19c7 0 13 1 19 3v-110c-27 -11 -54 -17 -88 -17c-60 0 -110 28 -110 91c0 33 16 71 45 107c-153 1 -267 81 -267 230v486h200v-444c0 -53 25 -78 70 -78s70 25 70 78v444z" />
    <glyph glyph-name="Uring" unicode="&#x16e;" horiz-adv-x="620" 
d="M310 730c-87 0 -149 60 -149 140s62 140 149 140c90 0 149 -60 149 -140s-59 -140 -149 -140zM310 840c21 0 32 13 32 30s-11 30 -32 30c-20 0 -31 -13 -31 -30s11 -30 31 -30zM310 -16c-154 0 -270 80 -270 230v486h200v-444c0 -53 25 -78 70 -78s70 25 70 78v444h200
v-486c0 -150 -116 -230 -270 -230z" />
    <glyph glyph-name="V" unicode="V" horiz-adv-x="640" 
d="M208 0l-218 700h215l115 -465l115 465h215l-218 -700h-224z" />
    <glyph glyph-name="W" unicode="W" horiz-adv-x="900" 
d="M702 700h208l-198 -700h-187l-75 272l-75 -272h-187l-198 700h208l101 -397l72 254l-39 143h188l91 -370z" />
    <glyph glyph-name="Wacute" unicode="&#x1e82;" horiz-adv-x="900" 
d="M650 900l-116 -150h-174l80 150h210zM702 700h208l-198 -700h-187l-75 272l-75 -272h-187l-198 700h208l101 -397l72 254l-39 143h188l91 -370z" />
    <glyph glyph-name="Wcircumflex" unicode="&#x174;" horiz-adv-x="900" 
d="M445 798l-45 -58h-155l106 160h174h14l106 -160h-155zM702 700h208l-198 -700h-187l-75 272l-75 -272h-187l-198 700h208l101 -397l72 254l-39 143h188l91 -370z" />
    <glyph glyph-name="Wdieresis" unicode="&#x1e84;" horiz-adv-x="900" 
d="M425 895v-150h-150v150h150zM625 895v-150h-150v150h150zM702 700h208l-198 -700h-187l-75 272l-75 -272h-187l-198 700h208l101 -397l72 254l-39 143h188l91 -370z" />
    <glyph glyph-name="Wgrave" unicode="&#x1e80;" horiz-adv-x="900" 
d="M540 750h-174l-116 150h210zM702 700h208l-198 -700h-187l-75 272l-75 -272h-187l-198 700h208l101 -397l72 254l-39 143h188l91 -370z" />
    <glyph glyph-name="X" unicode="X" horiz-adv-x="635" 
d="M635 0h-222l-95 164l-96 -164h-222l207 354l-202 346h222l91 -155l90 155h222l-201 -346z" />
    <glyph glyph-name="Y" unicode="Y" horiz-adv-x="654" 
d="M654 700l-227 -398v-302h-200v302l-227 398h222l105 -212l105 212h222z" />
    <glyph glyph-name="Yacute" unicode="&#xdd;" horiz-adv-x="654" 
d="M527 900l-116 -150h-174l80 150h210zM654 700l-227 -398v-302h-200v302l-227 398h222l105 -212l105 212h222z" />
    <glyph glyph-name="Ycircumflex" unicode="&#x176;" horiz-adv-x="654" 
d="M322 798l-45 -58h-155l106 160h174h14l106 -160h-155zM654 700l-227 -398v-302h-200v302l-227 398h222l105 -212l105 212h222z" />
    <glyph glyph-name="Ydieresis" unicode="&#x178;" horiz-adv-x="654" 
d="M302 895v-150h-150v150h150zM502 895v-150h-150v150h150zM654 700l-227 -398v-302h-200v302l-227 398h222l105 -212l105 212h222z" />
    <glyph glyph-name="Ygrave" unicode="&#x1ef2;" horiz-adv-x="654" 
d="M417 750h-174l-116 150h210zM654 700l-227 -398v-302h-200v302l-227 398h222l105 -212l105 212h222z" />
    <glyph glyph-name="Z" unicode="Z" horiz-adv-x="545" 
d="M292 194h233v-194h-495v154l223 352h-218v194h480v-154z" />
    <glyph glyph-name="Zacute" unicode="&#x179;" horiz-adv-x="545" 
d="M481 900l-116 -150h-174l80 150h210zM292 194h233v-194h-495v154l223 352h-218v194h480v-154z" />
    <glyph glyph-name="Zcaron" unicode="&#x17d;" horiz-adv-x="545" 
d="M182 740l-106 160h155l45 -58l45 58h155l-106 -160h-188zM292 194h233v-194h-495v154l223 352h-218v194h480v-154z" />
    <glyph glyph-name="Zdotaccent" unicode="&#x17b;" horiz-adv-x="545" 
d="M366 905v-160h-170v160h170zM292 194h233v-194h-495v154l223 352h-218v194h480v-154z" />
    <glyph glyph-name="a" unicode="a" horiz-adv-x="515" 
d="M262 514c110 0 218 -64 218 -199v-315h-176v29c-27 -26 -58 -43 -113 -43c-98 0 -171 52 -171 156s77 156 175 156c51 0 83 -13 109 -29v46c0 22 -10 40 -42 40s-42 -18 -42 -35h-176c0 130 108 194 218 194zM254 100c29 0 50 17 50 42c0 27 -21 42 -50 42
c-31 0 -49 -17 -49 -42s18 -42 49 -42z" />
    <glyph glyph-name="aacute" unicode="&#xe1;" horiz-adv-x="515" 
d="M462 710l-116 -150h-174l80 150h210zM262 514c110 0 218 -64 218 -199v-315h-176v29c-27 -26 -58 -43 -113 -43c-98 0 -171 52 -171 156s77 156 175 156c51 0 83 -13 109 -29v46c0 22 -10 40 -42 40s-42 -18 -42 -35h-176c0 130 108 194 218 194zM254 100
c29 0 50 17 50 42c0 27 -21 42 -50 42c-31 0 -49 -17 -49 -42s18 -42 49 -42z" />
    <glyph glyph-name="abreve" unicode="&#x103;" horiz-adv-x="515" 
d="M262 542c-118 0 -185 57 -185 170h150c0 -26 11 -40 35 -40s35 14 35 40h150c0 -113 -67 -170 -185 -170zM262 514c110 0 218 -64 218 -199v-315h-176v29c-27 -26 -58 -43 -113 -43c-98 0 -171 52 -171 156s77 156 175 156c51 0 83 -13 109 -29v46c0 22 -10 40 -42 40
s-42 -18 -42 -35h-176c0 130 108 194 218 194zM254 100c29 0 50 17 50 42c0 27 -21 42 -50 42c-31 0 -49 -17 -49 -42s18 -42 49 -42z" />
    <glyph glyph-name="acircumflex" unicode="&#xe2;" horiz-adv-x="515" 
d="M257 608l-45 -58h-155l106 160h174h14l106 -160h-155zM262 514c110 0 218 -64 218 -199v-315h-176v29c-27 -26 -58 -43 -113 -43c-98 0 -171 52 -171 156s77 156 175 156c51 0 83 -13 109 -29v46c0 22 -10 40 -42 40s-42 -18 -42 -35h-176c0 130 108 194 218 194z
M254 100c29 0 50 17 50 42c0 27 -21 42 -50 42c-31 0 -49 -17 -49 -42s18 -42 49 -42z" />
    <glyph glyph-name="adieresis" unicode="&#xe4;" horiz-adv-x="515" 
d="M237 705v-150h-150v150h150zM437 705v-150h-150v150h150zM262 514c110 0 218 -64 218 -199v-315h-176v29c-27 -26 -58 -43 -113 -43c-98 0 -171 52 -171 156s77 156 175 156c51 0 83 -13 109 -29v46c0 22 -10 40 -42 40s-42 -18 -42 -35h-176c0 130 108 194 218 194z
M254 100c29 0 50 17 50 42c0 27 -21 42 -50 42c-31 0 -49 -17 -49 -42s18 -42 49 -42z" />
    <glyph glyph-name="agrave" unicode="&#xe0;" horiz-adv-x="515" 
d="M352 560h-174l-116 150h210zM262 514c110 0 218 -64 218 -199v-315h-176v29c-27 -26 -58 -43 -113 -43c-98 0 -171 52 -171 156s77 156 175 156c51 0 83 -13 109 -29v46c0 22 -10 40 -42 40s-42 -18 -42 -35h-176c0 130 108 194 218 194zM254 100c29 0 50 17 50 42
c0 27 -21 42 -50 42c-31 0 -49 -17 -49 -42s18 -42 49 -42z" />
    <glyph glyph-name="amacron" unicode="&#x101;" horiz-adv-x="515" 
d="M422 699v-140h-320v140h320zM262 514c110 0 218 -64 218 -199v-315h-176v29c-27 -26 -58 -43 -113 -43c-98 0 -171 52 -171 156s77 156 175 156c51 0 83 -13 109 -29v46c0 22 -10 40 -42 40s-42 -18 -42 -35h-176c0 130 108 194 218 194zM254 100c29 0 50 17 50 42
c0 27 -21 42 -50 42c-31 0 -49 -17 -49 -42s18 -42 49 -42z" />
    <glyph glyph-name="aogonek" unicode="&#x105;" horiz-adv-x="515" 
d="M480 315v-315c-28 -29 -40 -54 -40 -71c0 -13 8 -19 21 -19c7 0 13 1 19 3v-110c-27 -11 -54 -17 -88 -17c-60 0 -110 28 -110 91c0 38 21 83 59 123h-37v29c-27 -26 -58 -43 -113 -43c-98 0 -171 52 -171 156s77 156 175 156c51 0 83 -13 109 -29v46c0 22 -10 40 -42 40
s-42 -18 -42 -35h-176c0 130 108 194 218 194s218 -64 218 -199zM254 100c29 0 50 17 50 42c0 27 -21 42 -50 42c-31 0 -49 -17 -49 -42s18 -42 49 -42z" />
    <glyph glyph-name="aring" unicode="&#xe5;" horiz-adv-x="515" 
d="M262 540c-87 0 -149 60 -149 140s62 140 149 140c90 0 149 -60 149 -140s-59 -140 -149 -140zM262 710c-20 0 -31 -13 -31 -30s11 -30 31 -30c21 0 32 13 32 30s-11 30 -32 30zM262 514c110 0 218 -64 218 -199v-315h-176v29c-27 -26 -58 -43 -113 -43
c-98 0 -171 52 -171 156s77 156 175 156c51 0 83 -13 109 -29v46c0 22 -10 40 -42 40s-42 -18 -42 -35h-176c0 130 108 194 218 194zM254 100c29 0 50 17 50 42c0 27 -21 42 -50 42c-31 0 -49 -17 -49 -42s18 -42 49 -42z" />
    <glyph glyph-name="atilde" unicode="&#xe3;" horiz-adv-x="515" 
d="M258 567c-30 13 -55 36 -55 -14h-120c0 167 103 186 183 153c31 -13 56 -36 56 14h120c0 -171 -103 -186 -184 -153zM262 514c110 0 218 -64 218 -199v-315h-176v29c-27 -26 -58 -43 -113 -43c-98 0 -171 52 -171 156s77 156 175 156c51 0 83 -13 109 -29v46
c0 22 -10 40 -42 40s-42 -18 -42 -35h-176c0 130 108 194 218 194zM254 100c29 0 50 17 50 42c0 27 -21 42 -50 42c-31 0 -49 -17 -49 -42s18 -42 49 -42z" />
    <glyph glyph-name="ae" unicode="&#xe6;" horiz-adv-x="823" 
d="M488 187c16 -49 49 -65 84 -65c27 0 42 11 49 25h167c-33 -116 -116 -161 -204 -161c-73 0 -131 27 -172 72c-36 -45 -98 -72 -186 -72c-123 0 -206 52 -206 156c0 106 77 156 175 156c51 0 83 -13 109 -29v46c0 22 -10 40 -42 40s-42 -18 -42 -35h-176
c0 130 98 194 198 194c67 0 129 -24 168 -73c40 46 97 73 168 73c131 0 227 -113 227 -262c0 -21 -2 -41 -8 -65h-309zM486 306h148c-11 45 -39 60 -69 60c-40 0 -67 -18 -79 -60zM254 100c29 0 50 17 50 42c0 27 -21 42 -50 42c-31 0 -49 -17 -49 -42s18 -42 49 -42z" />
    <glyph glyph-name="b" unicode="b" horiz-adv-x="606" 
d="M349 514c136 0 239 -113 239 -264s-103 -264 -239 -264c-53 0 -94 15 -124 41v-27h-185v700h185v-227c30 26 71 41 124 41zM314 160c54 0 89 37 89 90s-35 90 -89 90s-89 -37 -89 -90s35 -90 89 -90z" />
    <glyph glyph-name="c" unicode="c" horiz-adv-x="554" 
d="M544 210c-14 -130 -124 -224 -259 -224c-153 0 -267 114 -267 264s114 264 267 264c134 0 245 -94 259 -224h-191c-8 28 -35 46 -68 46c-47 0 -82 -36 -82 -86s35 -86 82 -86c33 0 61 18 69 46h190z" />
    <glyph glyph-name="cacute" unicode="&#x107;" horiz-adv-x="554" 
d="M194 560h174l116 150h-210zM544 210c-14 -130 -124 -224 -259 -224c-153 0 -267 114 -267 264s114 264 267 264c134 0 245 -94 259 -224h-191c-8 28 -35 46 -68 46c-47 0 -82 -36 -82 -86s35 -86 82 -86c33 0 61 18 69 46h190z" />
    <glyph glyph-name="ccaron" unicode="&#x10d;" horiz-adv-x="554" 
d="M185 550l-106 160h155l45 -58l45 58h155l-106 -160h-188zM285 164c33 0 61 18 69 46h190c-14 -130 -124 -224 -259 -224c-153 0 -267 114 -267 264s114 264 267 264c134 0 245 -94 259 -224h-191c-8 28 -35 46 -68 46c-47 0 -82 -36 -82 -86s35 -86 82 -86z" />
    <glyph glyph-name="ccedilla" unicode="&#xe7;" horiz-adv-x="554" 
d="M285 164c33 0 61 18 69 46h190c-11 -103 -83 -184 -180 -213v-43c17 -7 53 -29 53 -77c0 -73 -77 -113 -245 -103v114c65 -5 95 1 95 14c0 12 -21 17 -53 20v73c-116 29 -196 129 -196 255c0 150 114 264 267 264c134 0 245 -94 259 -224h-191c-8 28 -35 46 -68 46
c-47 0 -82 -36 -82 -86s35 -86 82 -86z" />
    <glyph glyph-name="cdotaccent" unicode="&#x10b;" horiz-adv-x="554" 
d="M199 555v160h170v-160h-170zM544 210c-14 -130 -124 -224 -259 -224c-153 0 -267 114 -267 264s114 264 267 264c134 0 245 -94 259 -224h-191c-8 28 -35 46 -68 46c-47 0 -82 -36 -82 -86s35 -86 82 -86c33 0 61 18 69 46h190z" />
    <glyph glyph-name="d" unicode="d" horiz-adv-x="606" 
d="M381 700h185v-700h-185v27c-30 -26 -71 -41 -124 -41c-136 0 -239 113 -239 264s103 264 239 264c53 0 94 -15 124 -41v227zM292 160c54 0 89 37 89 90s-35 90 -89 90s-89 -37 -89 -90s35 -90 89 -90z" />
    <glyph glyph-name="eth" unicode="&#xf0;" horiz-adv-x="562" 
d="M498 370c27 -37 46 -85 46 -140c0 -153 -129 -246 -263 -246c-144 0 -263 93 -263 246c0 110 83 207 193 229l-25 36l-121 -38v140l39 12l-64 91h212l27 -36l143 45v-140l-59 -18zM281 149c46 0 78 27 78 77c0 17 -7 34 -14 44c-15 18 -35 29 -64 29
c-46 0 -78 -27 -78 -73c0 -50 32 -77 78 -77z" />
    <glyph glyph-name="dcaron" unicode="&#x10f;" horiz-adv-x="766" 
d="M381 473v227h185v-700h-185v27c-30 -26 -71 -41 -124 -41c-136 0 -239 113 -239 264s103 264 239 264c53 0 94 -15 124 -41zM616 700h170l-40 -230h-140zM292 160c54 0 89 37 89 90s-35 90 -89 90s-89 -37 -89 -90s35 -90 89 -90z" />
    <glyph glyph-name="dcroat" unicode="&#x111;" horiz-adv-x="621" 
d="M621 650v-119h-55v-531h-185v26c-30 -25 -71 -40 -124 -40c-136 0 -239 113 -239 254s103 254 239 254c53 0 94 -15 124 -40v77h-130v119h130v50h185v-50h55zM292 155c54 0 89 37 89 85s-35 85 -89 85s-89 -37 -89 -85s35 -85 89 -85z" />
    <glyph glyph-name="e" unicode="e" horiz-adv-x="556" 
d="M203 187c18 -49 57 -65 92 -65c27 0 52 11 59 25h167c-33 -116 -131 -161 -239 -161c-160 0 -264 115 -264 264s108 264 268 264c146 0 252 -113 252 -262c0 -21 -2 -41 -8 -65h-327zM201 306h165c-11 45 -41 60 -78 60c-40 0 -73 -18 -87 -60z" />
    <glyph glyph-name="eacute" unicode="&#xe9;" horiz-adv-x="556" 
d="M483 710l-116 -150h-174l80 150h210zM203 187c18 -49 57 -65 92 -65c27 0 52 11 59 25h167c-33 -116 -131 -161 -239 -161c-160 0 -264 115 -264 264s108 264 268 264c146 0 252 -113 252 -262c0 -21 -2 -41 -8 -65h-327zM201 306h165c-11 45 -41 60 -78 60
c-40 0 -73 -18 -87 -60z" />
    <glyph glyph-name="ecaron" unicode="&#x11b;" horiz-adv-x="556" 
d="M184 550l-106 160h155l45 -58l45 58h155l-106 -160h-188zM203 187c18 -49 57 -65 92 -65c27 0 52 11 59 25h167c-33 -116 -131 -161 -239 -161c-160 0 -264 115 -264 264s108 264 268 264c146 0 252 -113 252 -262c0 -21 -2 -41 -8 -65h-327zM201 306h165
c-11 45 -41 60 -78 60c-40 0 -73 -18 -87 -60z" />
    <glyph glyph-name="ecircumflex" unicode="&#xea;" horiz-adv-x="556" 
d="M278 608l-45 -58h-155l106 160h174h14l106 -160h-155zM203 187c18 -49 57 -65 92 -65c27 0 52 11 59 25h167c-33 -116 -131 -161 -239 -161c-160 0 -264 115 -264 264s108 264 268 264c146 0 252 -113 252 -262c0 -21 -2 -41 -8 -65h-327zM201 306h165
c-11 45 -41 60 -78 60c-40 0 -73 -18 -87 -60z" />
    <glyph glyph-name="edieresis" unicode="&#xeb;" horiz-adv-x="556" 
d="M258 705v-150h-150v150h150zM458 705v-150h-150v150h150zM203 187c18 -49 57 -65 92 -65c27 0 52 11 59 25h167c-33 -116 -131 -161 -239 -161c-160 0 -264 115 -264 264s108 264 268 264c146 0 252 -113 252 -262c0 -21 -2 -41 -8 -65h-327zM201 306h165
c-11 45 -41 60 -78 60c-40 0 -73 -18 -87 -60z" />
    <glyph glyph-name="edotaccent" unicode="&#x117;" horiz-adv-x="556" 
d="M368 715v-160h-170v160h170zM203 187c18 -49 57 -65 92 -65c27 0 52 11 59 25h167c-33 -116 -131 -161 -239 -161c-160 0 -264 115 -264 264s108 264 268 264c146 0 252 -113 252 -262c0 -21 -2 -41 -8 -65h-327zM201 306h165c-11 45 -41 60 -78 60
c-40 0 -73 -18 -87 -60z" />
    <glyph glyph-name="egrave" unicode="&#xe8;" horiz-adv-x="556" 
d="M373 560h-174l-116 150h210zM203 187c18 -49 57 -65 92 -65c27 0 52 11 59 25h167c-33 -116 -131 -161 -239 -161c-160 0 -264 115 -264 264s108 264 268 264c146 0 252 -113 252 -262c0 -21 -2 -41 -8 -65h-327zM201 306h165c-11 45 -41 60 -78 60
c-40 0 -73 -18 -87 -60z" />
    <glyph glyph-name="emacron" unicode="&#x113;" horiz-adv-x="556" 
d="M443 699v-140h-320v140h320zM203 187c18 -49 57 -65 92 -65c27 0 52 11 59 25h167c-33 -116 -131 -161 -239 -161c-160 0 -264 115 -264 264s108 264 268 264c146 0 252 -113 252 -262c0 -21 -2 -41 -8 -65h-327zM201 306h165c-11 45 -41 60 -78 60
c-40 0 -73 -18 -87 -60z" />
    <glyph glyph-name="eogonek" unicode="&#x119;" horiz-adv-x="556" 
d="M203 187c18 -49 57 -65 92 -65c27 0 52 11 59 25h167c-10 -33 -24 -61 -43 -83c-67 -96 -78 -119 -78 -135c0 -13 8 -19 21 -19c7 0 13 1 19 3v-110c-27 -11 -54 -17 -88 -17c-60 0 -110 28 -110 91c0 34 25 74 72 110c-11 -1 -21 -1 -32 -1c-160 0 -264 115 -264 264
s108 264 268 264c146 0 252 -113 252 -262c0 -21 -2 -41 -8 -65h-327zM201 306h165c-11 45 -41 60 -78 60c-40 0 -73 -18 -87 -60z" />
    <glyph glyph-name="f" unicode="f" horiz-adv-x="320" 
d="M320 550c-50 4 -77 -18 -77 -50h77v-176h-77v-324h-185v324h-58v176h58c0 140 87 226 262 216v-166z" />
    <glyph glyph-name="g" unicode="g" horiz-adv-x="613" 
d="M388 500h185v-485c0 -166 -133 -231 -262 -231s-262 54 -262 210h185c0 -37 37 -50 77 -50s77 19 77 71v31c-30 -25 -71 -40 -124 -40c-136 0 -239 113 -239 254s103 254 239 254c53 0 94 -15 124 -40v26zM299 174c54 0 89 37 89 86s-35 86 -89 86s-89 -37 -89 -86
s35 -86 89 -86z" />
    <glyph glyph-name="gbreve" unicode="&#x11f;" horiz-adv-x="613" 
d="M314 542c-118 0 -185 57 -185 170h150c0 -26 11 -40 35 -40s35 14 35 40h150c0 -113 -67 -170 -185 -170zM388 500h185v-485c0 -166 -133 -231 -262 -231s-262 54 -262 210h185c0 -37 37 -50 77 -50s77 19 77 71v31c-30 -25 -71 -40 -124 -40c-136 0 -239 113 -239 254
s103 254 239 254c53 0 94 -15 124 -40v26zM299 174c54 0 89 37 89 86s-35 86 -89 86s-89 -37 -89 -86s35 -86 89 -86z" />
    <glyph glyph-name="gcommaaccent" unicode="&#x123;" horiz-adv-x="613" 
d="M391 800l-10 -230h-170l40 230h140zM388 500h185v-485c0 -166 -133 -231 -262 -231s-262 54 -262 210h185c0 -37 37 -50 77 -50s77 19 77 71v31c-30 -25 -71 -40 -124 -40c-136 0 -239 113 -239 254s103 254 239 254c53 0 94 -15 124 -40v26zM299 174c54 0 89 37 89 86
s-35 86 -89 86s-89 -37 -89 -86s35 -86 89 -86z" />
    <glyph glyph-name="gdotaccent" unicode="&#x121;" horiz-adv-x="613" 
d="M399 715v-160h-170v160h170zM388 500h185v-485c0 -166 -133 -231 -262 -231s-262 54 -262 210h185c0 -37 37 -50 77 -50s77 19 77 71v31c-30 -25 -71 -40 -124 -40c-136 0 -239 113 -239 254s103 254 239 254c53 0 94 -15 124 -40v26zM299 174c54 0 89 37 89 86
s-35 86 -89 86s-89 -37 -89 -86s35 -86 89 -86z" />
    <glyph glyph-name="h" unicode="h" horiz-adv-x="535" 
d="M340 514c93 0 160 -70 160 -195v-319h-185v294c0 25 -14 42 -42 42c-35 0 -48 -25 -48 -54v-282h-185v700h185v-237c26 31 65 51 115 51z" />
    <glyph glyph-name="hbar" unicode="&#x127;" horiz-adv-x="550" 
d="M355 489c93 0 160 -70 160 -195v-294h-185v269c0 25 -14 42 -42 42c-35 0 -48 -25 -48 -54v-257h-185v531h-55v119h55v50h185v-50h130v-119h-130v-93c26 31 65 51 115 51z" />
    <glyph glyph-name="i" unicode="i" horiz-adv-x="265" 
d="M40 550v150h185v-150h-185zM40 0v500h185v-500h-185z" />
    <glyph glyph-name="dotlessi" unicode="&#x131;" horiz-adv-x="265" 
d="M40 0v500h185v-500h-185z" />
    <glyph glyph-name="iacute" unicode="&#xed;" horiz-adv-x="265" 
d="M40 550h174l76 150h-210zM40 0v500h185v-500h-185z" />
    <glyph glyph-name="icircumflex" unicode="&#xee;" horiz-adv-x="265" 
d="M132 593l-35 -53h-145l86 160h164h24l86 -160h-145zM40 0v500h185v-500h-185z" />
    <glyph glyph-name="idieresis" unicode="&#xef;" horiz-adv-x="265" 
d="M-28 550v140h140v-140h-140zM152 550v140h140v-140h-140zM40 0v500h185v-500h-185z" />
    <glyph glyph-name="i.loclTRK" horiz-adv-x="265" 
d="M46 545v160h170v-160h-170zM40 0v500h185v-500h-185z" />
    <glyph glyph-name="igrave" unicode="&#xec;" horiz-adv-x="265" 
d="M220 550l-40 150h-210l76 -150h174zM225 0h-185v500h185v-500z" />
    <glyph glyph-name="imacron" unicode="&#x12b;" horiz-adv-x="265" 
d="M-7 549v140h280v-140h-280zM40 0v500h185v-500h-185z" />
    <glyph glyph-name="iogonek" unicode="&#x12f;" horiz-adv-x="265" 
d="M225 700v-150h-185v150h185zM214 -90c7 0 13 1 19 3v-110c-27 -11 -54 -17 -88 -17c-60 0 -110 28 -110 91c0 38 13 83 41 123h-36v500h185v-500c-23 -29 -32 -54 -32 -71c0 -13 8 -19 21 -19z" />
    <glyph glyph-name="j" unicode="j" horiz-adv-x="280" 
d="M55 700h185v-150h-185v150zM55 0v500h185v-500c0 -158 -79 -225 -250 -216v166c45 -4 65 12 65 50z" />
    <glyph glyph-name="k" unicode="k" horiz-adv-x="550" 
d="M550 0h-205l-120 200v-200h-185v700h185v-396l110 196h205l-152 -250z" />
    <glyph glyph-name="kcommaaccent" unicode="&#x137;" horiz-adv-x="550" 
d="M225 200v-200h-185v700h185v-396l110 196h205l-152 -250l162 -250h-205zM194 -284l10 230h170l-40 -230h-140z" />
    <glyph glyph-name="l" unicode="l" horiz-adv-x="265" 
d="M40 0v720h185v-720h-185z" />
    <glyph glyph-name="lacute" unicode="&#x13a;" horiz-adv-x="265" 
d="M40 750h174l116 150h-210zM40 0v720h185v-720h-185z" />
    <glyph glyph-name="lcaron" unicode="&#x13e;" horiz-adv-x="421" 
d="M40 0v720h185v-720h-185zM401 490l40 230h-170l-10 -230h140z" />
    <glyph glyph-name="lcommaaccent" unicode="&#x13c;" horiz-adv-x="265" 
d="M40 0v720h185v-720h-185zM175 -284l40 230h-170l-10 -230h140z" />
    <glyph glyph-name="lslash" unicode="&#x142;" horiz-adv-x="290" 
d="M290 515v-173l-52 -31v-311h-185v202l-53 -31v173l53 31v345h185v-236z" />
    <glyph glyph-name="m" unicode="m" horiz-adv-x="770" 
d="M575 514c98 0 160 -65 160 -190v-324h-185v299c0 25 -14 37 -32 37c-30 0 -38 -25 -38 -54v-282h-185v299c0 25 -14 37 -32 37c-30 0 -38 -25 -38 -54v-282h-185v500h185v-39c27 32 67 53 115 53c49 0 86 -20 110 -59c32 35 74 59 125 59z" />
    <glyph glyph-name="n" unicode="n" horiz-adv-x="535" 
d="M340 514c93 0 160 -70 160 -195v-319h-185v294c0 25 -14 42 -42 42c-35 0 -48 -25 -48 -54v-282h-185v500h185v-37c26 31 65 51 115 51z" />
    <glyph glyph-name="nacute" unicode="&#x144;" horiz-adv-x="535" 
d="M475 710l-116 -150h-174l80 150h210zM340 514c93 0 160 -70 160 -195v-319h-185v294c0 25 -14 42 -42 42c-35 0 -48 -25 -48 -54v-282h-185v500h185v-37c26 31 65 51 115 51z" />
    <glyph glyph-name="ncaron" unicode="&#x148;" horiz-adv-x="535" 
d="M176 550l-106 160h155l45 -58l45 58h155l-106 -160h-188zM340 514c93 0 160 -70 160 -195v-319h-185v294c0 25 -14 42 -42 42c-35 0 -48 -25 -48 -54v-282h-185v500h185v-37c26 31 65 51 115 51z" />
    <glyph glyph-name="ncommaaccent" unicode="&#x146;" horiz-adv-x="535" 
d="M340 514c93 0 160 -70 160 -195v-319h-185v294c0 25 -14 42 -42 42c-35 0 -48 -25 -48 -54v-282h-185v500h185v-37c26 31 65 51 115 51zM192 -284l10 230h170l-40 -230h-140z" />
    <glyph glyph-name="eng" unicode="&#x14b;" horiz-adv-x="535" 
d="M340 514c93 0 160 -70 160 -195v-319c0 -152 -72 -215 -230 -203v157c28 -1 45 10 45 46v294c0 25 -14 42 -42 42c-35 0 -48 -25 -48 -54v-282h-185v500h185v-37c26 31 65 51 115 51z" />
    <glyph glyph-name="ntilde" unicode="&#xf1;" horiz-adv-x="535" 
d="M271 567c-30 13 -55 36 -55 -14h-120c0 167 103 186 183 153c31 -13 56 -36 56 14h120c0 -171 -103 -186 -184 -153zM340 514c93 0 160 -70 160 -195v-319h-185v294c0 25 -14 42 -42 42c-35 0 -48 -25 -48 -54v-282h-185v500h185v-37c26 31 65 51 115 51z" />
    <glyph glyph-name="o" unicode="o" horiz-adv-x="574" 
d="M287 -14c-148 0 -269 114 -269 264s119 264 269 264s269 -114 269 -264s-119 -264 -269 -264zM287 162c49 0 84 36 84 88s-35 88 -84 88s-84 -36 -84 -88s35 -88 84 -88z" />
    <glyph glyph-name="oacute" unicode="&#xf3;" horiz-adv-x="574" 
d="M197 560h174l116 150h-210zM287 -14c-148 0 -269 114 -269 264s119 264 269 264s269 -114 269 -264s-119 -264 -269 -264zM287 162c49 0 84 36 84 88s-35 88 -84 88s-84 -36 -84 -88s35 -88 84 -88z" />
    <glyph glyph-name="ocircumflex" unicode="&#xf4;" horiz-adv-x="574" 
d="M282 608l-45 -58h-155l106 160h174h14l106 -160h-155zM287 514c150 0 269 -114 269 -264s-119 -264 -269 -264c-148 0 -269 114 -269 264s119 264 269 264zM287 162c49 0 84 36 84 88s-35 88 -84 88s-84 -36 -84 -88s35 -88 84 -88z" />
    <glyph glyph-name="odieresis" unicode="&#xf6;" horiz-adv-x="574" 
d="M112 555v150h150v-150h-150zM312 555v150h150v-150h-150zM287 -14c-148 0 -269 114 -269 264s119 264 269 264s269 -114 269 -264s-119 -264 -269 -264zM287 162c49 0 84 36 84 88s-35 88 -84 88s-84 -36 -84 -88s35 -88 84 -88z" />
    <glyph glyph-name="ograve" unicode="&#xf2;" horiz-adv-x="574" 
d="M377 560l-80 150h-210l116 -150h174zM287 -14c-148 0 -269 114 -269 264s119 264 269 264s269 -114 269 -264s-119 -264 -269 -264zM287 162c49 0 84 36 84 88s-35 88 -84 88s-84 -36 -84 -88s35 -88 84 -88z" />
    <glyph glyph-name="ohungarumlaut" unicode="&#x151;" horiz-adv-x="574" 
d="M87 550h168l86 160h-174zM290 550h168l96 160h-174zM287 -14c-148 0 -269 114 -269 264s119 264 269 264s269 -114 269 -264s-119 -264 -269 -264zM287 162c49 0 84 36 84 88s-35 88 -84 88s-84 -36 -84 -88s35 -88 84 -88z" />
    <glyph glyph-name="omacron" unicode="&#x14d;" horiz-adv-x="574" 
d="M127 559v140h320v-140h-320zM287 -14c-148 0 -269 114 -269 264s119 264 269 264s269 -114 269 -264s-119 -264 -269 -264zM287 162c49 0 84 36 84 88s-35 88 -84 88s-84 -36 -84 -88s35 -88 84 -88z" />
    <glyph glyph-name="oslash" unicode="&#xf8;" horiz-adv-x="574" 
d="M472 443c52 -47 84 -115 84 -193c0 -150 -119 -264 -269 -264c-53 0 -102 14 -144 40l-20 -26h-70l47 59c-51 48 -82 115 -82 191c0 150 119 264 269 264c52 0 100 -14 141 -38l19 24h70zM203 250c0 -17 4 -33 11 -46l102 129c-9 3 -19 5 -29 5c-49 0 -84 -36 -84 -88z
M287 162c49 0 84 36 84 88c0 19 -4 35 -13 49l-103 -131c10 -4 21 -6 32 -6z" />
    <glyph glyph-name="otilde" unicode="&#xf5;" horiz-adv-x="574" 
d="M108 553c0 167 103 186 183 153c31 -13 56 -36 56 14h120c0 -171 -103 -186 -184 -153c-30 13 -55 36 -55 -14h-120zM287 -14c-148 0 -269 114 -269 264s119 264 269 264s269 -114 269 -264s-119 -264 -269 -264zM287 162c49 0 84 36 84 88s-35 88 -84 88
s-84 -36 -84 -88s35 -88 84 -88z" />
    <glyph glyph-name="oe" unicode="&#x153;" horiz-adv-x="906" 
d="M553 187c18 -49 57 -65 92 -65c27 0 52 11 59 25h167c-33 -116 -131 -161 -229 -161c-76 0 -137 29 -179 77c-42 -48 -105 -77 -186 -77c-160 0 -259 131 -259 262c0 133 97 266 259 266c81 0 144 -30 187 -78c43 48 106 78 182 78c136 0 242 -113 242 -262
c0 -21 -2 -41 -8 -65h-327zM551 306h165c-11 45 -41 60 -78 60c-40 0 -73 -18 -87 -60zM287 162c49 0 84 36 84 88s-35 88 -84 88s-84 -36 -84 -88s35 -88 84 -88z" />
    <glyph glyph-name="p" unicode="p" horiz-adv-x="606" 
d="M349 514c136 0 239 -113 239 -264s-103 -264 -239 -264c-53 0 -94 15 -124 41v-227h-185v700h185v-27c30 26 71 41 124 41zM314 160c54 0 89 37 89 90s-35 90 -89 90s-89 -37 -89 -90s35 -90 89 -90z" />
    <glyph glyph-name="thorn" unicode="&#xfe;" horiz-adv-x="606" 
d="M349 514c136 0 239 -113 239 -264s-103 -264 -239 -264c-53 0 -94 15 -124 41v-227h-185v900h185v-227c30 26 71 41 124 41zM314 160c54 0 89 37 89 90s-35 90 -89 90s-89 -37 -89 -90s35 -90 89 -90z" />
    <glyph glyph-name="q" unicode="q" horiz-adv-x="606" 
d="M381 500h185v-700h-185v227c-30 -26 -71 -41 -124 -41c-136 0 -239 113 -239 264s103 264 239 264c53 0 94 -15 124 -41v27zM292 160c54 0 89 37 89 90s-35 90 -89 90s-89 -37 -89 -90s35 -90 89 -90z" />
    <glyph glyph-name="r" unicode="r" horiz-adv-x="360" 
d="M225 421c17 59 68 89 130 89v-200c-62 10 -130 -15 -130 -104v-206h-185v500h185v-79z" />
    <glyph glyph-name="racute" unicode="&#x155;" horiz-adv-x="360" 
d="M392 700l-116 -150h-174l80 150h210zM225 421c17 59 68 89 130 89v-200c-62 10 -130 -15 -130 -104v-206h-185v500h185v-79z" />
    <glyph glyph-name="rcaron" unicode="&#x159;" horiz-adv-x="360" 
d="M93 540l-106 160h155l45 -58l45 58h155l-106 -160h-188zM225 421c17 59 68 89 130 89v-200c-62 10 -130 -15 -130 -104v-206h-185v500h185v-79z" />
    <glyph glyph-name="rcommaaccent" unicode="&#x157;" horiz-adv-x="360" 
d="M225 421c17 59 68 89 130 89v-200c-62 10 -130 -15 -130 -104v-206h-185v500h185v-79zM32 -284l10 230h170l-40 -230h-140z" />
    <glyph glyph-name="s" unicode="s" horiz-adv-x="480" 
d="M206 352c0 -66 254 0 254 -202c0 -122 -108 -164 -220 -164s-220 44 -220 179h185c0 -30 12 -43 35 -43s35 9 35 26c0 62 -252 6 -252 202c0 117 108 164 215 164s211 -54 211 -177h-179c0 28 -12 41 -32 41c-18 0 -32 -9 -32 -26z" />
    <glyph glyph-name="sacute" unicode="&#x15b;" horiz-adv-x="480" 
d="M430 710l-116 -150h-174l80 150h210zM206 352c0 -66 254 0 254 -202c0 -122 -108 -164 -220 -164s-220 44 -220 179h185c0 -30 12 -43 35 -43s35 9 35 26c0 62 -252 6 -252 202c0 117 108 164 215 164s211 -54 211 -177h-179c0 28 -12 41 -32 41c-18 0 -32 -9 -32 -26z
" />
    <glyph glyph-name="scaron" unicode="&#x161;" horiz-adv-x="480" 
d="M131 550l-106 160h155l45 -58l45 58h155l-106 -160h-188zM206 352c0 -66 254 0 254 -202c0 -122 -108 -164 -220 -164s-220 44 -220 179h185c0 -30 12 -43 35 -43s35 9 35 26c0 62 -252 6 -252 202c0 117 108 164 215 164s211 -54 211 -177h-179c0 28 -12 41 -32 41
c-18 0 -32 -9 -32 -26z" />
    <glyph glyph-name="scedilla" unicode="&#x15f;" horiz-adv-x="480" 
d="M460 150c0 -91 -61 -138 -138 -155v-41c17 -7 53 -29 53 -77c0 -73 -77 -113 -245 -103v114c65 -5 95 1 95 14c0 12 -21 17 -53 20v70c-84 16 -152 66 -152 173h185c0 -30 12 -43 35 -43s35 9 35 26c0 62 -252 6 -252 202c0 117 108 164 215 164s211 -54 211 -177h-179
c0 28 -12 41 -32 41c-18 0 -32 -9 -32 -26c0 -66 254 0 254 -202z" />
    <glyph glyph-name="scommaaccent" unicode="&#x219;" horiz-adv-x="480" 
d="M206 352c0 -66 254 0 254 -202c0 -122 -108 -164 -220 -164s-220 44 -220 179h185c0 -30 12 -43 35 -43s35 9 35 26c0 62 -252 6 -252 202c0 117 108 164 215 164s211 -54 211 -177h-179c0 28 -12 41 -32 41c-18 0 -32 -9 -32 -26zM164 -284l10 230h170l-40 -230h-140z
" />
    <glyph glyph-name="germandbls" unicode="&#xdf;" horiz-adv-x="539" 
d="M271 -3v158c59 -10 78 11 78 45c0 53 -90 126 -90 179c0 47 49 80 49 135c0 25 -12 42 -38 42c-29 0 -45 -21 -45 -53v-503h-185v493c0 138 87 223 235 223c146 0 218 -79 218 -165c0 -76 -55 -120 -55 -162c0 -57 96 -116 96 -243c0 -102 -72 -182 -263 -149z" />
    <glyph glyph-name="t" unicode="t" horiz-adv-x="340" 
d="M330 500v-176h-67v-324h-185v324h-68v176h68v160h185v-160h67z" />
    <glyph glyph-name="tbar" unicode="&#x167;" horiz-adv-x="340" 
d="M330 324h-67v-59h37v-130h-37v-135h-185v135h-58v130h58v59h-68v176h68v160h185v-160h67v-176z" />
    <glyph glyph-name="tcaron" unicode="&#x165;" horiz-adv-x="446" 
d="M306 730h160l-40 -190h-130zM263 660v-160h67v-176h-67v-324h-185v324h-68v176h68v160h185z" />
    <glyph glyph-name="uni0163" unicode="&#x163;" horiz-adv-x="340" 
d="M330 500v-176h-67v-324h-185v324h-68v176h68v160h185v-160h67zM77 -284l10 230h170l-40 -230h-140z" />
    <glyph glyph-name="uni021B" unicode="&#x21b;" horiz-adv-x="340" 
d="M330 500v-176h-67v-324h-185v324h-68v176h68v160h185v-160h67zM77 -284l10 230h170l-40 -230h-140z" />
    <glyph glyph-name="u" unicode="u" horiz-adv-x="535" 
d="M310 500h185v-500h-185v37c-26 -31 -65 -51 -115 -51c-93 0 -160 70 -160 195v319h185v-294c0 -25 14 -42 42 -42c35 0 48 25 48 54v282z" />
    <glyph glyph-name="uacute" unicode="&#xfa;" horiz-adv-x="535" 
d="M464 700l-116 -150h-174l80 150h210zM310 500h185v-500h-185v37c-26 -31 -65 -51 -115 -51c-93 0 -160 70 -160 195v319h185v-294c0 -25 14 -42 42 -42c35 0 48 25 48 54v282z" />
    <glyph glyph-name="ucircumflex" unicode="&#xfb;" horiz-adv-x="535" 
d="M259 598l-45 -58h-155l106 160h174h14l106 -160h-155zM310 500h185v-500h-185v37c-26 -31 -65 -51 -115 -51c-93 0 -160 70 -160 195v319h185v-294c0 -25 14 -42 42 -42c35 0 48 25 48 54v282z" />
    <glyph glyph-name="udieresis" unicode="&#xfc;" horiz-adv-x="535" 
d="M239 695v-150h-150v150h150zM439 695v-150h-150v150h150zM310 500h185v-500h-185v37c-26 -31 -65 -51 -115 -51c-93 0 -160 70 -160 195v319h185v-294c0 -25 14 -42 42 -42c35 0 48 25 48 54v282z" />
    <glyph glyph-name="ugrave" unicode="&#xf9;" horiz-adv-x="535" 
d="M354 550h-174l-116 150h210zM310 500h185v-500h-185v37c-26 -31 -65 -51 -115 -51c-93 0 -160 70 -160 195v319h185v-294c0 -25 14 -42 42 -42c35 0 48 25 48 54v282z" />
    <glyph glyph-name="uhungarumlaut" unicode="&#x171;" horiz-adv-x="535" 
d="M318 700l-86 -160h-168l80 160h174zM435 540h-168l90 160h174zM310 218v282h185v-500h-185v37c-26 -31 -65 -51 -115 -51c-93 0 -160 70 -160 195v319h185v-294c0 -25 14 -42 42 -42c35 0 48 25 48 54z" />
    <glyph glyph-name="umacron" unicode="&#x16b;" horiz-adv-x="535" 
d="M424 689v-140h-320v140h320zM310 500h185v-500h-185v37c-26 -31 -65 -51 -115 -51c-93 0 -160 70 -160 195v319h185v-294c0 -25 14 -42 42 -42c35 0 48 25 48 54v282z" />
    <glyph glyph-name="uogonek" unicode="&#x173;" horiz-adv-x="535" 
d="M495 500v-500c-28 -29 -40 -54 -40 -71c0 -13 8 -19 21 -19c7 0 13 1 19 3v-110c-27 -11 -54 -17 -88 -17c-60 0 -110 28 -110 91c0 38 21 83 59 123h-46v37c-26 -31 -65 -51 -115 -51c-93 0 -160 70 -160 195v319h185v-294c0 -25 14 -42 42 -42c35 0 48 25 48 54v282
h185z" />
    <glyph glyph-name="uring" unicode="&#x16f;" horiz-adv-x="535" 
d="M264 530c-87 0 -149 60 -149 140s62 140 149 140c90 0 149 -60 149 -140s-59 -140 -149 -140zM264 700c-20 0 -31 -13 -31 -30s11 -30 31 -30c21 0 32 13 32 30s-11 30 -32 30zM310 500h185v-500h-185v37c-26 -31 -65 -51 -115 -51c-93 0 -160 70 -160 195v319h185v-294
c0 -25 14 -42 42 -42c35 0 48 25 48 54v282z" />
    <glyph glyph-name="v" unicode="v" horiz-adv-x="560" 
d="M365 500h195l-185 -500h-175h-15l-185 500h195l85 -258z" />
    <glyph glyph-name="w" unicode="w" horiz-adv-x="740" 
d="M545 500h195l-145 -500h-165h-5l-55 190l-55 -190h-130h-40l-145 500h195l60 -260l50 174l-25 86h135l73 -250z" />
    <glyph glyph-name="wacute" unicode="&#x1e83;" horiz-adv-x="740" 
d="M568 700l-116 -150h-174l80 150h210zM545 500h195l-145 -500h-165h-5l-55 190l-55 -190h-130h-40l-145 500h195l60 -260l50 174l-25 86h135l73 -250z" />
    <glyph glyph-name="wcircumflex" unicode="&#x175;" horiz-adv-x="740" 
d="M363 598l-45 -58h-155l106 160h174h14l106 -160h-155zM545 500h195l-145 -500h-165h-5l-55 190l-55 -190h-130h-40l-145 500h195l60 -260l50 174l-25 86h135l73 -250z" />
    <glyph glyph-name="wdieresis" unicode="&#x1e85;" horiz-adv-x="740" 
d="M343 695v-150h-150v150h150zM543 695v-150h-150v150h150zM545 500h195l-145 -500h-165h-5l-55 190l-55 -190h-130h-40l-145 500h195l60 -260l50 174l-25 86h135l73 -250z" />
    <glyph glyph-name="wgrave" unicode="&#x1e81;" horiz-adv-x="740" 
d="M458 550h-174l-116 150h210zM545 500h195l-145 -500h-165h-5l-55 190l-55 -190h-130h-40l-145 500h195l60 -260l50 174l-25 86h135l73 -250z" />
    <glyph glyph-name="x" unicode="x" horiz-adv-x="530" 
d="M530 0h-195l-70 107l-70 -107h-195l168 256l-160 244h195l62 -95l62 95h195l-159 -244z" />
    <glyph glyph-name="y" unicode="y" horiz-adv-x="542" 
d="M355 500h195l-239 -700h-195l69 201l-195 499h195l92 -269z" />
    <glyph glyph-name="yacute" unicode="&#xfd;" horiz-adv-x="542" 
d="M186 550h174l116 150h-210zM355 500h195l-239 -700h-195l69 201l-195 499h195l92 -269z" />
    <glyph glyph-name="ycircumflex" unicode="&#x177;" horiz-adv-x="542" 
d="M271 598l-45 -58h-155l106 160h174h14l106 -160h-155zM355 500h195l-239 -700h-195l69 201l-195 499h195l92 -269z" />
    <glyph glyph-name="ydieresis" unicode="&#xff;" horiz-adv-x="542" 
d="M101 545v150h150v-150h-150zM301 545v150h150v-150h-150zM355 500h195l-239 -700h-195l69 201l-195 499h195l92 -269z" />
    <glyph glyph-name="ygrave" unicode="&#x1ef3;" horiz-adv-x="542" 
d="M366 550l-80 150h-210l116 -150h174zM355 500h195l-239 -700h-195l69 201l-195 499h195l92 -269z" />
    <glyph glyph-name="z" unicode="z" horiz-adv-x="455" 
d="M266 170h174v-170h-420v130l164 200h-154v170h400v-130z" />
    <glyph glyph-name="zacute" unicode="&#x17a;" horiz-adv-x="455" 
d="M430 700l-116 -150h-174l80 150h210zM266 170h174v-170h-420v130l164 200h-154v170h400v-130z" />
    <glyph glyph-name="zcaron" unicode="&#x17e;" horiz-adv-x="455" 
d="M131 540l-106 160h155l45 -58l45 58h155l-106 -160h-188zM266 170h174v-170h-420v130l164 200h-154v170h400v-130z" />
    <glyph glyph-name="zdotaccent" unicode="&#x17c;" horiz-adv-x="455" 
d="M315 705v-160h-170v160h170zM266 170h174v-170h-420v130l164 200h-154v170h400v-130z" />
    <glyph glyph-name="a.ss01" horiz-adv-x="606" 
d="M381 500h185v-500h-185v27c-30 -26 -71 -41 -124 -41c-136 0 -239 113 -239 264s103 264 239 264c53 0 94 -15 124 -41v27zM292 160c54 0 89 37 89 90s-35 90 -89 90s-89 -37 -89 -90s35 -90 89 -90z" />
    <glyph glyph-name="aacute.ss01" horiz-adv-x="606" 
d="M523 700l-116 -150h-174l80 150h210zM381 500h185v-500h-185v27c-30 -26 -71 -41 -124 -41c-136 0 -239 113 -239 264s103 264 239 264c53 0 94 -15 124 -41v27zM292 160c54 0 89 37 89 90s-35 90 -89 90s-89 -37 -89 -90s35 -90 89 -90z" />
    <glyph glyph-name="abreve.ss01" horiz-adv-x="606" 
d="M323 532c-118 0 -185 57 -185 170h150c0 -26 11 -40 35 -40s35 14 35 40h150c0 -113 -67 -170 -185 -170zM381 500h185v-500h-185v27c-30 -26 -71 -41 -124 -41c-136 0 -239 113 -239 264s103 264 239 264c53 0 94 -15 124 -41v27zM292 160c54 0 89 37 89 90
s-35 90 -89 90s-89 -37 -89 -90s35 -90 89 -90z" />
    <glyph glyph-name="acircumflex.ss01" horiz-adv-x="606" 
d="M318 598l-45 -58h-155l106 160h174h14l106 -160h-155zM381 500h185v-500h-185v27c-30 -26 -71 -41 -124 -41c-136 0 -239 113 -239 264s103 264 239 264c53 0 94 -15 124 -41v27zM292 160c54 0 89 37 89 90s-35 90 -89 90s-89 -37 -89 -90s35 -90 89 -90z" />
    <glyph glyph-name="adieresis.ss01" horiz-adv-x="606" 
d="M298 695v-150h-150v150h150zM498 695v-150h-150v150h150zM381 500h185v-500h-185v27c-30 -26 -71 -41 -124 -41c-136 0 -239 113 -239 264s103 264 239 264c53 0 94 -15 124 -41v27zM292 160c54 0 89 37 89 90s-35 90 -89 90s-89 -37 -89 -90s35 -90 89 -90z" />
    <glyph glyph-name="agrave.ss01" horiz-adv-x="606" 
d="M413 550h-174l-116 150h210zM381 500h185v-500h-185v27c-30 -26 -71 -41 -124 -41c-136 0 -239 113 -239 264s103 264 239 264c53 0 94 -15 124 -41v27zM292 160c54 0 89 37 89 90s-35 90 -89 90s-89 -37 -89 -90s35 -90 89 -90z" />
    <glyph glyph-name="amacron.ss01" horiz-adv-x="606" 
d="M483 689v-140h-320v140h320zM381 500h185v-500h-185v27c-30 -26 -71 -41 -124 -41c-136 0 -239 113 -239 264s103 264 239 264c53 0 94 -15 124 -41v27zM292 160c54 0 89 37 89 90s-35 90 -89 90s-89 -37 -89 -90s35 -90 89 -90z" />
    <glyph glyph-name="aogonek.ss01" horiz-adv-x="606" 
d="M566 500v-500c-28 -29 -40 -54 -40 -71c0 -13 8 -19 21 -19c7 0 13 1 19 3v-110c-27 -11 -54 -17 -88 -17c-60 0 -110 28 -110 91c0 38 21 83 59 123h-46v27c-30 -26 -71 -41 -124 -41c-136 0 -239 113 -239 264s103 264 239 264c53 0 94 -15 124 -41v27h185zM292 160
c54 0 89 37 89 90s-35 90 -89 90s-89 -37 -89 -90s35 -90 89 -90z" />
    <glyph glyph-name="aring.ss01" horiz-adv-x="606" 
d="M323 530c-87 0 -149 60 -149 140s62 140 149 140c90 0 149 -60 149 -140s-59 -140 -149 -140zM323 700c-20 0 -31 -13 -31 -30s11 -30 31 -30c21 0 32 13 32 30s-11 30 -32 30zM381 500h185v-500h-185v27c-30 -26 -71 -41 -124 -41c-136 0 -239 113 -239 264
s103 264 239 264c53 0 94 -15 124 -41v27zM292 160c54 0 89 37 89 90s-35 90 -89 90s-89 -37 -89 -90s35 -90 89 -90z" />
    <glyph glyph-name="atilde.ss01" horiz-adv-x="606" 
d="M319 557c-30 13 -55 36 -55 -14h-120c0 167 103 186 183 153c31 -13 56 -36 56 14h120c0 -171 -103 -186 -184 -153zM381 500h185v-500h-185v27c-30 -26 -71 -41 -124 -41c-136 0 -239 113 -239 264s103 264 239 264c53 0 94 -15 124 -41v27zM292 160c54 0 89 37 89 90
s-35 90 -89 90s-89 -37 -89 -90s35 -90 89 -90z" />
    <glyph glyph-name="ae.ss01" horiz-adv-x="919" 
d="M566 187c18 -49 57 -65 92 -65c27 0 52 11 59 25h167c-33 -116 -111 -161 -199 -161c-58 0 -104 20 -139 53v-39h-165v34c-30 -30 -70 -48 -124 -48c-136 0 -239 113 -239 264s103 264 239 264c54 0 94 -18 124 -48v34h165v-35c33 31 77 49 133 49
c126 0 222 -113 222 -262c0 -21 -2 -41 -8 -65h-327zM564 306h165c-11 45 -41 60 -78 60c-40 0 -73 -18 -87 -60zM292 160c54 0 89 37 89 90s-35 90 -89 90s-89 -37 -89 -90s35 -90 89 -90z" />
    <glyph glyph-name="y.ss01" horiz-adv-x="535" 
d="M310 500h185v-517c0 -135 -108 -199 -223 -199s-223 64 -223 194h175c0 -19 10 -37 43 -37s43 18 43 42v73c-26 -31 -65 -51 -115 -51c-93 0 -160 70 -160 195v300h185v-275c0 -25 14 -42 42 -42c35 0 48 25 48 54v263z" />
    <glyph glyph-name="yacute.ss01" horiz-adv-x="535" 
d="M466 700l-116 -150h-174l80 150h210zM310 500h185v-517c0 -135 -108 -199 -223 -199s-223 64 -223 194h175c0 -19 10 -37 43 -37s43 18 43 42v73c-26 -31 -65 -51 -115 -51c-93 0 -160 70 -160 195v300h185v-275c0 -25 14 -42 42 -42c35 0 48 25 48 54v263z" />
    <glyph glyph-name="ycircumflex.ss01" horiz-adv-x="535" 
d="M261 598l-45 -58h-155l106 160h174h14l106 -160h-155zM310 500h185v-517c0 -135 -108 -199 -223 -199s-223 64 -223 194h175c0 -19 10 -37 43 -37s43 18 43 42v73c-26 -31 -65 -51 -115 -51c-93 0 -160 70 -160 195v300h185v-275c0 -25 14 -42 42 -42c35 0 48 25 48 54
v263z" />
    <glyph glyph-name="ydieresis.ss01" horiz-adv-x="535" 
d="M241 695v-150h-150v150h150zM441 695v-150h-150v150h150zM310 500h185v-517c0 -135 -108 -199 -223 -199s-223 64 -223 194h175c0 -19 10 -37 43 -37s43 18 43 42v73c-26 -31 -65 -51 -115 -51c-93 0 -160 70 -160 195v300h185v-275c0 -25 14 -42 42 -42
c35 0 48 25 48 54v263z" />
    <glyph glyph-name="ygrave.ss01" horiz-adv-x="535" 
d="M356 550h-174l-116 150h210zM310 500h185v-517c0 -135 -108 -199 -223 -199s-223 64 -223 194h175c0 -19 10 -37 43 -37s43 18 43 42v73c-26 -31 -65 -51 -115 -51c-93 0 -160 70 -160 195v300h185v-275c0 -25 14 -42 42 -42c35 0 48 25 48 54v263z" />
    <glyph glyph-name="f_f_j" horiz-adv-x="850" 
d="M810 500v-500c0 -158 -79 -225 -250 -216v166c45 -4 65 12 65 50v324h-97v-324h-185v324h-58h-42v-324h-185v324h-58v176h58c0 140 87 226 262 216v-166c-50 4 -77 -18 -77 -50h77h23v10c0 140 87 216 262 216c52 0 92 -5 135 -16v-152c-40 6 -81 10 -120 10
c-56 0 -92 -15 -92 -58v-10h282z" />
    <glyph glyph-name="f_j" horiz-adv-x="565" 
d="M525 500v-500c0 -158 -79 -225 -250 -216v166c45 -4 65 12 65 50v324h-97v-324h-185v324h-58v176h58c0 140 87 216 262 216c52 0 92 -5 135 -16v-152c-40 6 -81 10 -120 10c-56 0 -92 -15 -92 -58h282z" />
    <glyph glyph-name="ordfeminine" unicode="&#xaa;" horiz-adv-x="270" 
d="M136 716c55 0 109 -32 109 -99v-158h-88v14c-13 -12 -29 -21 -57 -21c-49 0 -85 26 -85 78s38 78 87 78c26 0 42 -6 55 -15v24c0 11 -5 20 -21 20s-21 -9 -21 -18h-88c0 65 54 97 109 97zM132 509c14 0 25 9 25 21c0 14 -11 21 -25 21c-16 0 -25 -8 -25 -21
c0 -12 9 -21 25 -21z" />
    <glyph glyph-name="ordmasculine" unicode="&#xba;" horiz-adv-x="299" 
d="M149 450c-74 0 -134 57 -134 132s59 132 134 132s135 -57 135 -132s-60 -132 -135 -132zM149 538c25 0 42 18 42 44s-17 44 -42 44c-24 0 -42 -18 -42 -44s18 -44 42 -44z" />
    <glyph glyph-name="uni0410" unicode="&#x410;" 
d="M455 0l-24 90h-202l-24 -90h-215l228 700h224l228 -700h-215zM272 250h116l-58 215z" />
    <glyph glyph-name="uni0411" unicode="&#x411;" horiz-adv-x="600" 
d="M360 444c143 0 230 -86 230 -219s-87 -225 -230 -225h-230h-80v700h200h280v-194h-280v-62h110zM345 180c27 0 45 17 45 45s-18 45 -45 45h-95v-90h95z" />
    <glyph glyph-name="uni0412" unicode="&#x412;" horiz-adv-x="685" 
d="M548 422c76 -34 122 -105 122 -195c0 -126 -94 -227 -231 -227h-349h-40v700h200h105c123 0 225 -72 225 -185c0 -36 -12 -68 -32 -93zM351 524h-101v-80h122c11 10 17 25 17 39c0 21 -13 41 -38 41zM409 176c37 0 61 21 61 56c0 37 -24 56 -60 56h-160v-112h159z" />
    <glyph glyph-name="uni0413" unicode="&#x413;" horiz-adv-x="480" 
d="M480 700v-194h-230v-506h-200v700h430z" />
    <glyph glyph-name="uni0403" unicode="&#x403;" horiz-adv-x="480" 
d="M446 899l-116 -150h-174l80 150h210zM480 700v-194h-230v-506h-200v700h430z" />
    <glyph glyph-name="uni0490" unicode="&#x490;" horiz-adv-x="480" 
d="M280 820h200v-180v-134h-230v-506h-200v700h230v120z" />
    <glyph glyph-name="uni0414" unicode="&#x414;" horiz-adv-x="705" 
d="M620 190h75v-190v-144h-200v144h-290v-144h-200v180v154h71c27 45 45 110 45 216v294h499v-510zM285 190h135v326h-99v-112c0 -101 -16 -167 -36 -214z" />
    <glyph glyph-name="uni0415" unicode="&#x415;" horiz-adv-x="515" 
d="M250 184h240v-184h-380h-60v700h200h235v-184h-235v-78h210v-170h-210v-84z" />
    <glyph glyph-name="uni0401" unicode="&#x401;" horiz-adv-x="515" 
d="M243 895v-150h-150v150h150zM443 895v-150h-150v150h150zM250 184h240v-184h-380h-60v700h200h235v-184h-235v-78h210v-170h-210v-84z" />
    <glyph glyph-name="uni0416" unicode="&#x416;" horiz-adv-x="932" 
d="M932 0h-222l-144 298v-298h-200v298l-144 -298h-222l193 352l-183 348h222l134 -295v295h200v-295l134 295h222l-183 -348z" />
    <glyph glyph-name="uni0417" unicode="&#x417;" horiz-adv-x="560" 
d="M466 398c53 -41 84 -102 84 -176c0 -141 -114 -238 -275 -238s-275 107 -275 248h200c0 -38 26 -58 75 -58s75 20 75 58c0 37 -26 56 -75 56h-75v170h75h12c15 9 23 21 23 41c0 24 -15 37 -45 37s-45 -13 -45 -37h-200c0 133 112 217 245 217s245 -84 245 -197
c0 -51 -19 -91 -44 -121z" />
    <glyph glyph-name="uni0418" unicode="&#x418;" 
d="M410 0v330l-200 -330h-160v700h200v-330l200 330h160v-700h-200z" />
    <glyph glyph-name="uni0419" unicode="&#x419;" 
d="M165 749v150h350v-150h-350zM410 0v330l-200 -330h-160v700h200v-330l200 330h160v-700h-200z" />
    <glyph glyph-name="uni041A" unicode="&#x41a;" horiz-adv-x="636" 
d="M646 0h-222l-174 300v-300h-200v700h200v-280l164 280h222l-208 -340z" />
    <glyph glyph-name="uni040C" unicode="&#x40c;" horiz-adv-x="636" 
d="M516 899l-116 -150h-174l80 150h210zM646 0h-222l-174 300v-300h-200v700h200v-280l164 280h222l-208 -340z" />
    <glyph glyph-name="uni041B" unicode="&#x41b;" horiz-adv-x="640" 
d="M0 -2v186c67 -4 96 13 96 100v416h494v-700h-200v506h-94v-246c0 -230 -147 -276 -296 -262z" />
    <glyph glyph-name="uni041C" unicode="&#x41c;" horiz-adv-x="860" 
d="M810 700v-700h-200v389l-105 -300h-150l-105 300v-389h-200v700h200h50l130 -366l130 366h250z" />
    <glyph glyph-name="uni041D" unicode="&#x41d;" horiz-adv-x="650" 
d="M400 700h200v-700h-200v263h-150v-263h-200v700h200v-243h150v243z" />
    <glyph glyph-name="uni041E" unicode="&#x41e;" horiz-adv-x="792" 
d="M396 -16c-207 0 -371 159 -371 366s164 366 371 366s371 -159 371 -366s-164 -366 -371 -366zM396 180c99 0 171 73 171 170s-72 170 -171 170s-171 -73 -171 -170s72 -170 171 -170z" />
    <glyph glyph-name="uni041F" unicode="&#x41f;" horiz-adv-x="640" 
d="M590 700v-700h-200v506h-140v-506h-200v700h200h340z" />
    <glyph glyph-name="uni0420" unicode="&#x420;" horiz-adv-x="595" 
d="M330 700c141 0 255 -95 255 -251s-114 -251 -255 -251h-80v-198h-200v700h200h80zM330 392c30 0 55 21 55 57s-25 57 -55 57h-80v-114h80z" />
    <glyph glyph-name="uni0421" unicode="&#x421;" horiz-adv-x="756" 
d="M391 -16c-212 0 -366 159 -366 366s154 366 366 366c178 0 327 -124 349 -295h-207c-15 59 -73 99 -142 99c-99 0 -166 -73 -166 -170s67 -170 166 -170c70 0 127 40 142 100h208c-23 -172 -171 -296 -350 -296z" />
    <glyph glyph-name="uni0422" unicode="&#x422;" horiz-adv-x="500" 
d="M495 700v-194h-145v-506h-200v506h-145v194h345h145z" />
    <glyph glyph-name="uni0423" unicode="&#x423;" horiz-adv-x="650" 
d="M440 700h210l-202 -474c-64 -150 -163 -233 -344 -226v186c66 -5 108 8 138 35l-232 479h210l121 -266z" />
    <glyph glyph-name="uni040E" unicode="&#x40e;" horiz-adv-x="650" 
d="M495 898v-150h-350v150h350zM440 700h210l-202 -474c-64 -150 -163 -233 -344 -226v186c66 -5 108 8 138 35l-232 479h210l121 -266z" />
    <glyph glyph-name="uni0424" unicode="&#x424;" horiz-adv-x="844" 
d="M824 350c0 -156 -111 -261 -307 -286v-84h-190v84c-196 25 -307 130 -307 286s111 261 307 286v84h190v-84c196 -25 307 -130 307 -286zM220 350c0 -58 30 -90 107 -103v212c-77 -14 -107 -49 -107 -109zM517 247c77 13 107 45 107 103c0 60 -30 95 -107 109v-212z" />
    <glyph glyph-name="uni0425" unicode="&#x425;" horiz-adv-x="635" 
d="M635 0h-222l-95 164l-96 -164h-222l207 354l-202 346h222l91 -155l90 155h222l-201 -346z" />
    <glyph glyph-name="uni0427" unicode="&#x427;" horiz-adv-x="640" 
d="M390 700h200v-700h-200v213c-33 -8 -65 -11 -99 -11c-156 0 -251 92 -251 248v250h200v-236c0 -43 30 -68 75 -68c26 0 50 3 75 8v296z" />
    <glyph glyph-name="uni0426" unicode="&#x426;" horiz-adv-x="705" 
d="M610 194h85v-338h-200v144h-445v700h210v-506h140v506h210v-506z" />
    <glyph glyph-name="uni0428" unicode="&#x428;" horiz-adv-x="920" 
d="M670 700h200v-700h-820v700h200v-506h110v506h200v-506h110v506z" />
    <glyph glyph-name="uni0429" unicode="&#x429;" horiz-adv-x="965" 
d="M870 194h85v-338h-200v144h-705v700h200v-506h110v506h200v-506h110v506h200v-506z" />
    <glyph glyph-name="uni040F" unicode="&#x40f;" horiz-adv-x="640" 
d="M390 700h200v-700h-170v-144h-200v144h-170v700h200v-506h140v506z" />
    <glyph glyph-name="uni042C" unicode="&#x42c;" horiz-adv-x="595" 
d="M330 502c141 0 255 -95 255 -251s-114 -251 -255 -251h-220h-60v700h200v-198h80zM330 194c30 0 55 21 55 57s-25 57 -55 57h-80v-114h80z" />
    <glyph glyph-name="uni042A" unicode="&#x42a;" horiz-adv-x="705" 
d="M160 -1v507h-160v194l360 -1v-198h80c141 0 255 -95 255 -251s-114 -251 -255 -251h-280zM360 193h80c30 0 55 21 55 57s-25 57 -55 57h-80v-114z" />
    <glyph glyph-name="uni042B" unicode="&#x42b;" horiz-adv-x="890" 
d="M50 -1v700h200v-198h80c141 0 255 -95 255 -251s-114 -251 -255 -251h-280zM640 -1v700h200v-700h-200zM250 193h80c30 0 55 21 55 57s-25 57 -55 57h-80v-114z" />
    <glyph glyph-name="uni0409" unicode="&#x409;" horiz-adv-x="905" 
d="M640 481c131 0 255 -85 255 -241s-124 -241 -255 -241h-200v1h-60v506h-84v-246c0 -230 -147 -276 -296 -262v186c67 -4 96 13 96 100v416h484v-219h60zM640 193c30 0 55 11 55 47s-25 47 -55 47h-60v-94h60z" />
    <glyph glyph-name="uni040A" unicode="&#x40a;" horiz-adv-x="915" 
d="M650 481c131 0 255 -85 255 -241s-124 -241 -255 -241h-200v1h-60v287h-140v-287h-200v700h200v-219h140v219h200v-219h60zM650 193c30 0 55 11 55 47s-25 47 -55 47h-60v-94h60z" />
    <glyph glyph-name="uni0405" unicode="&#x405;" horiz-adv-x="555" 
d="M284 -16c-154 0 -274 70 -274 244h200c0 -43 29 -58 76 -58c38 0 59 16 59 40c0 30 -49 42 -109 59c-95 29 -219 87 -219 227c0 145 110 220 252 220c141 0 258 -70 258 -234h-200c0 26 -15 48 -58 48c-34 0 -52 -14 -52 -35c0 -36 57 -47 124 -67
c93 -28 204 -88 204 -224c0 -145 -112 -220 -261 -220z" />
    <glyph glyph-name="uni0404" unicode="&#x404;" horiz-adv-x="761" 
d="M533 280h208c-18 -172 -171 -296 -350 -296c-217 0 -366 159 -366 366s149 366 366 366c178 0 332 -124 349 -295h-207c-14 59 -73 104 -147 104c-70 0 -120 -33 -146 -85h211v-180h-211c26 -52 76 -85 146 -85c75 0 133 45 147 105z" />
    <glyph glyph-name="uni042D" unicode="&#x42d;" horiz-adv-x="761" 
d="M370 716c217 0 366 -159 366 -366s-149 -366 -366 -366c-179 0 -332 124 -350 296h208c14 -60 72 -105 147 -105c70 0 120 33 146 85h-211v180h211c-26 52 -76 85 -146 85c-74 0 -133 -45 -147 -104h-207c17 171 171 295 349 295z" />
    <glyph glyph-name="uni0406" unicode="&#x406;" horiz-adv-x="300" 
d="M50 700h200v-700h-200v700z" />
    <glyph glyph-name="uni0407" unicode="&#x407;" horiz-adv-x="300" 
d="M-25 745v150h150v-150h-150zM175 745v150h150v-150h-150zM50 700h200v-700h-200v700z" />
    <glyph glyph-name="uni0408" unicode="&#x408;" horiz-adv-x="550" 
d="M260 -16c-157 0 -250 90 -250 241v25h200v-25c0 -30 19 -47 50 -47s50 17 50 47v475h200v-480c0 -148 -93 -236 -250 -236z" />
    <glyph glyph-name="uni040B" unicode="&#x40b;" horiz-adv-x="665" 
d="M459 434c111 0 176 -64 176 -195v-239h-195v214c0 30 -19 42 -45 42c-14 0 -29 -4 -45 -10v-246h-200v506h-145v194h345h175v-194h-175v-88c40 11 77 16 109 16z" />
    <glyph glyph-name="uni042E" unicode="&#x42e;" horiz-adv-x="1077" 
d="M681 716c207 0 371 -159 371 -366s-164 -366 -371 -366c-177 0 -315 116 -352 279h-79v-263h-200v700h200v-243h85c42 152 176 259 346 259zM681 180c99 0 171 73 171 170s-72 170 -171 170s-171 -73 -171 -170s72 -170 171 -170z" />
    <glyph glyph-name="uni042F" unicode="&#x42f;" horiz-adv-x="635" 
d="M585 701v-700h-200v220h-19l-155 -220h-231l193 252c-75 39 -123 110 -123 202c0 151 114 246 265 246h270zM319 517c-40 0 -69 -26 -69 -67s29 -66 69 -65h66v132h-66z" />
    <glyph glyph-name="uni0402" unicode="&#x402;" 
d="M459 434c111 0 176 -64 176 -195v-39c0 -158 -79 -225 -240 -216v171c35 -4 45 12 45 45v14c0 30 -19 42 -45 42c-14 0 -29 -4 -45 -10v-246h-200v506h-145v194h345h175v-194h-175v-88c40 11 77 16 109 16z" />
    <glyph glyph-name="uni0414.loclBGR" horiz-adv-x="740" 
d="M655 190h80v-190v-144h-200v144h-300h-30v-144h-200v180v154h80l173 510h224zM289 190h162l-81 285z" />
    <glyph glyph-name="uni041B.loclBGR" horiz-adv-x="640" 
d="M208 700h224l218 -700h-215l-115 465l-115 -465h-215z" />
    <glyph glyph-name="uni0424.loclBGR" horiz-adv-x="874" 
d="M849 350c0 -190 -125 -322 -317 -354v-96h-190v96c-192 32 -317 164 -317 354s125 322 317 354v96h190v-96c192 -32 317 -164 317 -354zM225 350c0 -86 40 -141 117 -164v328c-77 -23 -117 -78 -117 -164zM532 186c77 23 117 78 117 164s-40 141 -117 164v-328z" />
    <glyph glyph-name="uni0414.ss01" horiz-adv-x="705" 
d="M620 190h75v-190h-275h-415v190h71c27 45 45 110 45 216v294h499v-510zM285 190h135v326h-99v-112c0 -101 -16 -167 -36 -214z" />
    <glyph glyph-name="uni0426.ss01" horiz-adv-x="705" 
d="M610 194h85v-194h-645v700h210v-506h140v506h210v-506z" />
    <glyph glyph-name="uni0429.ss01" horiz-adv-x="965" 
d="M870 194h85v-194h-905v700h200v-506h110v506h200v-506h110v506h200v-506z" />
    <glyph glyph-name="uni0414.loclBGR.ss01" horiz-adv-x="740" 
d="M655 190h80v-190h-230h-485h-15v190h80l173 510h224zM289 190h162l-81 285z" />
    <glyph glyph-name="uni0430" unicode="&#x430;" horiz-adv-x="515" 
d="M262 514c110 0 218 -64 218 -199v-315h-176v29c-27 -26 -58 -43 -113 -43c-98 0 -171 52 -171 156s77 156 175 156c51 0 83 -13 109 -29v46c0 22 -10 40 -42 40s-42 -18 -42 -35h-176c0 130 108 194 218 194zM254 100c29 0 50 17 50 42c0 27 -21 42 -50 42
c-31 0 -49 -17 -49 -42s18 -42 49 -42z" />
    <glyph glyph-name="uni0431" unicode="&#x431;" horiz-adv-x="565" 
d="M290 -16c-166 0 -272 110 -272 264c0 294 297 322 287 452h190c10 -214 -204 -208 -269 -289c31 17 60 27 112 27c102 0 217 -82 217 -218c0 -135 -104 -236 -265 -236zM289 139c47 0 81 32 81 76c0 45 -35 78 -84 78c-40 0 -81 -27 -81 -75c0 -47 37 -79 84 -79z" />
    <glyph glyph-name="uni0432" unicode="&#x432;" horiz-adv-x="525" 
d="M440 296c52 -28 80 -80 80 -138c0 -88 -59 -158 -180 -158h-300v192v308h180h86c99 0 160 -61 160 -134c0 -25 -9 -49 -26 -70zM220 372v-54h72c3 6 4 14 4 21c0 22 -12 33 -35 33h-41zM300 132c21 0 34 11 34 31c0 19 -13 29 -34 29h-80v-60h80z" />
    <glyph glyph-name="uni0433" unicode="&#x433;" horiz-adv-x="390" 
d="M390 500v-176h-165v-324h-185v500h350z" />
    <glyph glyph-name="uni0453" unicode="&#x453;" horiz-adv-x="390" 
d="M386 700l-116 -150h-174l80 150h210zM390 500v-176h-165v-324h-185v500h350z" />
    <glyph glyph-name="uni0491" unicode="&#x491;" horiz-adv-x="390" 
d="M215 604h175v-280h-165v-324h-185v500h175v104z" />
    <glyph glyph-name="uni0434" unicode="&#x434;" horiz-adv-x="580" 
d="M505 168h65v-168v-114h-175v114h-220v-114h-175v150v132h51c26 39 41 88 41 175v157h180h166h67v-332zM242 168h83v168h-53c-1 -71 -11 -124 -30 -168z" />
    <glyph glyph-name="uni0435" unicode="&#x435;" horiz-adv-x="556" 
d="M203 187c18 -49 57 -65 92 -65c27 0 52 11 59 25h167c-33 -116 -131 -161 -239 -161c-160 0 -264 115 -264 264s108 264 268 264c146 0 252 -113 252 -262c0 -21 -2 -41 -8 -65h-327zM201 306h165c-11 45 -41 60 -78 60c-40 0 -73 -18 -87 -60z" />
    <glyph glyph-name="uni0451" unicode="&#x451;" horiz-adv-x="556" 
d="M258 705v-150h-150v150h150zM458 705v-150h-150v150h150zM203 187c18 -49 57 -65 92 -65c27 0 52 11 59 25h167c-33 -116 -131 -161 -239 -161c-160 0 -264 115 -264 264s108 264 268 264c146 0 252 -113 252 -262c0 -21 -2 -41 -8 -65h-327zM201 306h165
c-11 45 -41 60 -78 60c-40 0 -73 -18 -87 -60z" />
    <glyph glyph-name="uni0436" unicode="&#x436;" horiz-adv-x="789" 
d="M789 0h-202l-100 192v-192h-185v192l-100 -192h-202l144 250l-134 250h202l90 -187v187h185v-187l90 187h202l-134 -250z" />
    <glyph glyph-name="uni0437" unicode="&#x437;" horiz-adv-x="460" 
d="M386 284c44 -29 69 -73 69 -126c0 -93 -69 -174 -225 -174s-225 77 -225 180h184c0 -22 14 -34 41 -34s41 12 41 36c0 21 -14 32 -41 32h-70v122h73c10 6 15 15 15 27c0 19 -10 29 -28 29s-28 -10 -28 -29h-174c0 102 69 167 207 167c120 0 197 -55 197 -143
c0 -34 -13 -65 -36 -87z" />
    <glyph glyph-name="uni0438" unicode="&#x438;" horiz-adv-x="550" 
d="M366 500h144v-500h-180v200l-146 -200h-144v500h180v-200z" />
    <glyph glyph-name="uni0439" unicode="&#x439;" horiz-adv-x="550" 
d="M100 549v150h350v-150h-350zM366 500h144v-500h-180v200l-146 -200h-144v500h180v-200z" />
    <glyph glyph-name="uni043A" unicode="&#x43a;" horiz-adv-x="550" 
d="M550 0h-205l-120 200v-200h-185v500h185v-196l110 196h205l-152 -250z" />
    <glyph glyph-name="uni045C" unicode="&#x45c;" horiz-adv-x="550" 
d="M456 700l-116 -150h-174l80 150h210zM550 0h-205l-120 200v-200h-185v500h185v-196l110 196h205l-152 -250z" />
    <glyph glyph-name="uni043B" unicode="&#x43b;" horiz-adv-x="562" 
d="M522 500v-500h-185v324h-70v-117c0 -162 -77 -226 -257 -215v170c50 -6 72 19 72 85v253h185h255z" />
    <glyph glyph-name="uni043C" unicode="&#x43c;" horiz-adv-x="670" 
d="M630 500v-500h-180v216l-77 -135h-76l-77 135v-216h-180v500h180h6l109 -190l109 190h186z" />
    <glyph glyph-name="uni043D" unicode="&#x43d;" horiz-adv-x="540" 
d="M315 500h185v-500h-185v162h-90v-162h-185v500h185v-162h90v162z" />
    <glyph glyph-name="uni043E" unicode="&#x43e;" horiz-adv-x="574" 
d="M287 -14c-148 0 -269 114 -269 264s119 264 269 264s269 -114 269 -264s-119 -264 -269 -264zM287 162c49 0 84 36 84 88s-35 88 -84 88s-84 -36 -84 -88s35 -88 84 -88z" />
    <glyph glyph-name="uni043F" unicode="&#x43f;" horiz-adv-x="540" 
d="M500 500v-500h-185v324h-90v-324h-185v500h185h275z" />
    <glyph glyph-name="uni0440" unicode="&#x440;" horiz-adv-x="606" 
d="M349 514c136 0 239 -113 239 -264s-103 -264 -239 -264c-53 0 -94 15 -124 41v-227h-185v700h185v-27c30 26 71 41 124 41zM314 160c54 0 89 37 89 90s-35 90 -89 90s-89 -37 -89 -90s35 -90 89 -90z" />
    <glyph glyph-name="uni0441" unicode="&#x441;" horiz-adv-x="554" 
d="M544 210c-14 -130 -124 -224 -259 -224c-153 0 -267 114 -267 264s114 264 267 264c134 0 245 -94 259 -224h-191c-8 28 -35 46 -68 46c-47 0 -82 -36 -82 -86s35 -86 82 -86c33 0 61 18 69 46h190z" />
    <glyph glyph-name="uni0442" unicode="&#x442;" horiz-adv-x="430" 
d="M425 500v-176h-116v-324h-186v324h-118v176h304h116z" />
    <glyph glyph-name="uni0443" unicode="&#x443;" horiz-adv-x="580" 
d="M370 500h210l-166 -485c-54 -159 -175 -222 -325 -215v175c66 0 99 7 121 35l-200 490h210l89 -267z" />
    <glyph glyph-name="uni045E" unicode="&#x45e;" horiz-adv-x="580" 
d="M476 699v-150h-350v150h350zM370 500h210l-166 -485c-54 -159 -175 -222 -325 -215v175c66 0 99 7 121 35l-200 490h210l89 -267z" />
    <glyph glyph-name="uni0444" unicode="&#x444;" horiz-adv-x="730" 
d="M712 250c0 -129 -80 -234 -257 -260v-190h-180v190c-177 26 -257 131 -257 260c0 127 80 232 257 258v192h180v-192c177 -26 257 -131 257 -258zM202 250c0 -42 21 -72 73 -86v172c-52 -14 -73 -44 -73 -86zM455 164c52 14 73 44 73 86s-21 72 -73 86v-172z" />
    <glyph glyph-name="uni0445" unicode="&#x445;" horiz-adv-x="530" 
d="M530 0h-195l-70 107l-70 -107h-195l168 256l-160 244h195l62 -95l62 95h195l-159 -244z" />
    <glyph glyph-name="uni0447" unicode="&#x447;" horiz-adv-x="525" 
d="M300 500h185v-500h-185v133c-31 -9 -63 -14 -95 -14c-107 0 -185 68 -185 181v200h185v-160c0 -37 19 -51 45 -51c19 0 34 3 50 10v201z" />
    <glyph glyph-name="uni0446" unicode="&#x446;" horiz-adv-x="595" 
d="M500 176h85v-290h-175v114h-370v500h185v-324h90v324h185v-324z" />
    <glyph glyph-name="uni0448" unicode="&#x448;" horiz-adv-x="770" 
d="M545 500h185v-500h-185h-250h-192h-63v500h185v-324h70v324h180v-324h70v324z" />
    <glyph glyph-name="uni0449" unicode="&#x449;" horiz-adv-x="815" 
d="M720 176h85v-176v-114h-175v114h-160h-245h-185v500h185v-324h65v324h180v-324h65v324h185v-324z" />
    <glyph glyph-name="uni045F" unicode="&#x45f;" horiz-adv-x="540" 
d="M315 500h185v-500h-142v-114h-175v114h-143v500h185v-324h90v324z" />
    <glyph glyph-name="uni044C" unicode="&#x44c;" horiz-adv-x="510" 
d="M304 370c121 0 196 -70 196 -185s-75 -185 -196 -185h-224h-40v500h185v-130h79zM281 150c24 0 39 12 39 35s-15 35 -39 35h-56v-70h56z" />
    <glyph glyph-name="uni044A" unicode="&#x44a;" horiz-adv-x="580" 
d="M374 370c121 0 196 -70 196 -185s-75 -185 -196 -185h-224h-40v326h-110v174h180h115v-130h79zM351 150c24 0 39 12 39 35s-15 35 -39 35h-56v-70h56z" />
    <glyph glyph-name="uni044B" unicode="&#x44b;" horiz-adv-x="755" 
d="M304 370c121 0 196 -70 196 -185s-75 -185 -196 -185h-224h-40v500h185v-130h79zM530 500h185v-500h-185v500zM281 150c24 0 39 12 39 35s-15 35 -39 35h-56v-70h56z" />
    <glyph glyph-name="uni0459" unicode="&#x459;" horiz-adv-x="782" 
d="M586 360c101 0 186 -65 186 -180s-85 -180 -186 -180h-214h-40v324h-65v-117c0 -162 -77 -226 -257 -215v170c50 -6 72 19 72 85v253h185h203h47v-140h69zM563 150c16 0 29 12 29 30s-13 30 -29 30h-46v-60h46z" />
    <glyph glyph-name="uni045A" unicode="&#x45a;" horiz-adv-x="755" 
d="M559 360c101 0 186 -65 186 -180s-85 -180 -186 -180h-214h-40v194h-90v-194h-185v500h185v-140h90v140h185v-140h69zM536 150c16 0 29 12 29 30s-13 30 -29 30h-46v-60h46z" />
    <glyph glyph-name="uni0455" unicode="&#x455;" horiz-adv-x="480" 
d="M206 352c0 -66 254 0 254 -202c0 -122 -108 -164 -220 -164s-220 44 -220 179h185c0 -30 12 -43 35 -43s35 9 35 26c0 62 -252 6 -252 202c0 117 108 164 215 164s211 -54 211 -177h-179c0 28 -12 41 -32 41c-18 0 -32 -9 -32 -26z" />
    <glyph glyph-name="uni0454" unicode="&#x454;" horiz-adv-x="554" 
d="M280 143c58 0 87 29 91 67h173c-14 -130 -124 -224 -259 -224c-158 0 -267 114 -267 264s109 264 267 264c134 0 245 -94 259 -224h-174c-4 33 -32 67 -90 67c-36 0 -64 -14 -81 -37h130v-140h-130c17 -23 45 -37 81 -37z" />
    <glyph glyph-name="uni044D" unicode="&#x44d;" horiz-adv-x="554" 
d="M269 514c158 0 267 -114 267 -264s-109 -264 -267 -264c-135 0 -245 94 -259 224h173c4 -38 33 -67 91 -67c36 0 64 14 81 37h-130v140h130c-17 23 -45 37 -81 37c-58 0 -86 -34 -90 -67h-174c14 130 125 224 259 224z" />
    <glyph glyph-name="uni0456" unicode="&#x456;" horiz-adv-x="265" 
d="M40 550v150h185v-150h-185zM40 0v500h185v-500h-185z" />
    <glyph glyph-name="uni0457" unicode="&#x457;" horiz-adv-x="265" 
d="M-44 545v150h150v-150h-150zM156 545v150h150v-150h-150zM40 0v500h185v-500h-185z" />
    <glyph glyph-name="uni0458" unicode="&#x458;" horiz-adv-x="280" 
d="M55 700h185v-150h-185v150zM55 0v500h185v-500c0 -158 -79 -225 -250 -216v166c45 -4 65 12 65 50z" />
    <glyph glyph-name="uni045B" unicode="&#x45b;" horiz-adv-x="550" 
d="M355 489c93 0 160 -70 160 -195v-294h-185v269c0 25 -14 42 -42 42c-35 0 -48 -25 -48 -54v-257h-185v531h-55v119h55v50h185v-50h130v-119h-130v-93c26 31 65 51 115 51z" />
    <glyph glyph-name="uni044E" unicode="&#x44e;" horiz-adv-x="798" 
d="M511 514c150 0 269 -114 269 -264s-119 -264 -269 -264c-117 0 -211 72 -245 176h-41v-162h-185v500h185v-162h40c34 104 127 176 246 176zM511 162c49 0 84 36 84 88s-35 88 -84 88s-84 -36 -84 -88s35 -88 84 -88z" />
    <glyph glyph-name="uni044F" unicode="&#x44f;" horiz-adv-x="546" 
d="M506 500v-500h-185v140h-17l-94 -140h-210l126 171c-51 32 -80 85 -80 144c0 115 75 185 196 185h264zM265 350c-24 0 -39 -12 -39 -35s15 -35 39 -35h56v70h-56z" />
    <glyph glyph-name="uni0452" unicode="&#x452;" horiz-adv-x="535" 
d="M355 489c93 0 160 -70 160 -195v-294c0 -158 -79 -225 -250 -216v166c45 -4 65 12 65 50v269c0 25 -14 42 -42 42c-35 0 -48 -25 -48 -54v-257h-185v531h-55v119h55v50h185v-50h130v-119h-130v-93c26 31 65 51 115 51z" />
    <glyph glyph-name="uni0432.loclBGR" horiz-adv-x="558" 
d="M440 405c63 -33 100 -97 100 -187c0 -143 -98 -232 -255 -232c-147 0 -245 93 -245 242v239c0 152 95 247 241 247c131 0 209 -75 209 -186c0 -48 -18 -89 -50 -123zM270 544c-28 0 -45 -21 -45 -62v-61l9 2c13 3 27 5 39 6c24 22 36 44 36 68c0 30 -13 47 -39 47z
M290 160c40 0 65 22 65 58c0 47 -35 69 -92 57l-38 -8v-39c0 -42 25 -68 65 -68z" />
    <glyph glyph-name="uni0433.loclBGR" horiz-adv-x="470" 
d="M270 165h185c0 -135 -108 -179 -220 -179s-220 42 -220 164c0 202 254 136 254 202c0 17 -14 26 -32 26c-20 0 -32 -13 -32 -41h-179c0 123 104 177 211 177s215 -47 215 -164c0 -196 -252 -140 -252 -202c0 -17 12 -26 35 -26s35 13 35 43z" />
    <glyph glyph-name="uni0434.loclBGR" horiz-adv-x="613" 
d="M388 500h185v-485c0 -166 -133 -231 -262 -231s-262 54 -262 210h185c0 -37 37 -50 77 -50s77 19 77 71v31c-30 -25 -71 -40 -124 -40c-136 0 -239 113 -239 254s103 254 239 254c53 0 94 -15 124 -40v26zM299 174c54 0 89 37 89 86s-35 86 -89 86s-89 -37 -89 -86
s35 -86 89 -86z" />
    <glyph glyph-name="uni0436.loclBGR" horiz-adv-x="789" 
d="M789 0h-202l-100 192v-192h-185v192l-100 -192h-202l144 250l-134 250h202l90 -187v387h185v-387l90 187h202l-134 -250z" />
    <glyph glyph-name="uni0438.loclBGR" horiz-adv-x="535" 
d="M310 500h185v-500h-185v37c-26 -31 -65 -51 -115 -51c-93 0 -160 70 -160 195v319h185v-294c0 -25 14 -42 42 -42c35 0 48 25 48 54v282z" />
    <glyph glyph-name="uni0439.loclBGR" horiz-adv-x="535" 
d="M440 699v-150h-350v150h350zM310 500h185v-500h-185v37c-26 -31 -65 -51 -115 -51c-93 0 -160 70 -160 195v319h185v-294c0 -25 14 -42 42 -42c35 0 48 25 48 54v282z" />
    <glyph glyph-name="uni043A.loclBGR" horiz-adv-x="550" 
d="M550 0h-205l-120 200v-200h-185v700h185v-396l110 196h205l-152 -250z" />
    <glyph glyph-name="uni043B.loclBGR" horiz-adv-x="560" 
d="M560 0h-195l-85 258l-85 -258h-195l185 500h175h15z" />
    <glyph glyph-name="uni043F.loclBGR" horiz-adv-x="535" 
d="M340 514c93 0 160 -70 160 -195v-319h-185v294c0 25 -14 42 -42 42c-35 0 -48 -25 -48 -54v-282h-185v500h185v-37c26 31 65 51 115 51z" />
    <glyph glyph-name="uni0442.loclBGR" horiz-adv-x="770" 
d="M575 514c98 0 160 -65 160 -190v-324h-185v299c0 25 -14 37 -32 37c-30 0 -38 -25 -38 -54v-282h-185v299c0 25 -14 37 -32 37c-30 0 -38 -25 -38 -54v-282h-185v500h185v-39c27 32 67 53 115 53c49 0 86 -20 110 -59c32 35 74 59 125 59z" />
    <glyph glyph-name="uni0446.loclBGR" horiz-adv-x="575" 
d="M525 166h45v-166v-114h-170v128c-24 10 -43 24 -57 42c-25 -38 -79 -70 -148 -70c-93 0 -160 70 -160 195v319h185v-294c0 -25 14 -42 42 -42c35 0 48 25 48 54v282h185v-304c0 -19 11 -30 30 -30z" />
    <glyph glyph-name="uni0448.loclBGR" horiz-adv-x="770" 
d="M545 500h185v-500h-185v39c-27 -32 -67 -53 -115 -53c-49 0 -86 20 -110 59c-32 -35 -74 -59 -125 -59c-98 0 -160 65 -160 190v324h185v-299c0 -25 14 -37 32 -37c30 0 38 25 38 54v282h185v-299c0 -25 14 -37 32 -37c30 0 38 25 38 54v282z" />
    <glyph glyph-name="uni0449.loclBGR" horiz-adv-x="810" 
d="M760 166h45v-166v-114h-170v128c-21 9 -39 21 -53 37c-31 -38 -75 -65 -142 -65c-47 0 -87 19 -114 56c-32 -34 -75 -56 -131 -56c-98 0 -160 65 -160 190v324h185v-299c0 -25 14 -37 32 -37c30 0 38 25 38 54v282h185v-299c0 -25 14 -37 32 -37c30 0 38 25 38 54v282
h185v-304c0 -19 11 -30 30 -30z" />
    <glyph glyph-name="uni044C.loclBGR" horiz-adv-x="495" 
d="M270 378c145 0 215 -82 215 -198c0 -112 -81 -196 -225 -196c-150 0 -225 79 -225 206v310h180v-122h55zM260 149c30 0 45 13 45 38c0 26 -15 40 -45 40h-45v-32c0 -30 15 -46 45 -46z" />
    <glyph glyph-name="uni044A.loclBGR" horiz-adv-x="570" 
d="M345 378c145 0 215 -82 215 -198c0 -112 -81 -196 -225 -196c-150 0 -225 79 -225 206v140h-110v170h170h120v-122h55zM335 149c30 0 45 13 45 38c0 26 -15 40 -45 40h-45v-32c0 -30 15 -46 45 -46z" />
    <glyph glyph-name="uni044E.loclBGR" horiz-adv-x="798" 
d="M511 514c150 0 269 -114 269 -264s-119 -264 -269 -264c-117 0 -211 72 -245 176h-41v-162h-185v700h185v-362h40c34 104 127 176 246 176zM511 162c49 0 84 36 84 88s-35 88 -84 88s-84 -36 -84 -88s35 -88 84 -88z" />
    <glyph glyph-name="uni0430.ss01" horiz-adv-x="606" 
d="M381 500h185v-500h-185v27c-30 -26 -71 -41 -124 -41c-136 0 -239 113 -239 264s103 264 239 264c53 0 94 -15 124 -41v27zM292 160c54 0 89 37 89 90s-35 90 -89 90s-89 -37 -89 -90s35 -90 89 -90z" />
    <glyph glyph-name="uni0443.ss01" horiz-adv-x="535" 
d="M310 500h185v-517c0 -135 -108 -199 -223 -199s-223 64 -223 194h175c0 -19 10 -37 43 -37s43 18 43 42v73c-26 -31 -65 -51 -115 -51c-93 0 -160 70 -160 195v300h185v-275c0 -25 14 -42 42 -42c35 0 48 25 48 54v263z" />
    <glyph glyph-name="uni0394" unicode="&#x394;" 
d="M442 700l228 -700h-215h-310h-155l228 700h224zM248 160h164l-82 305z" />
    <glyph glyph-name="uni03A9" unicode="&#x3a9;" horiz-adv-x="782" 
d="M762 370c0 -73 -26 -137 -70 -186h54v-184h-284v184v10c61 26 100 84 100 156c0 97 -72 170 -171 170s-171 -73 -171 -170c0 -72 39 -130 100 -156v-114v-80h-284v184h54c-44 49 -70 113 -70 186c0 207 164 346 371 346s371 -139 371 -346z" />
    <glyph glyph-name="pi" unicode="&#x3c0;" horiz-adv-x="680" 
d="M640 500v-176h-70v-324h-185v324h-90v-324h-185v324h-70v176h255h275h70z" />
    <glyph glyph-name="zero" unicode="0" horiz-adv-x="630" 
d="M315 -16c-191 0 -295 148 -295 366s104 366 295 366s295 -148 295 -366s-104 -366 -295 -366zM315 178c64 0 95 55 95 172s-31 172 -95 172s-95 -55 -95 -172s31 -172 95 -172z" />
    <glyph glyph-name="one" unicode="1" horiz-adv-x="420" 
d="M160 700h200v-700h-200v491l-160 -85v209z" />
    <glyph glyph-name="two" unicode="2" horiz-adv-x="546" 
d="M20 0v146l233 247c38 40 63 64 63 90c0 22 -13 39 -44 39c-32 0 -52 -17 -52 -50h-200c0 174 126 244 243 244c127 0 253 -70 253 -230c0 -77 -49 -146 -114 -213l-76 -79h200v-194h-506z" />
    <glyph glyph-name="three" unicode="3" horiz-adv-x="545" 
d="M376 414c87 -25 149 -91 149 -194c0 -162 -120 -236 -260 -236s-260 82 -260 244h200c0 -33 19 -50 60 -50s60 19 60 52c0 35 -19 50 -60 50h-121v116l94 110h-211v194h460v-154z" />
    <glyph glyph-name="four" unicode="4" horiz-adv-x="585" 
d="M580 282v-180h-70v-102h-196v102h-304v180l203 418h227l-205 -418h79v108h196v-108h70z" />
    <glyph glyph-name="five" unicode="5" horiz-adv-x="550" 
d="M285 449c140 0 250 -65 250 -229c0 -154 -120 -234 -260 -234c-135 0 -260 80 -260 239h200c0 -30 25 -45 60 -45s60 15 60 45c0 34 -29 47 -60 47h-234l29 428h425v-194h-238l-4 -57h32z" />
    <glyph glyph-name="six" unicode="6" horiz-adv-x="560" 
d="M337 474c131 -21 213 -116 213 -243c0 -145 -106 -247 -270 -247c-165 0 -270 102 -270 247c0 52 13 98 38 136l208 333h224zM280 163c42 0 70 21 70 68s-28 68 -70 68s-70 -21 -70 -68s28 -68 70 -68z" />
    <glyph glyph-name="seven" unicode="7" horiz-adv-x="490" 
d="M-10 700h490v-164l-208 -536h-220l196 506h-258v194z" />
    <glyph glyph-name="eight" unicode="8" horiz-adv-x="564" 
d="M454 366c63 -38 95 -99 95 -169c0 -128 -92 -211 -267 -211s-267 83 -267 211c0 70 32 131 95 169c-44 33 -71 80 -71 140c0 132 104 208 243 208s243 -76 243 -208c0 -60 -27 -107 -71 -140zM282 538c-40 0 -63 -17 -63 -51s23 -51 63 -51c36 0 63 17 63 51
s-27 51 -63 51zM282 166c42 0 67 22 67 59s-25 59 -67 59s-67 -22 -67 -59s25 -59 67 -59z" />
    <glyph glyph-name="nine" unicode="9" horiz-adv-x="560" 
d="M550 469c0 -52 -13 -98 -38 -136l-208 -333h-224l143 226c-131 21 -213 116 -213 243c0 145 106 247 270 247c165 0 270 -102 270 -247zM280 537c-42 0 -70 -21 -70 -68s28 -68 70 -68s70 21 70 68s-28 68 -70 68z" />
    <glyph glyph-name="zero.sinf" horiz-adv-x="410" 
d="M205 -174c-111 0 -190 81 -190 214s79 214 190 214s190 -81 190 -214s-79 -214 -190 -214zM205 -33c30 0 43 29 43 73s-13 73 -43 73s-43 -29 -43 -73s13 -73 43 -73z" />
    <glyph glyph-name="one.sinf" horiz-adv-x="279" 
d="M107 240h142v-400h-142v258l-97 -51v140z" />
    <glyph glyph-name="two.sinf" horiz-adv-x="351" 
d="M25 -160v102l140 131c16 15 27 28 27 40c0 11 -2 19 -16 19c-16 0 -18 -11 -18 -29h-138c0 108 70 151 153 151s157 -41 157 -133c0 -45 -23 -82 -70 -124l-36 -32h107v-125h-306z" />
    <glyph glyph-name="three.sinf" horiz-adv-x="323" 
d="M232 80c48 -17 81 -54 81 -112c0 -94 -70 -142 -154 -142s-154 48 -154 142h131c0 -11 6 -19 23 -19s23 8 23 19c0 12 -6 20 -23 20h-80v77l41 52h-99v123h267v-89z" />
    <glyph glyph-name="four.sinf" horiz-adv-x="366" 
d="M356 11v-120h-33v-51h-128v51h-190v120l110 229h147l-104 -229h37v66h128v-66h33z" />
    <glyph glyph-name="five.sinf" horiz-adv-x="330" 
d="M168 93c83 0 147 -38 147 -133c0 -90 -70 -134 -152 -134s-153 44 -153 137h131c0 -13 8 -19 22 -19c13 0 21 6 21 19s-8 23 -21 23h-146l17 254h266v-123h-149l-1 -24h18z" />
    <glyph glyph-name="six.sinf" horiz-adv-x="344" 
d="M218 115c73 -16 116 -70 116 -142c0 -86 -61 -147 -162 -147s-162 61 -162 147c0 31 8 58 22 81l110 186h148zM172 -57c18 0 31 9 31 30c0 20 -13 30 -31 30s-31 -10 -31 -30c0 -21 13 -30 31 -30z" />
    <glyph glyph-name="seven.sinf" horiz-adv-x="310" 
d="M0 240h300v-106l-107 -294h-145l101 277h-149v123z" />
    <glyph glyph-name="eight.sinf" horiz-adv-x="344" 
d="M275 49c38 -22 59 -58 59 -99c0 -75 -61 -124 -162 -124s-162 49 -162 124c0 41 21 77 59 99c-28 19 -45 47 -45 83c0 77 66 122 148 122s148 -45 148 -122c0 -36 -17 -64 -45 -83zM172 143c-16 0 -25 -8 -25 -23c0 -14 9 -21 25 -21c14 0 25 7 25 21c0 15 -11 23 -25 23
zM172 -62c22 0 32 13 32 29c0 15 -10 28 -32 28s-32 -13 -32 -28c0 -16 10 -29 32 -29z" />
    <glyph glyph-name="nine.sinf" horiz-adv-x="344" 
d="M334 107c0 -31 -8 -58 -22 -81l-110 -186h-148l72 125c-73 16 -116 70 -116 142c0 86 61 147 162 147s162 -61 162 -147zM172 137c-18 0 -31 -9 -31 -30c0 -20 13 -30 31 -30s31 10 31 30c0 21 -13 30 -31 30z" />
    <glyph glyph-name="zero.tf" horiz-adv-x="600" 
d="M300 -16c-191 0 -295 148 -295 366s104 366 295 366s295 -148 295 -366s-104 -366 -295 -366zM300 178c64 0 95 55 95 172s-31 172 -95 172s-95 -55 -95 -172s31 -172 95 -172z" />
    <glyph glyph-name="one.tf" horiz-adv-x="600" 
d="M422 194h163v-194h-363h-197v194h197v297l-164 -86v209l164 86h200v-506z" />
    <glyph glyph-name="two.tf" horiz-adv-x="600" 
d="M32 0v146l268 237c41 37 58 59 58 91c0 24 -23 48 -63 48c-45 0 -68 -27 -68 -70h-200c0 184 136 264 273 264c127 0 258 -80 258 -240c0 -77 -34 -136 -104 -198l-94 -84h213v-194h-541z" />
    <glyph glyph-name="three.tf" horiz-adv-x="600" 
d="M415 415c98 -24 160 -89 160 -195c0 -162 -115 -236 -280 -236s-280 82 -280 244h200c0 -33 24 -50 80 -50s80 19 80 52c0 35 -24 50 -80 50h-121v116l102 110h-234v194h490v-154z" />
    <glyph glyph-name="four.tf" horiz-adv-x="600" 
d="M585 282v-180h-70v-102h-196v102h-314v180l213 418h227l-213 -418h87v108h196v-108h70z" />
    <glyph glyph-name="five.tf" horiz-adv-x="600" 
d="M310 449c160 0 270 -65 270 -229c0 -154 -120 -234 -280 -234s-280 80 -280 239h200c0 -30 25 -45 80 -45s80 15 80 45c0 34 -29 47 -80 47h-249l29 428h455v-194h-270l-3 -57h48z" />
    <glyph glyph-name="six.tf" horiz-adv-x="600" 
d="M355 484c145 -19 230 -118 230 -248c0 -145 -106 -252 -285 -252c-180 0 -285 107 -285 252c0 52 13 99 39 138l1 2c1 0 1 1 2 2l218 322h225zM300 163c53 0 85 27 85 73s-32 73 -85 73s-85 -27 -85 -73s32 -73 85 -73z" />
    <glyph glyph-name="seven.tf" horiz-adv-x="600" 
d="M20 700h550v-164l-238 -536h-220l222 506h-314v194z" />
    <glyph glyph-name="eight.tf" horiz-adv-x="600" 
d="M482 366c66 -38 100 -99 100 -169c0 -128 -97 -211 -282 -211s-282 83 -282 211c0 70 34 131 100 169c-48 32 -76 80 -76 140c0 132 109 208 258 208s258 -76 258 -208c0 -60 -28 -108 -76 -140zM300 538c-51 0 -78 -17 -78 -51s27 -51 78 -51c47 0 78 17 78 51
s-31 51 -78 51zM300 166c57 0 82 23 82 59s-25 59 -82 59s-82 -23 -82 -59s25 -59 82 -59z" />
    <glyph glyph-name="nine.tf" horiz-adv-x="600" 
d="M546 326l-1 -2c-1 0 -1 -1 -2 -2l-218 -322h-225l145 216c-145 19 -230 118 -230 248c0 145 106 252 285 252c180 0 285 -107 285 -252c0 -52 -13 -99 -39 -138zM215 464c0 -46 32 -73 85 -73s85 27 85 73s-32 73 -85 73s-85 -27 -85 -73z" />
    <glyph glyph-name="fraction" unicode="&#x2044;" horiz-adv-x="180" 
d="M-50 0h-130l410 700h130z" />
    <glyph glyph-name="onehalf" unicode="&#xbd;" horiz-adv-x="810" 
d="M107 300v258l-97 -51v140l97 53h142v-400h-142zM509 700h130l-410 -700h-130zM683 125h107v-125h-306v102l140 131c16 15 27 28 27 40c0 11 -2 19 -16 19c-16 0 -18 -11 -18 -29h-138c0 108 70 151 153 151s157 -41 157 -133c0 -45 -23 -82 -70 -124z" />
    <glyph glyph-name="onequarter" unicode="&#xbc;" horiz-adv-x="825" 
d="M107 300v258l-97 -51v140l97 53h142v-400h-142zM509 700h130l-410 -700h-130zM815 171v-120h-33v-51h-128v51h-190v120l110 229h147l-104 -229h37v66h128v-66h33z" />
    <glyph glyph-name="threequarters" unicode="&#xbe;" horiz-adv-x="869" 
d="M313 428c0 -94 -70 -142 -154 -142s-154 48 -154 142h131c0 -11 6 -19 23 -19s23 8 23 19c0 12 -6 20 -23 20h-80v77l41 52h-99v123h267v-89l-56 -71c48 -17 81 -54 81 -112zM553 700h130l-410 -700h-130zM859 171v-120h-33v-51h-128v51h-190v120l110 229h147l-104 -229
h37v66h128v-66h33z" />
    <glyph glyph-name="oneeighth" unicode="&#x215b;" horiz-adv-x="803" 
d="M107 300v258l-97 -51v140l97 53h142v-400h-142zM509 700h130l-410 -700h-130zM734 209c38 -22 59 -58 59 -99c0 -75 -61 -124 -162 -124s-162 49 -162 124c0 41 21 77 59 99c-28 19 -45 47 -45 83c0 77 66 122 148 122s148 -45 148 -122c0 -36 -17 -64 -45 -83zM631 303
c-16 0 -25 -8 -25 -23c0 -14 9 -21 25 -21c14 0 25 7 25 21c0 15 -11 23 -25 23zM631 98c22 0 32 13 32 29c0 15 -10 28 -32 28s-32 -13 -32 -28c0 -16 10 -29 32 -29z" />
    <glyph glyph-name="threeeighths" unicode="&#x215c;" horiz-adv-x="847" 
d="M313 428c0 -94 -70 -142 -154 -142s-154 48 -154 142h131c0 -11 6 -19 23 -19s23 8 23 19c0 12 -6 20 -23 20h-80v77l41 52h-99v123h267v-89l-56 -71c48 -17 81 -54 81 -112zM553 700h130l-410 -700h-130zM778 209c38 -22 59 -58 59 -99c0 -75 -61 -124 -162 -124
s-162 49 -162 124c0 41 21 77 59 99c-28 19 -45 47 -45 83c0 77 66 122 148 122s148 -45 148 -122c0 -36 -17 -64 -45 -83zM675 303c-16 0 -25 -8 -25 -23c0 -14 9 -21 25 -21c14 0 25 7 25 21c0 15 -11 23 -25 23zM675 98c22 0 32 13 32 29c0 15 -10 28 -32 28
s-32 -13 -32 -28c0 -16 10 -29 32 -29z" />
    <glyph glyph-name="fiveeighths" unicode="&#x215d;" horiz-adv-x="854" 
d="M315 420c0 -90 -70 -134 -152 -134s-153 44 -153 137h131c0 -13 8 -19 22 -19c13 0 21 6 21 19s-8 23 -21 23h-146l17 254h266v-123h-149l-1 -24h18c83 0 147 -38 147 -133zM560 700h130l-410 -700h-130zM785 209c38 -22 59 -58 59 -99c0 -75 -61 -124 -162 -124
s-162 49 -162 124c0 41 21 77 59 99c-28 19 -45 47 -45 83c0 77 66 122 148 122s148 -45 148 -122c0 -36 -17 -64 -45 -83zM682 303c-16 0 -25 -8 -25 -23c0 -14 9 -21 25 -21c14 0 25 7 25 21c0 15 -11 23 -25 23zM682 98c22 0 32 13 32 29c0 15 -10 28 -32 28
s-32 -13 -32 -28c0 -16 10 -29 32 -29z" />
    <glyph glyph-name="seveneighths" unicode="&#x215e;" horiz-adv-x="834" 
d="M193 300h-145l101 277h-149v123h300v-106zM540 700h130l-410 -700h-130zM765 209c38 -22 59 -58 59 -99c0 -75 -61 -124 -162 -124s-162 49 -162 124c0 41 21 77 59 99c-28 19 -45 47 -45 83c0 77 66 122 148 122s148 -45 148 -122c0 -36 -17 -64 -45 -83zM662 303
c-16 0 -25 -8 -25 -23c0 -14 9 -21 25 -21c14 0 25 7 25 21c0 15 -11 23 -25 23zM662 98c22 0 32 13 32 29c0 15 -10 28 -32 28s-32 -13 -32 -28c0 -16 10 -29 32 -29z" />
    <glyph glyph-name="zero.dnom" horiz-adv-x="410" 
d="M205 -14c-111 0 -190 81 -190 214s79 214 190 214s190 -81 190 -214s-79 -214 -190 -214zM205 127c30 0 43 29 43 73s-13 73 -43 73s-43 -29 -43 -73s13 -73 43 -73z" />
    <glyph glyph-name="one.dnom" horiz-adv-x="279" 
d="M107 400h142v-400h-142v258l-97 -51v140z" />
    <glyph glyph-name="two.dnom" horiz-adv-x="351" 
d="M25 0v102l140 131c16 15 27 28 27 40c0 11 -2 19 -16 19c-16 0 -18 -11 -18 -29h-138c0 108 70 151 153 151s157 -41 157 -133c0 -45 -23 -82 -70 -124l-36 -32h107v-125h-306z" />
    <glyph glyph-name="three.dnom" horiz-adv-x="323" 
d="M232 240c48 -17 81 -54 81 -112c0 -94 -70 -142 -154 -142s-154 48 -154 142h131c0 -11 6 -19 23 -19s23 8 23 19c0 12 -6 20 -23 20h-80v77l41 52h-99v123h267v-89z" />
    <glyph glyph-name="four.dnom" horiz-adv-x="366" 
d="M356 171v-120h-33v-51h-128v51h-190v120l110 229h147l-104 -229h37v66h128v-66h33z" />
    <glyph glyph-name="five.dnom" horiz-adv-x="330" 
d="M168 253c83 0 147 -38 147 -133c0 -90 -70 -134 -152 -134s-153 44 -153 137h131c0 -13 8 -19 22 -19c13 0 21 6 21 19s-8 23 -21 23h-146l17 254h266v-123h-149l-1 -24h18z" />
    <glyph glyph-name="six.dnom" horiz-adv-x="344" 
d="M218 275c73 -16 116 -70 116 -142c0 -86 -61 -147 -162 -147s-162 61 -162 147c0 31 8 58 22 81l110 186h148zM172 103c18 0 31 9 31 30c0 20 -13 30 -31 30s-31 -10 -31 -30c0 -21 13 -30 31 -30z" />
    <glyph glyph-name="seven.dnom" horiz-adv-x="310" 
d="M0 400h300v-106l-107 -294h-145l101 277h-149v123z" />
    <glyph glyph-name="eight.dnom" horiz-adv-x="344" 
d="M275 209c38 -22 59 -58 59 -99c0 -75 -61 -124 -162 -124s-162 49 -162 124c0 41 21 77 59 99c-28 19 -45 47 -45 83c0 77 66 122 148 122s148 -45 148 -122c0 -36 -17 -64 -45 -83zM172 303c-16 0 -25 -8 -25 -23c0 -14 9 -21 25 -21c14 0 25 7 25 21
c0 15 -11 23 -25 23zM172 98c22 0 32 13 32 29c0 15 -10 28 -32 28s-32 -13 -32 -28c0 -16 10 -29 32 -29z" />
    <glyph glyph-name="nine.dnom" horiz-adv-x="344" 
d="M329 267c0 -31 -8 -58 -22 -81l-110 -186h-148l72 125c-73 16 -116 70 -116 142c0 86 61 147 162 147s162 -61 162 -147zM167 297c-18 0 -31 -9 -31 -30c0 -20 13 -30 31 -30s31 10 31 30c0 21 -13 30 -31 30z" />
    <glyph glyph-name="zero.numr" horiz-adv-x="410" 
d="M205 286c-111 0 -190 81 -190 214s79 214 190 214s190 -81 190 -214s-79 -214 -190 -214zM205 427c30 0 43 29 43 73s-13 73 -43 73s-43 -29 -43 -73s13 -73 43 -73z" />
    <glyph glyph-name="one.numr" horiz-adv-x="279" 
d="M107 700h142v-400h-142v258l-97 -51v140z" />
    <glyph glyph-name="two.numr" horiz-adv-x="351" 
d="M25 300v102l140 131c16 15 27 28 27 40c0 11 -2 19 -16 19c-16 0 -18 -11 -18 -29h-138c0 108 70 151 153 151s157 -41 157 -133c0 -45 -23 -82 -70 -124l-36 -32h107v-125h-306z" />
    <glyph glyph-name="three.numr" horiz-adv-x="323" 
d="M232 540c48 -17 81 -54 81 -112c0 -94 -70 -142 -154 -142s-154 48 -154 142h131c0 -11 6 -19 23 -19s23 8 23 19c0 12 -6 20 -23 20h-80v77l41 52h-99v123h267v-89z" />
    <glyph glyph-name="four.numr" horiz-adv-x="366" 
d="M356 471v-120h-33v-51h-128v51h-190v120l110 229h147l-104 -229h37v66h128v-66h33z" />
    <glyph glyph-name="five.numr" horiz-adv-x="330" 
d="M168 553c83 0 147 -38 147 -133c0 -90 -70 -134 -152 -134s-153 44 -153 137h131c0 -13 8 -19 22 -19c13 0 21 6 21 19s-8 23 -21 23h-146l17 254h266v-123h-149l-1 -24h18z" />
    <glyph glyph-name="six.numr" horiz-adv-x="344" 
d="M218 575c73 -16 116 -70 116 -142c0 -86 -61 -147 -162 -147s-162 61 -162 147c0 31 8 58 22 81l110 186h148zM172 403c18 0 31 9 31 30c0 20 -13 30 -31 30s-31 -10 -31 -30c0 -21 13 -30 31 -30z" />
    <glyph glyph-name="seven.numr" horiz-adv-x="310" 
d="M0 700h300v-106l-107 -294h-145l101 277h-149v123z" />
    <glyph glyph-name="eight.numr" horiz-adv-x="344" 
d="M275 509c38 -22 59 -58 59 -99c0 -75 -61 -124 -162 -124s-162 49 -162 124c0 41 21 77 59 99c-28 19 -45 47 -45 83c0 77 66 122 148 122s148 -45 148 -122c0 -36 -17 -64 -45 -83zM172 603c-16 0 -25 -8 -25 -23c0 -14 9 -21 25 -21c14 0 25 7 25 21
c0 15 -11 23 -25 23zM172 398c22 0 32 13 32 29c0 15 -10 28 -32 28s-32 -13 -32 -28c0 -16 10 -29 32 -29z" />
    <glyph glyph-name="nine.numr" horiz-adv-x="344" 
d="M329 567c0 -31 -8 -58 -22 -81l-110 -186h-148l72 125c-73 16 -116 70 -116 142c0 86 61 147 162 147s162 -61 162 -147zM167 597c-18 0 -31 -9 -31 -30c0 -20 13 -30 31 -30s31 10 31 30c0 21 -13 30 -31 30z" />
    <glyph glyph-name="zero.sups" horiz-adv-x="410" 
d="M205 446c-111 0 -190 81 -190 214s79 214 190 214s190 -81 190 -214s-79 -214 -190 -214zM205 587c30 0 43 29 43 73s-13 73 -43 73s-43 -29 -43 -73s13 -73 43 -73z" />
    <glyph glyph-name="one.sups" horiz-adv-x="279" 
d="M107 860h142v-400h-142v258l-97 -51v140z" />
    <glyph glyph-name="two.sups" horiz-adv-x="351" 
d="M25 460v102l140 131c16 15 27 28 27 40c0 11 -2 19 -16 19c-16 0 -18 -11 -18 -29h-138c0 108 70 151 153 151s157 -41 157 -133c0 -45 -23 -82 -70 -124l-36 -32h107v-125h-306z" />
    <glyph glyph-name="three.sups" horiz-adv-x="323" 
d="M232 700c48 -17 81 -54 81 -112c0 -94 -70 -142 -154 -142s-154 48 -154 142h131c0 -11 6 -19 23 -19s23 8 23 19c0 12 -6 20 -23 20h-80v77l41 52h-99v123h267v-89z" />
    <glyph glyph-name="four.sups" horiz-adv-x="366" 
d="M356 631v-120h-33v-51h-128v51h-190v120l110 229h147l-104 -229h37v66h128v-66h33z" />
    <glyph glyph-name="five.sups" horiz-adv-x="330" 
d="M168 713c83 0 147 -38 147 -133c0 -90 -70 -134 -152 -134s-153 44 -153 137h131c0 -13 8 -19 22 -19c13 0 21 6 21 19s-8 23 -21 23h-146l17 254h266v-123h-149l-1 -24h18z" />
    <glyph glyph-name="six.sups" horiz-adv-x="344" 
d="M218 735c73 -16 116 -70 116 -142c0 -86 -61 -147 -162 -147s-162 61 -162 147c0 31 8 58 22 81l110 186h148zM172 563c18 0 31 9 31 30c0 20 -13 30 -31 30s-31 -10 -31 -30c0 -21 13 -30 31 -30z" />
    <glyph glyph-name="seven.sups" horiz-adv-x="310" 
d="M0 860h300v-106l-107 -294h-145l101 277h-149v123z" />
    <glyph glyph-name="eight.sups" horiz-adv-x="344" 
d="M275 669c38 -22 59 -58 59 -99c0 -75 -61 -124 -162 -124s-162 49 -162 124c0 41 21 77 59 99c-28 19 -45 47 -45 83c0 77 66 122 148 122s148 -45 148 -122c0 -36 -17 -64 -45 -83zM172 763c-16 0 -25 -8 -25 -23c0 -14 9 -21 25 -21c14 0 25 7 25 21
c0 15 -11 23 -25 23zM172 558c22 0 32 13 32 29c0 15 -10 28 -32 28s-32 -13 -32 -28c0 -16 10 -29 32 -29z" />
    <glyph glyph-name="nine.sups" horiz-adv-x="344" 
d="M329 727c0 -31 -8 -58 -22 -81l-110 -186h-148l72 125c-73 16 -116 70 -116 142c0 86 61 147 162 147s162 -61 162 -147zM167 757c-18 0 -31 -9 -31 -30c0 -20 13 -30 31 -30s31 10 31 30c0 21 -13 30 -31 30z" />
    <glyph glyph-name="asterisk" unicode="*" horiz-adv-x="410" 
d="M370 601v-104l-92 10l58 -71l-88 -54l-43 79l-43 -79l-88 54l58 71l-92 -10v104l92 -10l-58 71l88 54l43 -79l43 79l88 -54l-58 -71z" />
    <glyph glyph-name="backslash" unicode="\" horiz-adv-x="520" 
d="M420 -100l-400 900h80l400 -900h-80z" />
    <glyph glyph-name="periodcentered" unicode="&#xb7;" horiz-adv-x="300" 
d="M50 255v200h200v-200h-200z" />
    <glyph glyph-name="bullet" unicode="&#x2022;" horiz-adv-x="420" 
d="M211 170c-100 0 -181 81 -181 181c0 99 81 179 181 179c99 0 179 -80 179 -179c0 -100 -80 -181 -179 -181z" />
    <glyph glyph-name="colon" unicode=":" horiz-adv-x="300" 
d="M50 300v200h200v-200h-200zM50 0v200h200v-200h-200z" />
    <glyph glyph-name="comma" unicode="," horiz-adv-x="300" 
d="M50 200h200v-200c0 -100 -68 -171 -200 -171v72c78 0 104 37 104 99h-104v200z" />
    <glyph glyph-name="ellipsis" unicode="&#x2026;" horiz-adv-x="820" 
d="M50 0v200h200v-200h-200zM310 0v200h200v-200h-200zM570 0v200h200v-200h-200z" />
    <glyph glyph-name="exclam" unicode="!" horiz-adv-x="310" 
d="M75 260l-35 240v200h230v-200l-35 -240h-160zM55 0v200h200v-200h-200z" />
    <glyph glyph-name="exclamdown" unicode="&#xa1;" horiz-adv-x="310" 
d="M55 500h200v-200h-200v200zM75 240h160l35 -240v-200h-230v200z" />
    <glyph glyph-name="numbersign" unicode="#" horiz-adv-x="643" 
d="M602 380h-95l-10 -60h96l-21 -130h-97l-23 -140h-144l23 140h-72l-23 -140h-144l23 140h-95l21 130h96l10 60h-96l21 130h97l23 140h144l-23 -140h72l23 140h144l-23 -140h94zM353 320l10 60h-72l-10 -60h72z" />
    <glyph glyph-name="period" unicode="." horiz-adv-x="300" 
d="M50 0v200h200v-200h-200z" />
    <glyph glyph-name="question" unicode="?" horiz-adv-x="540" 
d="M165 260c0 127 145 169 145 235c0 21 -18 35 -52 35c-43 0 -58 -22 -58 -48h-190c0 154 117 234 258 234c132 0 242 -70 242 -205c0 -145 -165 -186 -165 -251h-180zM155 0v200h200v-200h-200z" />
    <glyph glyph-name="questiondown" unicode="&#xbf;" horiz-adv-x="540" 
d="M385 500v-200h-200v200h200zM375 240c0 -127 -145 -169 -145 -235c0 -21 18 -35 52 -35c43 0 58 22 58 48h190c0 -154 -117 -234 -258 -234c-132 0 -242 70 -242 205c0 145 165 186 165 251h180z" />
    <glyph glyph-name="quotedbl" unicode="&#x22;" horiz-adv-x="490" 
d="M70 420l-20 280h170l-20 -280h-130zM290 420l-20 280h170l-20 -280h-130z" />
    <glyph glyph-name="quotesingle" unicode="'" horiz-adv-x="270" 
d="M70 420l-20 280h170l-20 -280h-130z" />
    <glyph glyph-name="semicolon" unicode=";" horiz-adv-x="300" 
d="M50 500h200v-200h-200v200zM50 0v200h200v-200c0 -100 -68 -171 -200 -171v72c78 0 104 37 104 99h-104z" />
    <glyph glyph-name="slash" unicode="/" horiz-adv-x="520" 
d="M100 -100h-80l400 900h80z" />
    <glyph glyph-name="underscore" unicode="_" horiz-adv-x="510" 
d="M20 -191v174h470v-174h-470z" />
    <glyph glyph-name="braceleft" unicode="{" horiz-adv-x="345" 
d="M345 -107c-163 -10 -240 66 -240 196v125c0 42 -27 54 -75 50v175c48 -4 75 8 75 50v125c0 130 77 206 240 196v-166c-38 4 -55 -8 -55 -30v-125c0 -71 -28 -115 -83 -137c55 -23 83 -67 83 -138v-125c0 -22 17 -34 55 -30v-166z" />
    <glyph glyph-name="braceright" unicode="}" horiz-adv-x="345" 
d="M0 -107v166c38 -4 55 8 55 30v125c0 71 28 115 83 138c-55 22 -83 66 -83 137v125c0 22 -17 34 -55 30v166c163 10 240 -66 240 -196v-125c0 -42 27 -54 75 -50v-175c-48 4 -75 -8 -75 -50v-125c0 -130 -77 -206 -240 -196z" />
    <glyph glyph-name="bracketleft" unicode="[" horiz-adv-x="320" 
d="M320 624h-95v-548h95v-176h-210h-70v900h185h95v-176z" />
    <glyph glyph-name="bracketright" unicode="]" horiz-adv-x="320" 
d="M280 800v-900h-185h-95v176h95v548h-95v176h280z" />
    <glyph glyph-name="parenleft" unicode="(" horiz-adv-x="335" 
d="M150 -100c-70 140 -110 290 -110 450s40 310 110 450h185c-70 -140 -110 -290 -110 -450s40 -310 110 -450h-185z" />
    <glyph glyph-name="parenright" unicode=")" horiz-adv-x="335" 
d="M185 -100h-185c70 140 110 290 110 450s-40 310 -110 450h185c70 -140 110 -290 110 -450s-40 -310 -110 -450z" />
    <glyph glyph-name="emdash" unicode="&#x2014;" horiz-adv-x="740" 
d="M50 217v174h640v-174h-640z" />
    <glyph glyph-name="endash" unicode="&#x2013;" horiz-adv-x="640" 
d="M50 217v174h540v-174h-540z" />
    <glyph glyph-name="hyphen" unicode="-" horiz-adv-x="500" 
d="M50 217v174h400v-174h-400z" />
    <glyph glyph-name="guillemotleft" unicode="&#xab;" horiz-adv-x="577" 
d="M317 509l-115 -200l115 -200h-152l-115 200l115 200h152zM527 509l-115 -200l115 -200h-152l-115 200l115 200h152z" />
    <glyph glyph-name="guillemotright" unicode="&#xbb;" horiz-adv-x="577" 
d="M202 509l115 -200l-115 -200h-152l115 200l-115 200h152zM412 509l115 -200l-115 -200h-152l115 200l-115 200h152z" />
    <glyph glyph-name="guilsinglleft" unicode="&#x2039;" horiz-adv-x="367" 
d="M317 509l-115 -200l115 -200h-152l-115 200l115 200h152z" />
    <glyph glyph-name="guilsinglright" unicode="&#x203a;" horiz-adv-x="367" 
d="M202 509l115 -200l-115 -200h-152l115 200l-115 200h152z" />
    <glyph glyph-name="quotedblbase" unicode="&#x201e;" horiz-adv-x="550" 
d="M50 0v200h200v-200c0 -100 -68 -171 -200 -171v72c78 0 104 37 104 99h-104zM300 200h200v-200c0 -100 -68 -171 -200 -171v72c78 0 104 37 104 99h-104v200z" />
    <glyph glyph-name="quotedblleft" unicode="&#x201c;" horiz-adv-x="550" 
d="M50 536c0 100 68 171 200 171v-72c-78 0 -104 -37 -104 -99h104v-200h-200v200zM500 635c-78 0 -104 -37 -104 -99h104v-200h-200v200c0 100 68 171 200 171v-72z" />
    <glyph glyph-name="quotedblright" unicode="&#x201d;" horiz-adv-x="550" 
d="M50 500v200h200v-200c0 -100 -68 -171 -200 -171v72c78 0 104 37 104 99h-104zM300 700h200v-200c0 -100 -68 -171 -200 -171v72c78 0 104 37 104 99h-104v200z" />
    <glyph glyph-name="quoteleft" unicode="&#x2018;" horiz-adv-x="300" 
d="M250 635c-78 0 -104 -37 -104 -99h104v-200h-200v200c0 100 68 171 200 171v-72z" />
    <glyph glyph-name="quoteright" unicode="&#x2019;" horiz-adv-x="300" 
d="M50 700h200v-200c0 -100 -68 -171 -200 -171v72c78 0 104 37 104 99h-104v200z" />
    <glyph glyph-name="quotesinglbase" unicode="&#x201a;" horiz-adv-x="300" 
d="M50 200h200v-200c0 -100 -68 -171 -200 -171v72c78 0 104 37 104 99h-104v200z" />
    <glyph glyph-name="space" unicode=" " horiz-adv-x="200" 
 />
    <glyph glyph-name="cent" unicode="&#xa2;" horiz-adv-x="549" 
d="M285 264c33 0 61 18 69 46h190c-14 -130 -124 -224 -259 -224c-22 0 -42 2 -62 7l-30 -93h-65l36 112c-88 43 -146 131 -146 238c0 150 114 264 267 264c14 0 27 -1 40 -3l29 89h65l-34 -105c86 -33 149 -109 159 -205h-191c-4 14 -12 25 -24 33l-51 -159h7zM203 350
c0 -23 7 -43 19 -57l46 141c-38 -7 -65 -40 -65 -84z" />
    <glyph glyph-name="currency" unicode="&#xa4;" horiz-adv-x="526" 
d="M480 350c0 -49 -16 -93 -44 -128l70 -69l-46 -46l-71 71c-35 -24 -79 -38 -126 -38s-91 14 -126 38l-71 -71l-46 46l69 69c-27 35 -43 79 -43 128s16 93 43 128l-69 69l46 46l71 -71c35 24 79 38 126 38s91 -14 126 -38l71 71l46 -46l-70 -69c28 -35 44 -79 44 -128z
M263 308c27 0 43 17 43 42s-16 42 -43 42s-43 -17 -43 -42s16 -42 43 -42z" />
    <glyph glyph-name="dollar" unicode="$" horiz-adv-x="560" 
d="M550 204c0 -136 -99 -211 -235 -219v-85h-70v86c-137 12 -235 84 -235 242h195c0 -40 14 -60 40 -68v111l-4 1c-95 33 -224 78 -224 224c0 135 96 210 228 219v85h70v-86c122 -13 217 -84 217 -232h-185c0 28 -9 49 -32 58v-105c10 -3 21 -6 31 -10
c93 -32 204 -79 204 -221zM213 505c0 -21 12 -35 32 -45v83c-25 -6 -32 -20 -32 -38zM315 158c25 5 37 19 37 38c0 25 -15 39 -37 50v-88z" />
    <glyph glyph-name="Euro" unicode="&#x20ac;" 
d="M444 274h201c-12 -176 -112 -290 -280 -290c-159 0 -257 102 -286 262h-69v84h60v20v18h-60v84h68c29 161 128 264 287 264c165 0 265 -111 279 -282h-201c-3 60 -32 88 -78 88c-41 0 -69 -23 -83 -70h123v-84h-135v-18v-20h135v-84h-122c14 -46 41 -68 82 -68
c48 0 77 31 79 96z" />
    <glyph glyph-name="florin" unicode="&#x192;" horiz-adv-x="482" 
d="M186 538c27 157 156 199 296 169v-180c-44 18 -91 -1 -100 -52l-6 -37h65v-176h-95l-50 -292c-27 -157 -156 -199 -296 -169v180c44 -18 91 1 100 52l39 229h-58v176h88z" />
    <glyph glyph-name="uni20BD" unicode="&#x20bd;" horiz-adv-x="615" 
d="M350 233h-80v-39h200v-100h-200v-93h-200v93h-60v100h60v39h-60v180h60v288h200h80c141 0 255 -85 255 -231c0 -166 -114 -237 -255 -237zM270 507v-94h80c30 0 55 11 55 47s-25 47 -55 47h-80z" />
    <glyph glyph-name="sterling" unicode="&#xa3;" horiz-adv-x="580" 
d="M277 194h293v-194h-550v194h57v61h-47v140h47v97c0 154 126 224 240 224s240 -70 240 -224v-50h-200v50c0 17 -11 36 -40 36s-40 -19 -40 -36v-97h183v-140h-183v-61z" />
    <glyph glyph-name="yen" unicode="&#xa5;" horiz-adv-x="654" 
d="M654 700l-184 -323h107v-100h-150v-42h150v-100h-150v-135h-200v135h-150v100h150v42h-150v100h107l-184 323h222l105 -212l105 212h222z" />
    <glyph glyph-name="cent.tf" horiz-adv-x="600" 
d="M314 264c33 0 61 18 69 46h190c-14 -130 -124 -224 -259 -224c-22 0 -42 2 -62 7l-30 -93h-65l36 112c-88 43 -146 131 -146 238c0 150 114 264 267 264c14 0 27 -1 40 -3l29 89h65l-34 -105c86 -33 149 -109 159 -205h-191c-4 14 -12 25 -24 33l-51 -159h7zM232 350
c0 -23 7 -43 19 -57l46 141c-38 -7 -65 -40 -65 -84z" />
    <glyph glyph-name="dollar.tf" horiz-adv-x="600" 
d="M580 204c0 -137 -100 -211 -245 -219v-85h-70v86c-145 11 -245 84 -245 242h195c0 -43 16 -62 50 -70v113l-4 1c-105 33 -234 78 -234 224c0 136 97 210 238 219v85h70v-86c131 -12 227 -83 227 -232h-185c0 30 -11 52 -42 60v-105c14 -4 28 -7 41 -12
c93 -32 204 -79 204 -221zM223 505c0 -22 17 -36 42 -46v85c-34 -6 -42 -20 -42 -39zM335 157c33 5 47 19 47 39c0 26 -19 41 -47 52v-91z" />
    <glyph glyph-name="Euro.tf" horiz-adv-x="600" 
d="M394 274h191c-2 -176 -102 -290 -260 -290c-146 0 -243 102 -271 262h-49v84h40v20v18h-40v84h48c28 161 125 264 272 264c155 0 255 -111 259 -282h-191c-3 60 -32 88 -68 88c-31 0 -56 -23 -69 -70h99v-84h-110v-18v-20h110v-84h-98c13 -46 37 -68 68 -68
c38 0 67 31 69 96z" />
    <glyph glyph-name="florin.tf" horiz-adv-x="600" 
d="M590 527c-74 18 -126 -1 -138 -51l-9 -38h107v-176h-147l-68 -292c-36 -156 -185 -199 -325 -169v180c74 -18 117 3 129 52l57 229h-106v176h150l25 100c39 155 185 199 325 169v-180z" />
    <glyph glyph-name="uni20BD.tf" horiz-adv-x="600" 
d="M335 233h-70v-39h190v-100h-190v-93h-200v93h-55v100h55v39h-55v180h55v288h200h70c141 0 255 -85 255 -231c0 -166 -114 -237 -255 -237zM265 507v-94h70c30 0 55 11 55 47s-25 47 -55 47h-70z" />
    <glyph glyph-name="sterling.tf" horiz-adv-x="600" 
d="M267 194h313v-194h-570v194h57v61h-47v140h47v97c0 154 126 224 250 224s250 -70 250 -224v-50h-200v40c0 27 -15 46 -50 46s-50 -19 -50 -46v-87h203v-140h-203v-61z" />
    <glyph glyph-name="yen.tf" horiz-adv-x="600" 
d="M600 700l-166 -323h116v-100h-150v-42h150v-100h-150v-135h-200v135h-150v100h150v42h-150v100h116l-166 323h222l78 -190l78 190h222z" />
    <glyph glyph-name="approxequal" unicode="&#x2248;" horiz-adv-x="578" 
d="M289 372c-90 40 -140 25 -192 -9l-67 50c30 154 131 205 259 147c92 -42 113 -43 129 17l130 -59c-30 -154 -131 -204 -259 -146zM160 119l-130 59c30 154 131 204 259 146c90 -40 140 -25 192 9l67 -50c-30 -154 -131 -205 -259 -147c-92 42 -113 43 -129 -17z" />
    <glyph glyph-name="asciitilde" unicode="~" horiz-adv-x="612" 
d="M438 471l144 -65c-33 -160 -148 -222 -276 -162c-92 43 -115 38 -132 -19l-144 65c33 160 148 222 276 162c91 -43 114 -38 132 19z" />
    <glyph glyph-name="divide" unicode="&#xf7;" horiz-adv-x="540" 
d="M270 462c-57 0 -100 43 -100 100s43 100 100 100s100 -43 100 -100s-43 -100 -100 -100zM30 260v180h480v-180h-480zM270 38c-57 0 -100 43 -100 100s43 100 100 100s100 -43 100 -100s-43 -100 -100 -100z" />
    <glyph glyph-name="emptyset" unicode="&#x2205;" horiz-adv-x="804" 
d="M659 605c65 -66 105 -156 105 -255c0 -200 -162 -362 -362 -362c-60 0 -117 15 -166 40l-36 -48h-140l85 115c-65 66 -105 156 -105 255c0 200 162 362 362 362c60 0 117 -15 166 -40l36 48h140zM170 350c0 -57 20 -109 53 -149l268 365c-27 12 -57 18 -89 18
c-129 0 -232 -104 -232 -234zM402 116c129 0 232 104 232 234c0 57 -20 109 -53 149l-268 -365c27 -12 57 -18 89 -18z" />
    <glyph glyph-name="equal" unicode="=" horiz-adv-x="500" 
d="M30 375v180h440v-180h-440zM30 145v180h440v-180h-440z" />
    <glyph glyph-name="greater" unicode="&#x3e;" horiz-adv-x="510" 
d="M30 630l450 -195v-170l-450 -195v194l260 86l-260 86v194z" />
    <glyph glyph-name="greaterequal" unicode="&#x2265;" horiz-adv-x="510" 
d="M30 700l450 -145v-210l-450 -145v194l280 56l-280 56v194zM30 0v180h450v-180h-450z" />
    <glyph glyph-name="infinity" unicode="&#x221e;" horiz-adv-x="830" 
d="M597 555c117 0 203 -85 203 -205s-86 -205 -203 -205c-79 0 -138 43 -182 91c-44 -48 -103 -91 -182 -91c-117 0 -203 85 -203 205s86 205 203 205c79 0 138 -43 182 -91c44 48 103 91 182 91zM258 315c20 0 45 11 68 35c-23 24 -48 35 -68 35c-18 0 -38 -10 -38 -35
s20 -35 38 -35zM572 315c18 0 38 10 38 35s-20 35 -38 35c-20 0 -45 -11 -68 -35c23 -24 48 -35 68 -35z" />
    <glyph glyph-name="integral" unicode="&#x222b;" horiz-adv-x="482" 
d="M0 -204v180c44 -18 91 1 100 52l86 505c27 157 156 199 296 169v-180c-44 18 -91 -1 -100 -52l-86 -505c-27 -157 -156 -199 -296 -169z" />
    <glyph glyph-name="less" unicode="&#x3c;" horiz-adv-x="510" 
d="M480 630v-194l-260 -86l260 -86v-194l-450 195v170z" />
    <glyph glyph-name="lessequal" unicode="&#x2264;" horiz-adv-x="510" 
d="M480 700v-194l-280 -56l280 -56v-194l-450 145v210zM30 0v180h450v-180h-450z" />
    <glyph glyph-name="logicalnot" unicode="&#xac;" horiz-adv-x="580" 
d="M30 440h520v-180v-120h-190v120h-330v180z" />
    <glyph glyph-name="uni00B5" unicode="&#xb5;" horiz-adv-x="555" 
d="M530 160h15v-160h-80c-43 0 -78 12 -103 33c-26 -28 -64 -47 -112 -47c-9 0 -17 1 -25 2v-188h-185v700h185v-294c0 -25 14 -42 42 -42c35 0 48 25 48 54v282h185v-310c0 -19 11 -30 30 -30z" />
    <glyph glyph-name="minus" unicode="&#x2212;" horiz-adv-x="560" 
d="M30 260v180h500v-180h-500z" />
    <glyph glyph-name="multiply" unicode="&#xd7;" horiz-adv-x="553" 
d="M523 469l-119 -119l119 -119l-127 -128l-119 120l-120 -120l-127 128l119 119l-119 119l127 128l120 -119l119 119z" />
    <glyph glyph-name="notequal" unicode="&#x2260;" horiz-adv-x="500" 
d="M470 375h-169l-22 -50h191v-180h-269l-41 -95h-80l41 95h-91v180h169l22 50h-191v180h269l41 95h80l-41 -95h91v-180z" />
    <glyph glyph-name="partialdiff" unicode="&#x2202;" horiz-adv-x="581" 
d="M237 716c167 0 304 -141 304 -366c0 -244 -119 -366 -295 -366c-142 0 -226 98 -226 216c0 135 90 235 231 235c34 0 66 -7 94 -18c-17 92 -68 123 -129 125c-46 1 -83 -10 -120 -31v169c39 25 82 36 141 36zM260 154c42 0 72 35 84 104c-24 12 -49 17 -73 17
c-39 0 -66 -26 -66 -65c0 -32 25 -56 55 -56z" />
    <glyph glyph-name="percent" unicode="%" horiz-adv-x="918" 
d="M225 336c-112 0 -195 85 -195 190s83 190 195 190c110 0 193 -85 193 -190s-83 -190 -193 -190zM120 0l521 700h158l-522 -700h-157zM224 486c23 0 39 19 39 40c0 22 -16 40 -39 40c-22 0 -38 -18 -38 -40s16 -40 38 -40zM695 -16c-112 0 -195 85 -195 190
s83 190 195 190c110 0 193 -85 193 -190s-83 -190 -193 -190zM694 134c23 0 39 19 39 40c0 22 -16 40 -39 40c-22 0 -38 -18 -38 -40s16 -40 38 -40z" />
    <glyph glyph-name="perthousand" unicode="&#x2030;" horiz-adv-x="1343" 
d="M225 336c-112 0 -195 85 -195 190s83 190 195 190c110 0 193 -85 193 -190s-83 -190 -193 -190zM120 0l521 700h158l-522 -700h-157zM224 486c23 0 39 19 39 40c0 22 -16 40 -39 40c-22 0 -38 -18 -38 -40s16 -40 38 -40zM695 -16c-112 0 -195 85 -195 190
s83 190 195 190c110 0 193 -85 193 -190s-83 -190 -193 -190zM1120 -16c-112 0 -195 85 -195 190s83 190 195 190c110 0 193 -85 193 -190s-83 -190 -193 -190zM694 134c23 0 39 19 39 40c0 22 -16 40 -39 40c-22 0 -38 -18 -38 -40s16 -40 38 -40zM1119 134
c23 0 39 19 39 40c0 22 -16 40 -39 40c-22 0 -38 -18 -38 -40s16 -40 38 -40z" />
    <glyph glyph-name="plus" unicode="+" horiz-adv-x="560" 
d="M530 440v-180h-160v-160h-180v160h-160v180h160v160h180v-160h160z" />
    <glyph glyph-name="plusminus" unicode="&#xb1;" horiz-adv-x="560" 
d="M370 540h160v-180h-160v-130h-180v130h-160v180h160v130h180v-130zM30 0v180h500v-180h-500z" />
    <glyph glyph-name="product" unicode="&#x220f;" horiz-adv-x="620" 
d="M50 -200v900h520v-900h-185v724h-150v-724h-185z" />
    <glyph glyph-name="radical" unicode="&#x221a;" horiz-adv-x="700" 
d="M241 0l-108 172h-113v172h218l77 -133l195 589h190l-280 -800h-179z" />
    <glyph glyph-name="summation" unicode="&#x2211;" horiz-adv-x="550" 
d="M20 -200v155l186 305l-171 284v156h470v-184h-238l154 -256l-168 -276h267v-184h-500z" />
    <glyph glyph-name="arrowup" unicode="&#x2191;" 
d="M630 400v-238l-207 207v-369h-185v370l-208 -208v238l300 300z" />
    <glyph glyph-name="uni2197" unicode="&#x2197;" 
d="M206 632h424v-424l-168 -168v293l-301 -301l-131 131l302 301h-294z" />
    <glyph glyph-name="arrowright" unicode="&#x2192;" horiz-adv-x="780" 
d="M450 650l300 -300l-300 -300h-238l212 212h-394v175h395l-213 213h238z" />
    <glyph glyph-name="uni2198" unicode="&#x2198;" 
d="M462 654l168 -168v-424h-424l-168 168h294l-302 301l131 131l301 -301v293z" />
    <glyph glyph-name="arrowdown" unicode="&#x2193;" 
d="M423 331l207 207v-238l-300 -300l-300 300v238l208 -208v370h185v-369z" />
    <glyph glyph-name="uni2199" unicode="&#x2199;" 
d="M630 531l-302 -301h294l-168 -168h-424v424l168 168v-293l301 301z" />
    <glyph glyph-name="arrowleft" unicode="&#x2190;" horiz-adv-x="780" 
d="M750 437v-175h-394l212 -212h-238l-300 300l300 300h238l-213 -213h395z" />
    <glyph glyph-name="uni2196" unicode="&#x2196;" 
d="M630 163l-131 -131l-301 301v-293l-168 168v424h424l168 -168h-294z" />
    <glyph glyph-name="arrowboth" unicode="&#x2194;" horiz-adv-x="1180" 
d="M860 640l290 -290l-290 -290h-238l202 202h-468l202 -202h-238l-290 290l290 290h238l-203 -203h470l-203 203h238z" />
    <glyph glyph-name="arrowupdn" unicode="&#x2195;" horiz-adv-x="640" 
d="M610 372l-197 197v-438l197 197v-238l-290 -290l-290 290v238l198 -198v440l-198 -198v238l290 290l290 -290v-238z" />
    <glyph glyph-name="lozenge" unicode="&#x25ca;" horiz-adv-x="620" 
d="M216 0l-186 350l186 350h188l186 -350l-186 -350h-188zM310 212l73 138l-73 138l-73 -138z" />
    <glyph glyph-name="bar" unicode="|" horiz-adv-x="285" 
d="M50 -200v920h185v-920h-185z" />
    <glyph glyph-name="brokenbar" unicode="&#xa6;" horiz-adv-x="285" 
d="M50 350v370h185v-370h-185zM50 -200v370h185v-370h-185z" />
    <glyph glyph-name="at" unicode="@" horiz-adv-x="764" 
d="M389 612c223 0 350 -177 350 -342c0 -143 -51 -229 -168 -229c-75 0 -126 35 -145 86c-23 -27 -55 -42 -94 -42c-94 0 -152 70 -152 165s58 165 152 165c34 0 64 -12 86 -33v21h152v-236c0 -38 10 -60 44 -60c39 0 75 39 75 163c0 166 -130 296 -300 296
c-177 0 -314 -138 -314 -316c0 -183 140 -316 332 -316c56 0 100 6 143 20v-49c-40 -11 -87 -17 -143 -17c-218 0 -382 152 -382 362c0 200 156 362 364 362zM375 203c26 0 42 20 42 47c0 28 -16 47 -42 47s-43 -19 -43 -47c0 -27 17 -47 43 -47z" />
    <glyph glyph-name="ampersand" unicode="&#x26;" horiz-adv-x="744" 
d="M744 0h-225l-30 29c-52 -28 -114 -45 -186 -45c-181 0 -273 100 -273 215c0 78 35 139 107 184c-24 35 -40 73 -40 118c0 130 100 215 247 215c136 0 253 -70 253 -234h-200c0 26 -15 48 -53 48c-30 0 -47 -18 -47 -41c0 -24 19 -47 55 -84l120 -124c6 23 9 47 9 73h200
c0 -73 -24 -151 -70 -216zM311 150c17 0 33 2 47 6l-108 105c-13 -15 -19 -31 -19 -47c0 -34 30 -64 80 -64z" />
    <glyph glyph-name="paragraph" unicode="&#xb6;" horiz-adv-x="760" 
d="M740 700v-194h-72v-706h-180v706h-58v-706h-180v440c-128 0 -230 104 -230 230c0 128 102 230 230 230h180h238h72z" />
    <glyph glyph-name="copyright" unicode="&#xa9;" horiz-adv-x="774" 
d="M387 -12c-200 0 -362 162 -362 362s162 362 362 362s362 -162 362 -362s-162 -362 -362 -362zM387 34c172 0 312 141 312 316s-140 316 -312 316s-312 -141 -312 -316s140 -316 312 -316zM390 153c-109 0 -199 90 -199 197s90 197 199 197c91 0 174 -63 193 -171h-153
c-7 11 -21 24 -44 24c-31 0 -50 -24 -50 -50s19 -50 50 -50c23 0 37 13 44 24h153c-19 -108 -102 -171 -193 -171z" />
    <glyph glyph-name="registered" unicode="&#xae;" horiz-adv-x="774" 
d="M387 712c200 0 362 -162 362 -362s-162 -362 -362 -362s-362 162 -362 362s162 362 362 362zM387 34c172 0 312 141 312 316s-140 316 -312 316s-312 -141 -312 -316s140 -316 312 -316zM566 406c0 -47 -18 -85 -46 -112l86 -129h-151l-60 92h-21v-92h-142v370h142h52
c74 0 140 -52 140 -129zM396 415h-22v-48h22c16 0 28 6 28 24s-12 24 -28 24z" />
    <glyph glyph-name="section" unicode="&#xa7;" horiz-adv-x="557" 
d="M527 290c0 -55 -23 -97 -60 -126c18 -27 30 -61 30 -106c0 -128 -108 -170 -220 -170s-220 44 -220 185h185c0 -34 12 -49 35 -49s35 11 35 32c0 39 -62 55 -128 82c-74 30 -154 75 -154 182c0 55 23 97 60 126c-18 27 -30 61 -30 106c0 117 108 164 215 164
s211 -54 211 -180h-179c0 27 -13 44 -34 44c-17 0 -30 -9 -30 -26c0 -41 71 -57 142 -87c71 -31 142 -76 142 -177zM210 335c0 -28 28 -43 66 -59c20 -8 43 -16 66 -25c3 8 5 16 5 24c0 25 -23 40 -55 54c-22 10 -50 19 -77 30c-3 -8 -5 -16 -5 -24z" />
    <glyph glyph-name="trademark" unicode="&#x2122;" horiz-adv-x="476" 
d="M193 700v-77h-41v-123h-80v123h-42v77h163zM446 700v-200h-77v82l-28 -50h-29l-25 46v-78h-77v200h77l41 -79v-1l41 80h77z" />
    <glyph glyph-name="degree" unicode="&#xb0;" horiz-adv-x="426" 
d="M213 450c-106 0 -183 82 -183 180c0 100 77 180 183 180s183 -80 183 -180c0 -98 -75 -180 -183 -180zM213 590c24 0 39 16 39 40c0 23 -16 40 -39 40s-39 -17 -39 -40s16 -40 39 -40z" />
    <glyph glyph-name="estimated" unicode="&#x212e;" horiz-adv-x="780" 
d="M390 710c221 0 370 -161 370 -360c0 -10 -5 -15 -15 -15h-560c-10 0 -15 -5 -15 -15v-192c0 -8 2 -13 7 -19c54 -57 128 -89 233 -89c99 0 177 36 231 97c5 6 10 9 18 9h37c13 0 18 -9 9 -19c-67 -72 -168 -117 -295 -117c-241 0 -390 161 -390 360s149 360 370 360z
M610 572c0 8 -2 13 -7 19c-54 57 -128 89 -213 89s-159 -32 -213 -89c-5 -6 -7 -11 -7 -19v-192c0 -10 5 -15 15 -15h410c10 0 15 5 15 15v192z" />
    <glyph glyph-name="uni2116" unicode="&#x2116;" horiz-adv-x="1026" 
d="M823 356c-106 0 -183 82 -183 180c0 100 77 180 183 180s183 -80 183 -180c0 -98 -75 -180 -183 -180zM410 700h200v-700h-160l-200 330v-330h-200v700h160l200 -330v330zM823 496c24 0 39 16 39 40c0 23 -16 40 -39 40s-39 -17 -39 -40s16 -40 39 -40zM656 146v180h334
v-180h-334z" />
    <glyph glyph-name="asciicircum" unicode="^" horiz-adv-x="580" 
d="M354 700l206 -370h-200l-70 147l-70 -147h-200l206 370h128z" />
    <glyph glyph-name="dagger" unicode="&#x2020;" horiz-adv-x="460" 
d="M430 590v-174h-107v-416h-185v416h-108v174h108v110h185v-110h107z" />
    <glyph glyph-name="daggerdbl" unicode="&#x2021;" horiz-adv-x="460" 
d="M430 416h-107v-132h107v-174h-107v-110h-185v110h-108v174h108v132h-108v174h108v110h185v-110h107v-174z" />
    <glyph glyph-name="uni0308" unicode="&#x308;" horiz-adv-x="0" 
d="M-370 545v150h150v-150h-150zM-170 545v150h150v-150h-150z" />
    <glyph glyph-name="uni0307" unicode="&#x307;" horiz-adv-x="0" 
d="M-190 545v160h170v-160h-170z" />
    <glyph glyph-name="gravecomb" unicode="&#x300;" horiz-adv-x="0" 
d="M-20 550l-80 150h-210l116 -150h174z" />
    <glyph glyph-name="acutecomb" unicode="&#x301;" horiz-adv-x="0" 
d="M-280 550h174l116 150h-210z" />
    <glyph glyph-name="uni030B" unicode="&#x30b;" horiz-adv-x="0" 
d="M-487 540h168l86 160h-174zM-284 540h168l96 160h-174z" />
    <glyph glyph-name="uni0302" unicode="&#x302;" horiz-adv-x="0" 
d="M-20 540h-155l-45 58l-45 -58h-155l106 160h174h14z" />
    <glyph glyph-name="uni030C" unicode="&#x30c;" horiz-adv-x="0" 
d="M-175 700h155l-106 -160h-174h-14l-106 160h155l45 -58z" />
    <glyph glyph-name="uni0306" unicode="&#x306;" horiz-adv-x="0" 
d="M-215 532c-118 0 -185 57 -185 170h150c0 -26 11 -40 35 -40s35 14 35 40h150c0 -113 -67 -170 -185 -170z" />
    <glyph glyph-name="uni030A" unicode="&#x30a;" horiz-adv-x="0" 
d="M-169 530c-87 0 -149 60 -149 140s62 140 149 140c90 0 149 -60 149 -140s-59 -140 -149 -140zM-169 640c21 0 32 13 32 30s-11 30 -32 30c-20 0 -31 -13 -31 -30s11 -30 31 -30z" />
    <glyph glyph-name="tildecomb" unicode="&#x303;" horiz-adv-x="0" 
d="M-379 543c0 167 103 186 183 153c31 -13 56 -36 56 14h120c0 -171 -103 -186 -184 -153c-30 13 -55 36 -55 -14h-120z" />
    <glyph glyph-name="uni0304" unicode="&#x304;" horiz-adv-x="0" 
d="M-340 549v140h320v-140h-320z" />
    <glyph glyph-name="uni0312" unicode="&#x312;" horiz-adv-x="0" 
d="M-160 990l-40 -230h170l10 230h-140z" />
    <glyph glyph-name="uni0326" unicode="&#x326;" horiz-adv-x="0" 
d="M-60 -284l40 230h-170l-10 -230h140z" />
    <glyph glyph-name="uni0327" unicode="&#x327;" horiz-adv-x="0" 
d="M-73 -46c17 -7 53 -29 53 -77c0 -73 -77 -113 -245 -103v114c65 -5 95 1 95 14c0 12 -21 17 -53 20v78h150v-46z" />
    <glyph glyph-name="uni0328" unicode="&#x328;" horiz-adv-x="0" 
d="M-108 -214c-60 0 -110 28 -110 91c0 38 21 83 59 123h139c-28 -29 -40 -54 -40 -71c0 -13 8 -19 21 -19c7 0 13 1 19 3v-110c-27 -11 -54 -17 -88 -17z" />
    <glyph glyph-name="acute" unicode="&#xb4;" horiz-adv-x="330" 
d="M20 550h174l116 150h-210z" />
    <glyph glyph-name="breve" unicode="&#x2d8;" horiz-adv-x="410" 
d="M205 532c-118 0 -185 57 -185 170h150c0 -26 11 -40 35 -40s35 14 35 40h150c0 -113 -67 -170 -185 -170z" />
    <glyph glyph-name="caron" unicode="&#x2c7;" horiz-adv-x="440" 
d="M265 700h155l-106 -160h-174h-14l-106 160h155l45 -58z" />
    <glyph glyph-name="cedilla" unicode="&#xb8;" horiz-adv-x="285" 
d="M212 -46c17 -7 53 -29 53 -77c0 -73 -77 -113 -245 -103v114c65 -5 95 1 95 14c0 12 -21 17 -53 20v78h150v-46z" />
    <glyph glyph-name="circumflex" unicode="&#x2c6;" horiz-adv-x="440" 
d="M420 540h-155l-45 58l-45 -58h-155l106 160h174h14z" />
    <glyph glyph-name="dieresis" unicode="&#xa8;" horiz-adv-x="390" 
d="M20 545v150h150v-150h-150zM220 545v150h150v-150h-150z" />
    <glyph glyph-name="dotaccent" unicode="&#x2d9;" horiz-adv-x="210" 
d="M20 545v160h170v-160h-170z" />
    <glyph glyph-name="grave" unicode="`" horiz-adv-x="330" 
d="M310 550l-80 150h-210l116 -150h174z" />
    <glyph glyph-name="hungarumlaut" unicode="&#x2dd;" horiz-adv-x="507" 
d="M20 540h168l86 160h-174zM223 540h168l96 160h-174z" />
    <glyph glyph-name="macron" unicode="&#xaf;" horiz-adv-x="360" 
d="M20 549v140h320v-140h-320z" />
    <glyph glyph-name="ogonek" unicode="&#x2db;" horiz-adv-x="238" 
d="M130 -214c-60 0 -110 28 -110 91c0 38 21 83 59 123h139c-28 -29 -40 -54 -40 -71c0 -13 8 -19 21 -19c7 0 13 1 19 3v-110c-27 -11 -54 -17 -88 -17z" />
    <glyph glyph-name="ring" unicode="&#x2da;" horiz-adv-x="338" 
d="M169 530c-87 0 -149 60 -149 140s62 140 149 140c90 0 149 -60 149 -140s-59 -140 -149 -140zM169 640c21 0 32 13 32 30s-11 30 -32 30c-20 0 -31 -13 -31 -30s11 -30 31 -30z" />
    <glyph glyph-name="tilde" unicode="&#x2dc;" horiz-adv-x="399" 
d="M20 543c0 167 103 186 183 153c31 -13 56 -36 56 14h120c0 -171 -103 -186 -184 -153c-30 13 -55 36 -55 -14h-120z" />
    <glyph glyph-name="brevecy" horiz-adv-x="430" 
d="M40 549v150h350v-150h-350z" />
    </font>
</defs>
</svg>
