<svg xmlns="http://www.w3.org/2000/svg" width="19" height="25.91" viewBox="0 0 19 25.91">
  <metadata><?xpacket begin="﻿" id="W5M0MpCehiHzreSzNTczkc9d"?>
<x:xmpmeta xmlns:x="adobe:ns:meta/" x:xmptk="Adobe XMP Core 5.6-c138 79.159824, 2016/09/14-01:09:01        ">
   <rdf:RDF xmlns:rdf="http://www.w3.org/1999/02/22-rdf-syntax-ns#">
      <rdf:Description rdf:about=""/>
   </rdf:RDF>
</x:xmpmeta>
                                                                                                    
                                                                                                    
                                                                                                    
                                                                                                    
                                                                                                    
                                                                                                    
                                                                                                    
                                                                                                    
                                                                                                    
                                                                                                    
                                                                                                    
                                                                                                    
                                                                                                    
                                                                                                    
                                                                                                    
                                                                                                    
                                                                                                    
                                                                                                    
                                                                                                    
                                                                                                    
                           
<?xpacket end="w"?></metadata>
<defs>
    <style>
      .cls-1 {
        fill: #1a1a1a;
        fill-rule: evenodd;
      }
    </style>
  </defs>
  <path id="Фигура_8" data-name="Фигура 8" class="cls-1" d="M394.364,5250.38l-1.071.62a4.523,4.523,0,0,0-2,2.37,20,20,0,0,1-5.892-10.07c-0.011-.07-0.024-0.13-0.033-0.19a4.481,4.481,0,0,0,3.037-.53c0.007,0,.014-0.01.021-0.01l1.07-.62a0.272,0.272,0,0,0,.114-0.35l-3.543-7.85a0.271,0.271,0,0,0-.168-0.15,0.288,0.288,0,0,0-.223.02l-1.813,1.05a4.559,4.559,0,0,0-1.326,1.16h0a4.4,4.4,0,0,0-.358.55c-1.925,3.24-2.067,8.7,1.359,14.63,3.439,5.96,8.264,8.57,12.036,8.49a2.883,2.883,0,0,0,.509-0.02c0.035,0,.072-0.01.107-0.01h0a4.6,4.6,0,0,0,1.666-.57h0l1.813-1.05a0.275,0.275,0,0,0,.086-0.4l-5.027-6.99A0.274,0.274,0,0,0,394.364,5250.38Z" transform="translate(-380.812 -5233.59)"/>
</svg>
