<?xml version="1.0" encoding="utf-8"?>
<!-- Generator: Adobe Illustrator 19.2.0, SVG Export Plug-In . SVG Version: 6.00 Build 0)  -->
<svg version="1.1" id="Слой_1" xmlns="http://www.w3.org/2000/svg" xmlns:xlink="http://www.w3.org/1999/xlink" x="0px" y="0px"
	 viewBox="0 0 17 14.2" style="enable-background:new 0 0 17 14.2;" xml:space="preserve">
<style type="text/css">
	.st0{fill:currentColor;}
</style>
<g>
	<g>
		<path class="st0" d="M8.4,1.1H2.1c-0.5,0-1,0.4-1,1v10.1c0,0.5,0.4,1,1,1h6.3c0.5,0,1-0.4,1-1V2C9.4,1.5,9,1.1,8.4,1.1z M15.2,2.9
			H14v8.3h1.2c0.4,0,0.7-0.3,0.7-0.7v-7C15.9,3.2,15.6,2.9,15.2,2.9z M11.9,2h-1.2v10.1h1.2c0.5,0,0.8-0.4,0.8-0.8V2.9
			C12.7,2.4,12.4,2,11.9,2z"/>
	</g>
</g>
</svg>
