<?xml version="1.0" encoding="utf-8"?>
<!-- Generator: Adobe Illustrator 19.2.0, SVG Export Plug-In . SVG Version: 6.00 Build 0)  -->
<svg version="1.1" id="Слой_1" xmlns="http://www.w3.org/2000/svg" xmlns:xlink="http://www.w3.org/1999/xlink" x="0px" y="0px"
	 viewBox="0 0 85 85" style="enable-background:new 0 0 85 85;" xml:space="preserve">
<style type="text/css">
	.st0{fill:#5E5E5E;}
</style>
<path class="st0" d="M62.4,53.6c3.5-5,5.6-10.9,5.6-17.4c0-17-14.4-30.9-32-30.9C18.3,5.4,4,19.2,4,36.2c0,17,14.4,30.9,32,30.9
	c7.2,0,13.9-2.3,19.2-6.2l19.1,18.4l7.4-7.1L62.4,53.6z M36,57c-11.9,0-21.6-9.3-21.6-20.8c0-11.5,9.7-20.8,21.6-20.8
	c11.9,0,21.6,9.3,21.6,20.8C57.6,47.7,47.9,57,36,57z"/>
</svg>
