<svg xmlns="http://www.w3.org/2000/svg" width="11.81" height="11.812" viewBox="0 0 11.81 11.812">
  <metadata><?xpacket begin="﻿" id="W5M0MpCehiHzreSzNTczkc9d"?>
<x:xmpmeta xmlns:x="adobe:ns:meta/" x:xmptk="Adobe XMP Core 5.6-c138 79.159824, 2016/09/14-01:09:01        ">
   <rdf:RDF xmlns:rdf="http://www.w3.org/1999/02/22-rdf-syntax-ns#">
      <rdf:Description rdf:about=""/>
   </rdf:RDF>
</x:xmpmeta>

<?xpacket end="w"?></metadata>
<defs>
    <style>
      .cls-1 {
        fill: currentColor;
        fill-rule: evenodd;
      }
    </style>
  </defs>
  <path id="Фигура_11_копия" data-name="Фигура 11 копия" class="cls-1" d="M1119,255.206h-3.33a0.99,0.99,0,0,1-.99-0.977v-3.256a0.99,0.99,0,0,1,.99-0.977H1119a0.992,0.992,0,0,1,1,.977v3.256A0.992,0.992,0,0,1,1119,255.206Zm0,6.593h-3.33a0.99,0.99,0,0,1-.99-0.977v-3.256a0.99,0.99,0,0,1,.99-0.977H1119a0.992,0.992,0,0,1,1,.977v3.256A0.992,0.992,0,0,1,1119,261.8Zm-6.49-6.593h-3.32a0.992,0.992,0,0,1-1-.977v-3.256a0.992,0.992,0,0,1,1-.977h3.32a0.992,0.992,0,0,1,1,.977v3.256A0.992,0.992,0,0,1,1112.51,255.206Zm0,6.593h-3.32a0.992,0.992,0,0,1-1-.977v-3.256a0.992,0.992,0,0,1,1-.977h3.32a0.992,0.992,0,0,1,1,.977v3.256A0.992,0.992,0,0,1,1112.51,261.8Z" transform="translate(-1108.19 -250)"/>
</svg>
