<svg aria-hidden="true" style="position: absolute; width: 0; height: 0; overflow: hidden;" version="1.1" xmlns="http://www.w3.org/2000/svg" xmlns:xlink="http://www.w3.org/1999/xlink">
<defs>
<symbol id="icon-facebook" viewBox="0 0 18 32">
<title>facebook</title>
<path d="M3.914 17.684v14.333h7.389v-14.265h5.043l1.221-5.945h-6.211v-4.362c-0.002-0.027-0.003-0.058-0.003-0.089 0-0.724 0.587-1.31 1.31-1.31 0.024 0 0.047 0.001 0.070 0.002l-0.003-0h3.591v-6.063h-6.705c-2.312 0-5.726 2.695-5.726 5.541v6.114h-3.874v6.029z"></path>
</symbol>
<symbol id="icon-arrow_bottom" viewBox="0 0 32 32">
<title>arrow_bottom</title>
<path fill="currentColor" d="M17.242 23.492l13.553-12.574c0.678-0.64 0.715-1.656 0.075-2.334s-1.656-0.715-2.334-0.075l-12.499 11.595-12.612-11.595c-0.678-0.64-1.732-0.602-2.334 0.075-0.64 0.678-0.602 1.732 0.075 2.334l13.591 12.574c0.339 0.339 0.791 0.452 1.242 0.452s0.904-0.151 1.242-0.452z"></path>
</symbol>
<symbol id="icon-arrow_top" viewBox="0 0 32 32">
<title>arrow_top</title>
<path fill="currentColor" d="M14.758 8.471l-13.553 12.574c-0.678 0.64-0.715 1.656-0.075 2.334s1.656 0.715 2.334 0.075l12.536-11.595 12.574 11.595c0.678 0.64 1.732 0.602 2.334-0.075 0.64-0.678 0.602-1.732-0.075-2.334l-13.591-12.574c-0.339-0.339-0.791-0.452-1.242-0.452s-0.904 0.151-1.242 0.452z"></path>
</symbol>
<symbol id="icon-youtube" viewBox="0 0 47 32">
<title>youtube</title>
<path d="M45.040 3.076c-1.297-2.239-2.684-2.658-5.499-2.83s-9.888-0.253-16.034-0.253v0c-6.144 0-13.215 0.084-16.034 0.253s-4.2 0.59-5.497 2.83-1.993 6.117-1.993 12.903v0 0.015c0 6.789 0.694 10.67 1.993 12.905s2.684 2.658 5.497 2.828 9.888 0.253 16.034 0.253v0c6.142 0 13.215-0.086 16.034-0.253s4.202-0.59 5.499-2.828 1.993-6.117 1.993-12.905v-0.015c0-6.787-0.698-10.668-1.993-12.903zM18.829 24.393v-16.81l13.357 8.405z"></path>
</symbol>
<symbol id="icon-arrow_left" viewBox="0 0 32 32">
<title>arrow_left</title>
<path fill="currentColor" d="M9.224 17.205l12.574 13.591c0.64 0.678 1.656 0.715 2.334 0.075s0.715-1.656 0.075-2.334l-11.595-12.536 11.595-12.574c0.64-0.678 0.602-1.732-0.075-2.334-0.678-0.64-1.732-0.602-2.334 0.075l-12.574 13.591c-0.339 0.339-0.452 0.791-0.452 1.242 0 0.414 0.151 0.866 0.452 1.205z"></path>
</symbol>
<symbol id="icon-arrow_right" viewBox="0 0 32 32">
<title>arrow_right</title>
<path fill="currentColor" d="M24.207 14.758l-12.574-13.591c-0.64-0.678-1.656-0.715-2.334-0.075s-0.715 1.656-0.075 2.334l11.595 12.536-11.595 12.574c-0.64 0.678-0.602 1.732 0.075 2.334 0.678 0.64 1.732 0.602 2.334-0.075l12.574-13.591c0.339-0.339 0.452-0.791 0.452-1.242 0-0.414-0.151-0.866-0.452-1.205z"></path>
</symbol>
<symbol id="icon-projects" viewBox="0 0 38 32">
<title>projects</title>
<path d="M18.93 2.479h-14.197c-1.127 0-2.254 0.901-2.254 2.254v22.761c0 1.127 0.901 2.254 2.254 2.254h14.197c1.127 0 2.254-0.901 2.254-2.254v-22.986c0-1.127-0.901-2.028-2.254-2.028zM34.254 6.535h-2.704v18.704h2.704c0.901 0 1.577-0.676 1.577-1.577v-15.775c0-0.676-0.676-1.352-1.577-1.352zM26.817 4.507h-2.704v22.761h2.704c1.127 0 1.803-0.901 1.803-1.803v-18.93c0-1.127-0.676-2.028-1.803-2.028z"></path>
</symbol>
<symbol id="icon-twitter" viewBox="0 0 41 32">
<title>twitter</title>
<path d="M41.022 3.799c-1.409 0.613-3.043 1.059-4.752 1.259l-0.082 0.008c1.726-0.986 3.033-2.537 3.685-4.397l0.017-0.057c-1.542 0.887-3.333 1.568-5.234 1.945l-0.112 0.019c-1.547-1.577-3.701-2.554-6.083-2.554-0.021 0-0.042 0-0.063 0l0.003-0c-0.051-0.001-0.112-0.002-0.173-0.002-4.49 0-8.142 3.59-8.243 8.056l-0 0.009c-0 0.012-0 0.025-0 0.039 0 0.638 0.077 1.258 0.222 1.851l-0.011-0.053c-6.948-0.312-13.094-3.499-17.32-8.391l-0.026-0.031c-0.716 1.152-1.14 2.549-1.14 4.045 0 0.003 0 0.005 0 0.008v-0c0.018 2.818 1.495 5.287 3.712 6.693l0.033 0.019c-1.402-0.039-2.709-0.41-3.857-1.036l0.045 0.022c0 0.042 0 0.063 0 0.106 0.075 3.954 2.94 7.218 6.704 7.908l0.050 0.008c-0.664 0.17-1.427 0.27-2.213 0.274h-0.003c-0.020 0-0.044 0-0.067 0-0.537 0-1.061-0.054-1.568-0.157l0.050 0.009c1.178 3.274 4.249 5.577 7.861 5.594h0.002c-2.857 2.161-6.469 3.462-10.385 3.462-0.024 0-0.047-0-0.071-0h0.004c-0.68 0-1.349-0.042-2.007-0.106 3.657 2.266 8.092 3.61 12.841 3.61 0.021 0 0.042-0 0.063-0h-0.003c0.203 0.006 0.442 0.010 0.682 0.010 12.74 0 23.088-10.24 23.263-22.938l0-0.016c0-0.338 0-0.697-0.023-1.034 1.652-1.149 3.045-2.535 4.165-4.127l0.035-0.053z"></path>
</symbol>
<symbol id="icon-separate" viewBox="0 0 32 32">
<title>separate</title>
<path d="M29.285 14.104h-9.021c-0 0-0 0-0 0-1.469 0-2.662-1.181-2.682-2.645l-0-0.002v-8.821c0.020-1.466 1.213-2.647 2.682-2.647 0 0 0 0 0 0h9.021c0.007-0 0.014-0 0.022-0 1.47 0 2.664 1.18 2.687 2.645l0 0.002v8.821c-0.023 1.467-1.217 2.647-2.687 2.647-0.008 0-0.015-0-0.023-0h0.001zM29.285 31.965h-9.021c-0 0-0 0-0 0-1.469 0-2.662-1.181-2.682-2.645l-0-0.002v-8.821c0.020-1.466 1.213-2.647 2.682-2.647 0 0 0 0 0 0h9.021c0.007-0 0.014-0 0.022-0 1.47 0 2.664 1.18 2.687 2.645l0 0.002v8.821c-0.021 1.468-1.216 2.65-2.687 2.65-0.008 0-0.015-0-0.023-0h0.001zM11.703 14.104h-8.994c-0.007 0-0.014 0-0.022 0-1.47 0-2.664-1.18-2.687-2.645l-0-0.002v-8.821c0.023-1.467 1.217-2.647 2.687-2.647 0.008 0 0.015 0 0.023 0h8.993c0.007-0 0.014-0 0.022-0 1.47 0 2.664 1.18 2.687 2.645l0 0.002v8.821c-0.023 1.467-1.217 2.647-2.687 2.647-0.008 0-0.015-0-0.023-0h0.001zM11.703 31.965h-8.994c-0.007 0-0.014 0-0.022 0-1.47 0-2.664-1.18-2.687-2.645l-0-0.002v-8.821c0.023-1.467 1.217-2.647 2.687-2.647 0.008 0 0.015 0 0.023 0h8.993c0.007-0 0.014-0 0.022-0 1.47 0 2.664 1.18 2.687 2.645l0 0.002v8.821c-0.021 1.468-1.216 2.65-2.687 2.65-0.008 0-0.015-0-0.023-0h0.001z"></path>
</symbol>
<symbol id="icon-search" viewBox="0 0 32 32">
<title>search</title>
<path fill="currentColor" d="M23.492 20.179c1.318-1.882 2.108-4.104 2.108-6.551 0-6.4-5.421-11.633-12.047-11.633-6.664 0.038-12.047 5.233-12.047 11.633s5.421 11.633 12.047 11.633c2.711 0 5.233-0.866 7.228-2.334l7.191 6.927 2.786-2.673-7.266-7.002zM13.553 21.459c-4.48 0-8.132-3.501-8.132-7.831s3.652-7.831 8.132-7.831c4.48 0 8.132 3.501 8.132 7.831s-3.652 7.831-8.132 7.831z"></path>
</symbol>
<symbol id="icon-cross" viewBox="0 0 32 32">
<title>cross</title>
<path fill="currentColor" d="M29.666 27.369l-11.407-11.52 11.106-11.181c0.64-0.64 0.64-1.656 0-2.259-0.64-0.64-1.656-0.64-2.259 0l-11.106 11.144-11.068-11.181c-0.64-0.64-1.656-0.64-2.259 0-0.64 0.64-0.64 1.656 0 2.259l11.068 11.181-11.407 11.558c-0.64 0.64-0.64 1.656 0 2.259 0.64 0.64 1.656 0.64 2.259 0l11.407-11.52 11.407 11.52c0.64 0.64 1.656 0.64 2.259 0 0.64-0.64 0.64-1.656 0-2.259z"></path>
</symbol>
<symbol id="icon-telegram" viewBox="0 0 32 32">
<title>telegram</title>
<path fill="currentColor" d="M29.357 3.757l-28.104 10.991c-0.974 0.417-0.835 1.67 0.139 1.948l7.096 2.087 2.643 8.348c0.278 0.835 1.391 1.113 2.087 0.557l3.617-3.757 7.235 5.287c0.835 0.696 2.087 0.139 2.365-0.974l4.73-22.957c0.417-0.974-0.696-1.948-1.809-1.53v0zM25.878 8.904l-13.078 11.548c-0.139 0-0.139 0.139-0.278 0.417l-0.557 4.452c0 0.139-0.278 0.139-0.278 0l-1.948-6.678c-0.139-0.278 0-0.696 0.278-0.835l15.443-9.461c0.278-0.278 0.696 0.278 0.417 0.557v0z"></path>
</symbol>
<symbol id="icon-delta_left" viewBox="0 0 39 32">
<title>delta_left</title>
<path d="M38.574 0.021l-38.548 15.979 38.548 15.957z"></path>
</symbol>
<symbol id="icon-delta_right" viewBox="0 0 39 32">
<title>delta_right</title>
<path d="M0 0.021l38.538 15.979-38.538 15.957z"></path>
</symbol>
<symbol id="icon-email" viewBox="0 0 43 32">
<title>email</title>
<path d="M-0.021-0.021v4.286l21.347 10.32 21.347-10.32v-4.286h-42.694zM-0.021 7.99v24.010h42.694v-24.010l-21.347 10.153z"></path>
</symbol>
<symbol id="icon-home" viewBox="0 0 35 32">
<title>home</title>
<path d="M28.012-0.017h-4.708v2.237l4.708 3.898v-6.136zM35.071 14.712l-17.746-14.729-17.342 15.102 3.792 4.492 2.958-2.576v15.017h21.28v-15.525l3.378 2.797z"></path>
</symbol>
<symbol id="icon-menu" viewBox="0 0 32 32">
<title>menu</title>
<path d="M4 8h24v2.667h-24v-2.667zM4 14.667h24v2.667h-24v-2.667zM4 21.333h24v2.667h-24v-2.667z"></path>
</symbol>
<symbol id="icon-phone" viewBox="0 0 23 32">
<title>phone</title>
<path d="M16.737 20.736l-1.323 0.766c-1.135 0.658-2.002 1.673-2.457 2.889l-0.013 0.039c-3.514-3.251-6.074-7.487-7.242-12.268l-0.035-0.169c-0.014-0.086-0.030-0.161-0.041-0.235 0.295 0.056 0.635 0.088 0.982 0.088 1.019 0 1.975-0.276 2.795-0.757l-0.026 0.014c0.009 0 0.017-0.012 0.026-0.012l1.322-0.766c0.103-0.059 0.171-0.168 0.171-0.293 0-0.051-0.011-0.099-0.031-0.142l0.001 0.002-4.376-9.695c-0.040-0.089-0.114-0.156-0.205-0.185l-0.002-0.001c-0.032-0.011-0.070-0.017-0.108-0.017-0.061 0-0.119 0.015-0.169 0.043l0.002-0.001-2.239 1.297c-0.646 0.378-1.189 0.856-1.628 1.42l-0.010 0.013c-0.152 0.197-0.298 0.419-0.428 0.652l-0.014 0.028c-2.377 4.002-2.553 10.745 1.678 18.069 4.247 7.361 10.206 10.584 14.865 10.486 0.052 0.003 0.113 0.004 0.175 0.004 0.16 0 0.317-0.011 0.472-0.031l-0.018 0.002c0.043 0 0.089-0.012 0.132-0.012v0c0.771-0.109 1.465-0.357 2.085-0.718l-0.027 0.015 2.239-1.297c0.103-0.060 0.171-0.169 0.171-0.295 0-0.075-0.024-0.144-0.065-0.2l0.001 0.001-6.209-8.633c-0.062-0.088-0.163-0.145-0.278-0.145-0.063 0-0.122 0.017-0.173 0.048l0.002-0.001z"></path>
</symbol>
</defs>
</svg>
