<?xml version="1.0" encoding="utf-8"?>
<!-- Generator: Adobe Illustrator 19.0.1, SVG Export Plug-In . SVG Version: 6.00 Build 0)  -->
<svg version="1.1" id="Слой_1" xmlns="http://www.w3.org/2000/svg" xmlns:xlink="http://www.w3.org/1999/xlink" x="0px" y="0px"
	 viewBox="0 0 595.3 481.9" style="enable-background:new 0 0 595.3 481.9;" xml:space="preserve">
<style type="text/css">
	.st0{fill:current:color}
</style>
<path class="st0" d="M512.6,16.4L36.8,201.8c-15.4,6-14.5,28.1,1.4,32.8l120.9,35.7l45.1,143.2c4.7,15,23.7,19.5,34.6,8.3l62.5-63.8
	l122.6,90c15,11,36.4,2.8,40.2-15.4l81.2-388.4C549.4,25.2,530.7,9.3,512.6,16.4L512.6,16.4z M453,102.6L232,298
	c-2.2,1.9-3.6,4.6-3.9,7.6l-8.5,75.6c-0.3,2.5-3.7,2.8-4.5,0.4l-35-112.8c-1.6-5.2,0.5-10.8,5.1-13.6l261-161.9
	C452.1,89.6,458.3,97.9,453,102.6L453,102.6z M453,102.6"/>
</svg>
