<svg xmlns="http://www.w3.org/2000/svg" width="19.438" height="15.16" viewBox="0 0 19.438 15.16">
  <metadata><?xpacket begin="﻿" id="W5M0MpCehiHzreSzNTczkc9d"?>
<x:xmpmeta xmlns:x="adobe:ns:meta/" x:xmptk="Adobe XMP Core 5.6-c138 79.159824, 2016/09/14-01:09:01        ">
   <rdf:RDF xmlns:rdf="http://www.w3.org/1999/02/22-rdf-syntax-ns#">
      <rdf:Description rdf:about=""/>
   </rdf:RDF>
</x:xmpmeta>





















<?xpacket end="w"?></metadata>
<defs>
    <style>
      .cls-1 {
        fill: currenColor;
        fill-rule: evenodd;
      }
    </style>
  </defs>
  <path id="Фигура_4" data-name="Фигура 4" class="cls-1" d="M383.434,1007.8a8.29,8.29,0,0,1-2.29.6,3.855,3.855,0,0,0,1.754-2.11,8.376,8.376,0,0,1-2.533.93,4.036,4.036,0,0,0-2.91-1.21,3.906,3.906,0,0,0-3.987,3.82,3.674,3.674,0,0,0,.1.87,11.5,11.5,0,0,1-8.218-3.99,3.671,3.671,0,0,0-.54,1.92,3.78,3.78,0,0,0,1.774,3.18,4.053,4.053,0,0,1-1.806-.48c0,0.02,0,.03,0,0.05a3.881,3.881,0,0,0,3.2,3.75,4.519,4.519,0,0,1-1.05.13,3.721,3.721,0,0,1-.751-0.07,3.968,3.968,0,0,0,3.725,2.65,8.2,8.2,0,0,1-4.952,1.64c-0.322,0-.639-0.02-0.951-0.05a11.676,11.676,0,0,0,6.112,1.71,11.022,11.022,0,0,0,11.344-10.87c0-.16,0-0.33-0.011-0.49A7.88,7.88,0,0,0,383.434,1007.8Z" transform="translate(-364 -1006)"/>
</svg>
