<svg xmlns="http://www.w3.org/2000/svg" width="25.812" height="17.563" viewBox="0 0 25.812 17.563">
  <metadata><?xpacket begin="﻿" id="W5M0MpCehiHzreSzNTczkc9d"?>
<x:xmpmeta xmlns:x="adobe:ns:meta/" x:xmptk="Adobe XMP Core 5.6-c138 79.159824, 2016/09/14-01:09:01        ">
   <rdf:RDF xmlns:rdf="http://www.w3.org/1999/02/22-rdf-syntax-ns#">
      <rdf:Description rdf:about=""/>
   </rdf:RDF>
</x:xmpmeta>





















<?xpacket end="w"?></metadata>
<defs>
    <style>
      .cls-1 {
        fill: currentColor;
        fill-rule: evenodd;
      }
    </style>
  </defs>
  <path id="Фигура_6" data-name="Фигура 6" class="cls-1" d="M241.189,903.25c-0.712-1.229-1.473-1.459-3.018-1.553s-5.427-.139-8.8-0.139h0c-3.372,0-7.253.046-8.8,0.139s-2.305.324-3.017,1.553-1.094,3.357-1.094,7.082h0v0.008h0c0,3.726.381,5.856,1.094,7.083s1.473,1.459,3.017,1.552,5.427,0.139,8.8.139h0c3.371,0,7.253-.047,8.8-0.139s2.306-.324,3.018-1.552,1.094-3.357,1.094-7.083v-0.008C242.283,906.607,241.9,904.477,241.189,903.25Zm-14.386,11.7v-9.226l7.331,4.613Z" transform="translate(-216.469 -901.562)"/>
</svg>
